<ttFont>
    <TTGlyph name="A" xMin="5" yMin="0" xMax="742" yMax="700">
      <contour>
        <pt x="5" y="69" on="1"/>
        <pt x="5" y="113" on="0"/>
        <pt x="23" y="144" on="0"/>
        <pt x="52" y="144" on="1"/>
        <pt x="83" y="144" on="0"/>
        <pt x="83" y="136" on="1"/>
        <pt x="90" y="178" on="0"/>
        <pt x="289" y="693" on="0"/>
        <pt x="300" y="695" on="1"/>
        <pt x="332" y="700" on="0"/>
        <pt x="378" y="700" on="1"/>
        <pt x="402" y="700" on="0"/>
        <pt x="447" y="695" on="1"/>
        <pt x="458" y="690" on="0"/>
        <pt x="657" y="177" on="0"/>
        <pt x="664" y="136" on="1"/>
        <pt x="664" y="144" on="0"/>
        <pt x="695" y="144" on="1"/>
        <pt x="724" y="144" on="0"/>
        <pt x="742" y="113" on="0"/>
        <pt x="742" y="69" on="1"/>
        <pt x="742" y="18" on="0"/>
        <pt x="731" y="12" on="1"/>
        <pt x="718" y="0" on="0"/>
        <pt x="575" y="0" on="1"/>
        <pt x="472" y="0" on="0"/>
        <pt x="472" y="11" on="1"/>
        <pt x="450" y="24" on="0"/>
        <pt x="450" y="100" on="1"/>
        <pt x="450" y="111" on="0"/>
        <pt x="452" y="123" on="0"/>
        <pt x="466" y="135" on="0"/>
        <pt x="479" y="135" on="1"/>
        <pt x="508" y="135" on="0"/>
        <pt x="508" y="131" on="1"/>
        <pt x="512" y="131" on="0"/>
        <pt x="512" y="141" on="1"/>
        <pt x="512" y="166" on="0"/>
        <pt x="485" y="255" on="1"/>
        <pt x="444" y="251" on="0"/>
        <pt x="376" y="251" on="1"/>
        <pt x="303" y="251" on="0"/>
        <pt x="262" y="255" on="1"/>
        <pt x="235" y="165" on="0"/>
        <pt x="235" y="140" on="1"/>
        <pt x="235" y="132" on="0"/>
        <pt x="239" y="131" on="1"/>
        <pt x="245" y="135" on="0"/>
        <pt x="265" y="135" on="1"/>
        <pt x="280" y="135" on="0"/>
        <pt x="295" y="121" on="0"/>
        <pt x="297" y="107" on="0"/>
        <pt x="297" y="91" on="1"/>
        <pt x="297" y="25" on="0"/>
        <pt x="275" y="11" on="1"/>
        <pt x="275" y="0" on="0"/>
        <pt x="172" y="0" on="1"/>
        <pt x="29" y="0" on="0"/>
        <pt x="16" y="12" on="1"/>
        <pt x="5" y="18" on="0"/>
      </contour>
      <contour>
        <pt x="298" y="371" on="1"/>
        <pt x="336" y="374" on="0"/>
        <pt x="371" y="374" on="1"/>
        <pt x="412" y="374" on="0"/>
        <pt x="448" y="370" on="1"/>
        <pt x="403" y="503" on="0"/>
        <pt x="373" y="576" on="1"/>
        <pt x="345" y="507" on="0"/>
      </contour>
    </TTGlyph>
    <TTGlyph name="AE" xMin="-1" yMin="-13" xMax="974" yMax="712">
      <contour>
        <pt x="-1" y="62" on="1"/>
        <pt x="-1" y="133" on="0"/>
        <pt x="15" y="136" on="1"/>
        <pt x="15" y="144" on="0"/>
        <pt x="46" y="144" on="1"/>
        <pt x="75" y="144" on="0"/>
        <pt x="77" y="136" on="1"/>
        <pt x="118" y="230" on="0"/>
        <pt x="291" y="544" on="0"/>
        <pt x="400" y="695" on="1"/>
        <pt x="591" y="712" on="0"/>
        <pt x="666" y="712" on="1"/>
        <pt x="852" y="712" on="0"/>
        <pt x="964" y="674" on="1"/>
        <pt x="974" y="624" on="0"/>
        <pt x="974" y="597" on="1"/>
        <pt x="974" y="550" on="0"/>
        <pt x="951" y="520" on="1"/>
        <pt x="926" y="514" on="0"/>
        <pt x="908" y="514" on="1"/>
        <pt x="876" y="514" on="0"/>
        <pt x="826" y="547" on="1"/>
        <pt x="829" y="580" on="1"/>
        <pt x="806" y="593" on="0"/>
        <pt x="704" y="593" on="1"/>
        <pt x="677" y="593" on="0"/>
        <pt x="632" y="592" on="0"/>
        <pt x="605" y="590" on="0"/>
        <pt x="585" y="587" on="0"/>
        <pt x="576" y="586" on="0"/>
        <pt x="575" y="586" on="1"/>
        <pt x="575" y="412" on="1"/>
        <pt x="584" y="412" on="0"/>
        <pt x="652" y="411" on="0"/>
        <pt x="666" y="411" on="1"/>
        <pt x="690" y="411" on="0"/>
        <pt x="690" y="412" on="1"/>
        <pt x="689" y="415" on="0"/>
        <pt x="689" y="421" on="1"/>
        <pt x="689" y="432" on="0"/>
        <pt x="698" y="448" on="1"/>
        <pt x="704" y="453" on="0"/>
        <pt x="731" y="453" on="1"/>
        <pt x="773" y="453" on="0"/>
        <pt x="789" y="446" on="1"/>
        <pt x="809" y="411" on="0"/>
        <pt x="809" y="341" on="1"/>
        <pt x="809" y="297" on="0"/>
        <pt x="786" y="278" on="1"/>
        <pt x="771" y="265" on="0"/>
        <pt x="743" y="265" on="1"/>
        <pt x="717" y="265" on="0"/>
        <pt x="700" y="275" on="1"/>
        <pt x="691" y="280" on="0"/>
        <pt x="687" y="288" on="0"/>
        <pt x="687" y="304" on="1"/>
        <pt x="574" y="300" on="1"/>
        <pt x="575" y="125" on="1"/>
        <pt x="617" y="96" on="0"/>
        <pt x="695" y="96" on="1"/>
        <pt x="776" y="96" on="0"/>
        <pt x="829" y="124" on="1"/>
        <pt x="826" y="157" on="1"/>
        <pt x="876" y="190" on="0"/>
        <pt x="909" y="190" on="1"/>
        <pt x="927" y="190" on="0"/>
        <pt x="951" y="184" on="1"/>
        <pt x="974" y="154" on="0"/>
        <pt x="974" y="107" on="1"/>
        <pt x="974" y="80" on="0"/>
        <pt x="964" y="30" on="1"/>
        <pt x="889" y="-13" on="0"/>
        <pt x="692" y="-13" on="1"/>
        <pt x="596" y="-13" on="0"/>
        <pt x="422" y="8" on="0"/>
        <pt x="387" y="24" on="1"/>
        <pt x="366" y="45" on="0"/>
        <pt x="366" y="79" on="1"/>
        <pt x="366" y="122" on="0"/>
        <pt x="382" y="135" on="1"/>
        <pt x="400" y="144" on="0"/>
        <pt x="422" y="144" on="1"/>
        <pt x="432" y="144" on="0"/>
        <pt x="438" y="141" on="1"/>
        <pt x="433" y="171" on="0"/>
        <pt x="429" y="252" on="1"/>
        <pt x="408" y="251" on="0"/>
        <pt x="371" y="251" on="1"/>
        <pt x="329" y="251" on="0"/>
        <pt x="286" y="255" on="1"/>
        <pt x="240" y="172" on="0"/>
        <pt x="233" y="131" on="1"/>
        <pt x="245" y="135" on="0"/>
        <pt x="257" y="135" on="1"/>
        <pt x="288" y="135" on="0"/>
        <pt x="288" y="119" on="1"/>
        <pt x="291" y="110" on="0"/>
        <pt x="291" y="91" on="1"/>
        <pt x="291" y="25" on="0"/>
        <pt x="269" y="11" on="1"/>
        <pt x="269" y="0" on="0"/>
        <pt x="166" y="0" on="1"/>
        <pt x="23" y="0" on="0"/>
        <pt x="10" y="12" on="1"/>
        <pt x="-1" y="16" on="0"/>
      </contour>
      <contour>
        <pt x="323" y="371" on="1"/>
        <pt x="347" y="375" on="0"/>
        <pt x="378" y="375" on="1"/>
        <pt x="407" y="375" on="0"/>
        <pt x="426" y="370" on="1"/>
        <pt x="437" y="562" on="1"/>
      </contour>
    </TTGlyph>
    <TTGlyph name="Aacute" xMin="5" yMin="0" xMax="742" yMax="946">
      <contour>
        <pt x="5" y="69" on="1"/>
        <pt x="5" y="113" on="0"/>
        <pt x="23" y="144" on="0"/>
        <pt x="52" y="144" on="1"/>
        <pt x="83" y="144" on="0"/>
        <pt x="83" y="136" on="1"/>
        <pt x="90" y="178" on="0"/>
        <pt x="289" y="693" on="0"/>
        <pt x="300" y="695" on="1"/>
        <pt x="332" y="700" on="0"/>
        <pt x="378" y="700" on="1"/>
        <pt x="402" y="700" on="0"/>
        <pt x="447" y="695" on="1"/>
        <pt x="458" y="690" on="0"/>
        <pt x="657" y="177" on="0"/>
        <pt x="664" y="136" on="1"/>
        <pt x="664" y="144" on="0"/>
        <pt x="695" y="144" on="1"/>
        <pt x="724" y="144" on="0"/>
        <pt x="742" y="113" on="0"/>
        <pt x="742" y="69" on="1"/>
        <pt x="742" y="18" on="0"/>
        <pt x="731" y="12" on="1"/>
        <pt x="718" y="0" on="0"/>
        <pt x="575" y="0" on="1"/>
        <pt x="472" y="0" on="0"/>
        <pt x="472" y="11" on="1"/>
        <pt x="450" y="24" on="0"/>
        <pt x="450" y="100" on="1"/>
        <pt x="450" y="111" on="0"/>
        <pt x="452" y="123" on="0"/>
        <pt x="466" y="135" on="0"/>
        <pt x="479" y="135" on="1"/>
        <pt x="508" y="135" on="0"/>
        <pt x="508" y="131" on="1"/>
        <pt x="512" y="131" on="0"/>
        <pt x="512" y="141" on="1"/>
        <pt x="512" y="166" on="0"/>
        <pt x="485" y="255" on="1"/>
        <pt x="444" y="251" on="0"/>
        <pt x="376" y="251" on="1"/>
        <pt x="303" y="251" on="0"/>
        <pt x="262" y="255" on="1"/>
        <pt x="235" y="165" on="0"/>
        <pt x="235" y="140" on="1"/>
        <pt x="235" y="132" on="0"/>
        <pt x="239" y="131" on="1"/>
        <pt x="245" y="135" on="0"/>
        <pt x="265" y="135" on="1"/>
        <pt x="280" y="135" on="0"/>
        <pt x="295" y="121" on="0"/>
        <pt x="297" y="107" on="0"/>
        <pt x="297" y="91" on="1"/>
        <pt x="297" y="25" on="0"/>
        <pt x="275" y="11" on="1"/>
        <pt x="275" y="0" on="0"/>
        <pt x="172" y="0" on="1"/>
        <pt x="29" y="0" on="0"/>
        <pt x="16" y="12" on="1"/>
        <pt x="5" y="18" on="0"/>
      </contour>
      <contour>
        <pt x="298" y="371" on="1"/>
        <pt x="336" y="374" on="0"/>
        <pt x="371" y="374" on="1"/>
        <pt x="412" y="374" on="0"/>
        <pt x="448" y="370" on="1"/>
        <pt x="403" y="503" on="0"/>
        <pt x="373" y="576" on="1"/>
        <pt x="345" y="507" on="0"/>
      </contour>
      <contour>
        <pt x="371" y="794" on="1"/>
        <pt x="412" y="896" on="0"/>
        <pt x="457" y="945" on="1"/>
        <pt x="462" y="946" on="0"/>
        <pt x="470" y="946" on="1"/>
        <pt x="512" y="946" on="0"/>
        <pt x="535" y="921" on="1"/>
        <pt x="494" y="851" on="0"/>
        <pt x="401" y="794" on="1"/>
        <pt x="395" y="791" on="0"/>
        <pt x="386" y="791" on="1"/>
        <pt x="374" y="791" on="0"/>
      </contour>
    </TTGlyph>
    <TTGlyph name="Acircumflex" xMin="5" yMin="0" xMax="742" yMax="908">
      <contour>
        <pt x="5" y="69" on="1"/>
        <pt x="5" y="113" on="0"/>
        <pt x="23" y="144" on="0"/>
        <pt x="52" y="144" on="1"/>
        <pt x="83" y="144" on="0"/>
        <pt x="83" y="136" on="1"/>
        <pt x="90" y="178" on="0"/>
        <pt x="289" y="693" on="0"/>
        <pt x="300" y="695" on="1"/>
        <pt x="332" y="700" on="0"/>
        <pt x="378" y="700" on="1"/>
        <pt x="402" y="700" on="0"/>
        <pt x="447" y="695" on="1"/>
        <pt x="458" y="690" on="0"/>
        <pt x="657" y="177" on="0"/>
        <pt x="664" y="136" on="1"/>
        <pt x="664" y="144" on="0"/>
        <pt x="695" y="144" on="1"/>
        <pt x="724" y="144" on="0"/>
        <pt x="742" y="113" on="0"/>
        <pt x="742" y="69" on="1"/>
        <pt x="742" y="18" on="0"/>
        <pt x="731" y="12" on="1"/>
        <pt x="718" y="0" on="0"/>
        <pt x="575" y="0" on="1"/>
        <pt x="472" y="0" on="0"/>
        <pt x="472" y="11" on="1"/>
        <pt x="450" y="24" on="0"/>
        <pt x="450" y="100" on="1"/>
        <pt x="450" y="111" on="0"/>
        <pt x="452" y="123" on="0"/>
        <pt x="466" y="135" on="0"/>
        <pt x="479" y="135" on="1"/>
        <pt x="508" y="135" on="0"/>
        <pt x="508" y="131" on="1"/>
        <pt x="512" y="131" on="0"/>
        <pt x="512" y="141" on="1"/>
        <pt x="512" y="166" on="0"/>
        <pt x="485" y="255" on="1"/>
        <pt x="444" y="251" on="0"/>
        <pt x="376" y="251" on="1"/>
        <pt x="303" y="251" on="0"/>
        <pt x="262" y="255" on="1"/>
        <pt x="235" y="165" on="0"/>
        <pt x="235" y="140" on="1"/>
        <pt x="235" y="132" on="0"/>
        <pt x="239" y="131" on="1"/>
        <pt x="245" y="135" on="0"/>
        <pt x="265" y="135" on="1"/>
        <pt x="280" y="135" on="0"/>
        <pt x="295" y="121" on="0"/>
        <pt x="297" y="107" on="0"/>
        <pt x="297" y="91" on="1"/>
        <pt x="297" y="25" on="0"/>
        <pt x="275" y="11" on="1"/>
        <pt x="275" y="0" on="0"/>
        <pt x="172" y="0" on="1"/>
        <pt x="29" y="0" on="0"/>
        <pt x="16" y="12" on="1"/>
        <pt x="5" y="18" on="0"/>
      </contour>
      <contour>
        <pt x="202" y="753" on="1"/>
        <pt x="227" y="795" on="0"/>
        <pt x="337" y="908" on="0"/>
        <pt x="407" y="908" on="0"/>
        <pt x="520" y="797" on="0"/>
        <pt x="544" y="753" on="1"/>
        <pt x="535" y="749" on="0"/>
        <pt x="519" y="749" on="0"/>
        <pt x="508" y="753" on="1"/>
        <pt x="476" y="770" on="0"/>
        <pt x="387" y="833" on="0"/>
        <pt x="373" y="854" on="1"/>
        <pt x="356" y="833" on="0"/>
        <pt x="265" y="765" on="0"/>
        <pt x="238" y="753" on="1"/>
        <pt x="226" y="749" on="0"/>
        <pt x="222" y="749" on="1"/>
        <pt x="214" y="749" on="0"/>
      </contour>
      <contour>
        <pt x="298" y="371" on="1"/>
        <pt x="336" y="374" on="0"/>
        <pt x="371" y="374" on="1"/>
        <pt x="412" y="374" on="0"/>
        <pt x="448" y="370" on="1"/>
        <pt x="403" y="503" on="0"/>
        <pt x="373" y="576" on="1"/>
        <pt x="345" y="507" on="0"/>
      </contour>
    </TTGlyph>
    <TTGlyph name="Adieresis" xMin="5" yMin="0" xMax="742" yMax="909">
      <contour>
        <pt x="5" y="69" on="1"/>
        <pt x="5" y="113" on="0"/>
        <pt x="23" y="144" on="0"/>
        <pt x="52" y="144" on="1"/>
        <pt x="83" y="144" on="0"/>
        <pt x="83" y="136" on="1"/>
        <pt x="90" y="178" on="0"/>
        <pt x="289" y="693" on="0"/>
        <pt x="300" y="695" on="1"/>
        <pt x="332" y="700" on="0"/>
        <pt x="378" y="700" on="1"/>
        <pt x="402" y="700" on="0"/>
        <pt x="447" y="695" on="1"/>
        <pt x="458" y="690" on="0"/>
        <pt x="657" y="177" on="0"/>
        <pt x="664" y="136" on="1"/>
        <pt x="664" y="144" on="0"/>
        <pt x="695" y="144" on="1"/>
        <pt x="724" y="144" on="0"/>
        <pt x="742" y="113" on="0"/>
        <pt x="742" y="69" on="1"/>
        <pt x="742" y="18" on="0"/>
        <pt x="731" y="12" on="1"/>
        <pt x="718" y="0" on="0"/>
        <pt x="575" y="0" on="1"/>
        <pt x="472" y="0" on="0"/>
        <pt x="472" y="11" on="1"/>
        <pt x="450" y="24" on="0"/>
        <pt x="450" y="100" on="1"/>
        <pt x="450" y="111" on="0"/>
        <pt x="452" y="123" on="0"/>
        <pt x="466" y="135" on="0"/>
        <pt x="479" y="135" on="1"/>
        <pt x="508" y="135" on="0"/>
        <pt x="508" y="131" on="1"/>
        <pt x="512" y="131" on="0"/>
        <pt x="512" y="141" on="1"/>
        <pt x="512" y="166" on="0"/>
        <pt x="485" y="255" on="1"/>
        <pt x="444" y="251" on="0"/>
        <pt x="376" y="251" on="1"/>
        <pt x="303" y="251" on="0"/>
        <pt x="262" y="255" on="1"/>
        <pt x="235" y="165" on="0"/>
        <pt x="235" y="140" on="1"/>
        <pt x="235" y="132" on="0"/>
        <pt x="239" y="131" on="1"/>
        <pt x="245" y="135" on="0"/>
        <pt x="265" y="135" on="1"/>
        <pt x="280" y="135" on="0"/>
        <pt x="295" y="121" on="0"/>
        <pt x="297" y="107" on="0"/>
        <pt x="297" y="91" on="1"/>
        <pt x="297" y="25" on="0"/>
        <pt x="275" y="11" on="1"/>
        <pt x="275" y="0" on="0"/>
        <pt x="172" y="0" on="1"/>
        <pt x="29" y="0" on="0"/>
        <pt x="16" y="12" on="1"/>
        <pt x="5" y="18" on="0"/>
      </contour>
      <contour>
        <pt x="227" y="834" on="1"/>
        <pt x="227" y="869" on="0"/>
        <pt x="249" y="901" on="1"/>
        <pt x="277" y="909" on="0"/>
        <pt x="289" y="909" on="1"/>
        <pt x="308" y="909" on="0"/>
        <pt x="328" y="901" on="1"/>
        <pt x="349" y="869" on="0"/>
        <pt x="349" y="831" on="1"/>
        <pt x="349" y="794" on="0"/>
        <pt x="328" y="757" on="1"/>
        <pt x="312" y="749" on="0"/>
        <pt x="274" y="749" on="0"/>
        <pt x="249" y="757" on="1"/>
        <pt x="227" y="796" on="0"/>
      </contour>
      <contour>
        <pt x="298" y="371" on="1"/>
        <pt x="336" y="374" on="0"/>
        <pt x="371" y="374" on="1"/>
        <pt x="412" y="374" on="0"/>
        <pt x="448" y="370" on="1"/>
        <pt x="403" y="503" on="0"/>
        <pt x="373" y="576" on="1"/>
        <pt x="345" y="507" on="0"/>
      </contour>
      <contour>
        <pt x="397" y="834" on="1"/>
        <pt x="397" y="869" on="0"/>
        <pt x="419" y="901" on="1"/>
        <pt x="447" y="909" on="0"/>
        <pt x="459" y="909" on="1"/>
        <pt x="478" y="909" on="0"/>
        <pt x="498" y="901" on="1"/>
        <pt x="519" y="869" on="0"/>
        <pt x="519" y="831" on="1"/>
        <pt x="519" y="794" on="0"/>
        <pt x="498" y="757" on="1"/>
        <pt x="482" y="749" on="0"/>
        <pt x="444" y="749" on="0"/>
        <pt x="419" y="757" on="1"/>
        <pt x="397" y="796" on="0"/>
      </contour>
    </TTGlyph>
    <TTGlyph name="Agrave" xMin="5" yMin="0" xMax="742" yMax="946">
      <contour>
        <pt x="5" y="69" on="1"/>
        <pt x="5" y="113" on="0"/>
        <pt x="23" y="144" on="0"/>
        <pt x="52" y="144" on="1"/>
        <pt x="83" y="144" on="0"/>
        <pt x="83" y="136" on="1"/>
        <pt x="90" y="178" on="0"/>
        <pt x="289" y="693" on="0"/>
        <pt x="300" y="695" on="1"/>
        <pt x="332" y="700" on="0"/>
        <pt x="378" y="700" on="1"/>
        <pt x="402" y="700" on="0"/>
        <pt x="447" y="695" on="1"/>
        <pt x="458" y="690" on="0"/>
        <pt x="657" y="177" on="0"/>
        <pt x="664" y="136" on="1"/>
        <pt x="664" y="144" on="0"/>
        <pt x="695" y="144" on="1"/>
        <pt x="724" y="144" on="0"/>
        <pt x="742" y="113" on="0"/>
        <pt x="742" y="69" on="1"/>
        <pt x="742" y="18" on="0"/>
        <pt x="731" y="12" on="1"/>
        <pt x="718" y="0" on="0"/>
        <pt x="575" y="0" on="1"/>
        <pt x="472" y="0" on="0"/>
        <pt x="472" y="11" on="1"/>
        <pt x="450" y="24" on="0"/>
        <pt x="450" y="100" on="1"/>
        <pt x="450" y="111" on="0"/>
        <pt x="452" y="123" on="0"/>
        <pt x="466" y="135" on="0"/>
        <pt x="479" y="135" on="1"/>
        <pt x="508" y="135" on="0"/>
        <pt x="508" y="131" on="1"/>
        <pt x="512" y="131" on="0"/>
        <pt x="512" y="141" on="1"/>
        <pt x="512" y="166" on="0"/>
        <pt x="485" y="255" on="1"/>
        <pt x="444" y="251" on="0"/>
        <pt x="376" y="251" on="1"/>
        <pt x="303" y="251" on="0"/>
        <pt x="262" y="255" on="1"/>
        <pt x="235" y="165" on="0"/>
        <pt x="235" y="140" on="1"/>
        <pt x="235" y="132" on="0"/>
        <pt x="239" y="131" on="1"/>
        <pt x="245" y="135" on="0"/>
        <pt x="265" y="135" on="1"/>
        <pt x="280" y="135" on="0"/>
        <pt x="295" y="121" on="0"/>
        <pt x="297" y="107" on="0"/>
        <pt x="297" y="91" on="1"/>
        <pt x="297" y="25" on="0"/>
        <pt x="275" y="11" on="1"/>
        <pt x="275" y="0" on="0"/>
        <pt x="172" y="0" on="1"/>
        <pt x="29" y="0" on="0"/>
        <pt x="16" y="12" on="1"/>
        <pt x="5" y="18" on="0"/>
      </contour>
      <contour>
        <pt x="251" y="921" on="1"/>
        <pt x="274" y="946" on="0"/>
        <pt x="316" y="946" on="1"/>
        <pt x="324" y="946" on="0"/>
        <pt x="329" y="945" on="1"/>
        <pt x="374" y="896" on="0"/>
        <pt x="415" y="794" on="1"/>
        <pt x="412" y="791" on="0"/>
        <pt x="400" y="791" on="1"/>
        <pt x="391" y="791" on="0"/>
        <pt x="385" y="794" on="1"/>
        <pt x="292" y="851" on="0"/>
      </contour>
      <contour>
        <pt x="298" y="371" on="1"/>
        <pt x="336" y="374" on="0"/>
        <pt x="371" y="374" on="1"/>
        <pt x="412" y="374" on="0"/>
        <pt x="448" y="370" on="1"/>
        <pt x="403" y="503" on="0"/>
        <pt x="373" y="576" on="1"/>
        <pt x="345" y="507" on="0"/>
      </contour>
    </TTGlyph>
    <TTGlyph name="Aring" xMin="5" yMin="0" xMax="742" yMax="904">
      <contour>
        <pt x="5" y="69" on="1"/>
        <pt x="5" y="113" on="0"/>
        <pt x="23" y="144" on="0"/>
        <pt x="52" y="144" on="1"/>
        <pt x="80" y="144" on="0"/>
        <pt x="83" y="137" on="1"/>
        <pt x="91" y="182" on="0"/>
        <pt x="289" y="693" on="0"/>
        <pt x="300" y="695" on="1"/>
        <pt x="271" y="721" on="0"/>
        <pt x="271" y="766" on="1"/>
        <pt x="271" y="816" on="0"/>
        <pt x="348" y="904" on="0"/>
        <pt x="403" y="904" on="1"/>
        <pt x="448" y="904" on="0"/>
        <pt x="490" y="843" on="0"/>
        <pt x="490" y="796" on="1"/>
        <pt x="490" y="726" on="0"/>
        <pt x="447" y="695" on="1"/>
        <pt x="458" y="690" on="0"/>
        <pt x="657" y="177" on="0"/>
        <pt x="664" y="136" on="1"/>
        <pt x="664" y="144" on="0"/>
        <pt x="695" y="144" on="1"/>
        <pt x="724" y="144" on="0"/>
        <pt x="742" y="113" on="0"/>
        <pt x="742" y="69" on="1"/>
        <pt x="742" y="18" on="0"/>
        <pt x="731" y="12" on="1"/>
        <pt x="718" y="0" on="0"/>
        <pt x="575" y="0" on="1"/>
        <pt x="472" y="0" on="0"/>
        <pt x="472" y="11" on="1"/>
        <pt x="450" y="24" on="0"/>
        <pt x="450" y="100" on="1"/>
        <pt x="450" y="111" on="0"/>
        <pt x="452" y="123" on="0"/>
        <pt x="466" y="135" on="0"/>
        <pt x="479" y="135" on="1"/>
        <pt x="508" y="135" on="0"/>
        <pt x="508" y="131" on="1"/>
        <pt x="512" y="131" on="0"/>
        <pt x="512" y="141" on="1"/>
        <pt x="512" y="166" on="0"/>
        <pt x="485" y="255" on="1"/>
        <pt x="444" y="251" on="0"/>
        <pt x="376" y="251" on="1"/>
        <pt x="303" y="251" on="0"/>
        <pt x="262" y="255" on="1"/>
        <pt x="235" y="165" on="0"/>
        <pt x="235" y="140" on="1"/>
        <pt x="235" y="132" on="0"/>
        <pt x="239" y="131" on="1"/>
        <pt x="245" y="135" on="0"/>
        <pt x="265" y="135" on="1"/>
        <pt x="280" y="135" on="0"/>
        <pt x="295" y="121" on="0"/>
        <pt x="297" y="107" on="0"/>
        <pt x="297" y="91" on="1"/>
        <pt x="297" y="25" on="0"/>
        <pt x="275" y="11" on="1"/>
        <pt x="275" y="0" on="0"/>
        <pt x="172" y="0" on="1"/>
        <pt x="29" y="0" on="0"/>
        <pt x="16" y="12" on="1"/>
        <pt x="5" y="18" on="0"/>
      </contour>
      <contour>
        <pt x="298" y="371" on="1"/>
        <pt x="336" y="374" on="0"/>
        <pt x="371" y="374" on="1"/>
        <pt x="412" y="374" on="0"/>
        <pt x="448" y="370" on="1"/>
        <pt x="403" y="503" on="0"/>
        <pt x="373" y="576" on="1"/>
        <pt x="345" y="507" on="0"/>
      </contour>
      <contour>
        <pt x="322" y="773" on="1"/>
        <pt x="322" y="752" on="0"/>
        <pt x="349" y="721" on="0"/>
        <pt x="369" y="721" on="1"/>
        <pt x="395" y="721" on="0"/>
        <pt x="442" y="772" on="0"/>
        <pt x="442" y="803" on="1"/>
        <pt x="442" y="825" on="0"/>
        <pt x="417" y="857" on="0"/>
        <pt x="396" y="857" on="1"/>
        <pt x="367" y="857" on="0"/>
        <pt x="322" y="801" on="0"/>
      </contour>
    </TTGlyph>
    <TTGlyph name="Atilde" xMin="5" yMin="0" xMax="742" yMax="896">
      <contour>
        <pt x="5" y="69" on="1"/>
        <pt x="5" y="113" on="0"/>
        <pt x="23" y="144" on="0"/>
        <pt x="52" y="144" on="1"/>
        <pt x="83" y="144" on="0"/>
        <pt x="83" y="136" on="1"/>
        <pt x="90" y="178" on="0"/>
        <pt x="289" y="693" on="0"/>
        <pt x="300" y="695" on="1"/>
        <pt x="332" y="700" on="0"/>
        <pt x="378" y="700" on="1"/>
        <pt x="402" y="700" on="0"/>
        <pt x="447" y="695" on="1"/>
        <pt x="458" y="690" on="0"/>
        <pt x="657" y="177" on="0"/>
        <pt x="664" y="136" on="1"/>
        <pt x="664" y="144" on="0"/>
        <pt x="695" y="144" on="1"/>
        <pt x="724" y="144" on="0"/>
        <pt x="742" y="113" on="0"/>
        <pt x="742" y="69" on="1"/>
        <pt x="742" y="18" on="0"/>
        <pt x="731" y="12" on="1"/>
        <pt x="718" y="0" on="0"/>
        <pt x="575" y="0" on="1"/>
        <pt x="472" y="0" on="0"/>
        <pt x="472" y="11" on="1"/>
        <pt x="450" y="24" on="0"/>
        <pt x="450" y="100" on="1"/>
        <pt x="450" y="111" on="0"/>
        <pt x="452" y="123" on="0"/>
        <pt x="466" y="135" on="0"/>
        <pt x="479" y="135" on="1"/>
        <pt x="508" y="135" on="0"/>
        <pt x="508" y="131" on="1"/>
        <pt x="512" y="131" on="0"/>
        <pt x="512" y="141" on="1"/>
        <pt x="512" y="166" on="0"/>
        <pt x="485" y="255" on="1"/>
        <pt x="444" y="251" on="0"/>
        <pt x="376" y="251" on="1"/>
        <pt x="303" y="251" on="0"/>
        <pt x="262" y="255" on="1"/>
        <pt x="235" y="165" on="0"/>
        <pt x="235" y="140" on="1"/>
        <pt x="235" y="132" on="0"/>
        <pt x="239" y="131" on="1"/>
        <pt x="245" y="135" on="0"/>
        <pt x="265" y="135" on="1"/>
        <pt x="280" y="135" on="0"/>
        <pt x="295" y="121" on="0"/>
        <pt x="297" y="107" on="0"/>
        <pt x="297" y="91" on="1"/>
        <pt x="297" y="25" on="0"/>
        <pt x="275" y="11" on="1"/>
        <pt x="275" y="0" on="0"/>
        <pt x="172" y="0" on="1"/>
        <pt x="29" y="0" on="0"/>
        <pt x="16" y="12" on="1"/>
        <pt x="5" y="18" on="0"/>
      </contour>
      <contour>
        <pt x="219" y="784" on="1"/>
        <pt x="229" y="878" on="0"/>
        <pt x="294" y="878" on="1"/>
        <pt x="326" y="878" on="0"/>
        <pt x="417" y="830" on="0"/>
        <pt x="426" y="830" on="1"/>
        <pt x="456" y="830" on="0"/>
        <pt x="470" y="892" on="1"/>
        <pt x="478" y="896" on="0"/>
        <pt x="483" y="896" on="1"/>
        <pt x="505" y="896" on="0"/>
        <pt x="528" y="859" on="1"/>
        <pt x="518" y="765" on="0"/>
        <pt x="453" y="765" on="1"/>
        <pt x="425" y="765" on="0"/>
        <pt x="333" y="813" on="0"/>
        <pt x="321" y="813" on="1"/>
        <pt x="290" y="813" on="0"/>
        <pt x="277" y="752" on="1"/>
        <pt x="270" y="747" on="0"/>
        <pt x="260" y="747" on="1"/>
        <pt x="237" y="747" on="0"/>
      </contour>
      <contour>
        <pt x="298" y="371" on="1"/>
        <pt x="336" y="374" on="0"/>
        <pt x="371" y="374" on="1"/>
        <pt x="412" y="374" on="0"/>
        <pt x="448" y="370" on="1"/>
        <pt x="403" y="503" on="0"/>
        <pt x="373" y="576" on="1"/>
        <pt x="345" y="507" on="0"/>
      </contour>
    </TTGlyph>
    <TTGlyph name="B" xMin="50" yMin="-10" xMax="618" yMax="708">
      <contour>
        <pt x="50" y="66" on="1"/>
        <pt x="50" y="86" on="0"/>
        <pt x="53" y="108" on="0"/>
        <pt x="77" y="131" on="0"/>
        <pt x="101" y="131" on="1"/>
        <pt x="104" y="131" on="0"/>
        <pt x="114" y="129" on="1"/>
        <pt x="106" y="222" on="0"/>
        <pt x="106" y="306" on="1"/>
        <pt x="106" y="458" on="0"/>
        <pt x="119" y="559" on="1"/>
        <pt x="97" y="559" on="0"/>
        <pt x="64" y="564" on="1"/>
        <pt x="58" y="572" on="0"/>
        <pt x="58" y="676" on="0"/>
        <pt x="61" y="683" on="1"/>
        <pt x="91" y="708" on="0"/>
        <pt x="182" y="708" on="1"/>
        <pt x="209" y="708" on="0"/>
        <pt x="251" y="704" on="1"/>
        <pt x="255" y="691" on="0"/>
        <pt x="255" y="664" on="1"/>
        <pt x="283" y="681" on="0"/>
        <pt x="373" y="707" on="0"/>
        <pt x="409" y="707" on="1"/>
        <pt x="486" y="707" on="0"/>
        <pt x="589" y="582" on="0"/>
        <pt x="589" y="503" on="1"/>
        <pt x="589" y="410" on="0"/>
        <pt x="516" y="344" on="1"/>
        <pt x="618" y="286" on="0"/>
        <pt x="618" y="178" on="1"/>
        <pt x="618" y="102" on="0"/>
        <pt x="513" y="-10" on="0"/>
        <pt x="438" y="-10" on="1"/>
        <pt x="287" y="-10" on="0"/>
        <pt x="242" y="31" on="1"/>
        <pt x="242" y="5" on="0"/>
        <pt x="214" y="-6" on="0"/>
        <pt x="163" y="-6" on="1"/>
        <pt x="105" y="-6" on="0"/>
        <pt x="57" y="6" on="1"/>
        <pt x="50" y="39" on="0"/>
      </contour>
      <contour>
        <pt x="249" y="119" on="1"/>
        <pt x="249" y="113" on="0"/>
        <pt x="359" y="92" on="0"/>
        <pt x="377" y="92" on="1"/>
        <pt x="409" y="92" on="0"/>
        <pt x="454" y="149" on="0"/>
        <pt x="454" y="231" on="0"/>
        <pt x="422" y="299" on="0"/>
        <pt x="388" y="299" on="1"/>
        <pt x="357" y="299" on="0"/>
        <pt x="255" y="272" on="0"/>
        <pt x="254" y="259" on="1"/>
        <pt x="253" y="249" on="0"/>
        <pt x="252" y="215" on="0"/>
        <pt x="250" y="150" on="0"/>
      </contour>
      <contour>
        <pt x="249" y="419" on="1"/>
        <pt x="249" y="413" on="0"/>
        <pt x="359" y="392" on="0"/>
        <pt x="377" y="392" on="1"/>
        <pt x="409" y="392" on="0"/>
        <pt x="454" y="449" on="0"/>
        <pt x="454" y="531" on="0"/>
        <pt x="422" y="599" on="0"/>
        <pt x="388" y="599" on="1"/>
        <pt x="357" y="599" on="0"/>
        <pt x="255" y="572" on="0"/>
        <pt x="254" y="559" on="1"/>
        <pt x="253" y="549" on="0"/>
        <pt x="252" y="515" on="0"/>
        <pt x="250" y="450" on="0"/>
      </contour>
    </TTGlyph>
    <TTGlyph name="C" xMin="41" yMin="-16" xMax="637" yMax="711">
      <contour>
        <pt x="41" y="344" on="1"/>
        <pt x="41" y="497" on="0"/>
        <pt x="198" y="707" on="0"/>
        <pt x="328" y="707" on="1"/>
        <pt x="423" y="707" on="0"/>
        <pt x="468" y="663" on="1"/>
        <pt x="470" y="693" on="0"/>
        <pt x="489" y="700" on="1"/>
        <pt x="514" y="711" on="0"/>
        <pt x="550" y="711" on="1"/>
        <pt x="597" y="711" on="0"/>
        <pt x="624" y="691" on="1"/>
        <pt x="625" y="680" on="0"/>
        <pt x="632" y="633" on="0"/>
        <pt x="636" y="595" on="0"/>
        <pt x="636" y="579" on="1"/>
        <pt x="636" y="517" on="0"/>
        <pt x="600" y="485" on="1"/>
        <pt x="579" y="462" on="0"/>
        <pt x="531" y="462" on="1"/>
        <pt x="481" y="462" on="0"/>
        <pt x="456" y="485" on="1"/>
        <pt x="455" y="487" on="0"/>
        <pt x="455" y="494" on="1"/>
        <pt x="455" y="506" on="0"/>
        <pt x="458" y="510" on="1"/>
        <pt x="441" y="547" on="0"/>
        <pt x="365" y="587" on="0"/>
        <pt x="334" y="587" on="1"/>
        <pt x="276" y="587" on="0"/>
        <pt x="177" y="438" on="0"/>
        <pt x="177" y="342" on="1"/>
        <pt x="177" y="251" on="0"/>
        <pt x="270" y="138" on="0"/>
        <pt x="331" y="138" on="1"/>
        <pt x="362" y="138" on="0"/>
        <pt x="438" y="166" on="0"/>
        <pt x="456" y="191" on="1"/>
        <pt x="453" y="209" on="0"/>
        <pt x="453" y="213" on="0"/>
        <pt x="454" y="217" on="0"/>
        <pt x="454" y="218" on="1"/>
        <pt x="491" y="235" on="0"/>
        <pt x="547" y="235" on="0"/>
        <pt x="601" y="215" on="1"/>
        <pt x="637" y="183" on="0"/>
        <pt x="637" y="122" on="1"/>
        <pt x="637" y="106" on="0"/>
        <pt x="632" y="67" on="0"/>
        <pt x="625" y="21" on="0"/>
        <pt x="624" y="9" on="1"/>
        <pt x="593" y="-16" on="0"/>
        <pt x="544" y="-16" on="1"/>
        <pt x="508" y="-16" on="0"/>
        <pt x="489" y="0" on="1"/>
        <pt x="468" y="8" on="0"/>
        <pt x="468" y="39" on="1"/>
        <pt x="402" y="-6" on="0"/>
        <pt x="334" y="-6" on="1"/>
        <pt x="281" y="-6" on="0"/>
        <pt x="179" y="38" on="0"/>
        <pt x="93" y="122" on="0"/>
        <pt x="41" y="259" on="0"/>
      </contour>
    </TTGlyph>
    <TTGlyph name="Ccedilla" xMin="41" yMin="-249" xMax="637" yMax="711">
      <contour>
        <pt x="41" y="344" on="1"/>
        <pt x="41" y="497" on="0"/>
        <pt x="198" y="707" on="0"/>
        <pt x="328" y="707" on="1"/>
        <pt x="423" y="707" on="0"/>
        <pt x="468" y="663" on="1"/>
        <pt x="470" y="693" on="0"/>
        <pt x="489" y="700" on="1"/>
        <pt x="514" y="711" on="0"/>
        <pt x="550" y="711" on="1"/>
        <pt x="597" y="711" on="0"/>
        <pt x="624" y="691" on="1"/>
        <pt x="625" y="680" on="0"/>
        <pt x="632" y="633" on="0"/>
        <pt x="636" y="595" on="0"/>
        <pt x="636" y="579" on="1"/>
        <pt x="636" y="517" on="0"/>
        <pt x="600" y="485" on="1"/>
        <pt x="579" y="462" on="0"/>
        <pt x="531" y="462" on="1"/>
        <pt x="481" y="462" on="0"/>
        <pt x="456" y="485" on="1"/>
        <pt x="455" y="487" on="0"/>
        <pt x="455" y="494" on="1"/>
        <pt x="455" y="506" on="0"/>
        <pt x="458" y="510" on="1"/>
        <pt x="441" y="547" on="0"/>
        <pt x="365" y="587" on="0"/>
        <pt x="334" y="587" on="1"/>
        <pt x="276" y="587" on="0"/>
        <pt x="177" y="438" on="0"/>
        <pt x="177" y="342" on="1"/>
        <pt x="177" y="251" on="0"/>
        <pt x="270" y="138" on="0"/>
        <pt x="331" y="138" on="1"/>
        <pt x="362" y="138" on="0"/>
        <pt x="438" y="166" on="0"/>
        <pt x="456" y="191" on="1"/>
        <pt x="453" y="209" on="0"/>
        <pt x="453" y="213" on="0"/>
        <pt x="454" y="217" on="0"/>
        <pt x="454" y="218" on="1"/>
        <pt x="491" y="235" on="0"/>
        <pt x="547" y="235" on="0"/>
        <pt x="601" y="215" on="1"/>
        <pt x="637" y="183" on="0"/>
        <pt x="637" y="122" on="1"/>
        <pt x="637" y="106" on="0"/>
        <pt x="632" y="67" on="0"/>
        <pt x="625" y="21" on="0"/>
        <pt x="624" y="9" on="1"/>
        <pt x="593" y="-16" on="0"/>
        <pt x="544" y="-16" on="1"/>
        <pt x="508" y="-16" on="0"/>
        <pt x="489" y="0" on="1"/>
        <pt x="468" y="8" on="0"/>
        <pt x="468" y="39" on="1"/>
        <pt x="402" y="-6" on="0"/>
        <pt x="334" y="-6" on="1"/>
        <pt x="330" y="-6" on="0"/>
        <pt x="315" y="-5" on="0"/>
        <pt x="311" y="-5" on="1"/>
        <pt x="312" y="-11" on="0"/>
        <pt x="313" y="-31" on="0"/>
        <pt x="313" y="-44" on="0"/>
        <pt x="314" y="-44" on="1"/>
        <pt x="341" y="-21" on="0"/>
        <pt x="369" y="-21" on="1"/>
        <pt x="405" y="-21" on="0"/>
        <pt x="447" y="-86" on="0"/>
        <pt x="447" y="-130" on="1"/>
        <pt x="447" y="-178" on="0"/>
        <pt x="398" y="-249" on="0"/>
        <pt x="354" y="-249" on="1"/>
        <pt x="320" y="-249" on="0"/>
        <pt x="284" y="-225" on="1"/>
        <pt x="284" y="-246" on="0"/>
        <pt x="278" y="-248" on="1"/>
        <pt x="274" y="-248" on="0"/>
        <pt x="260" y="-249" on="0"/>
        <pt x="257" y="-249" on="1"/>
        <pt x="246" y="-249" on="0"/>
        <pt x="236" y="-246" on="1"/>
        <pt x="231" y="-224" on="0"/>
        <pt x="231" y="-207" on="1"/>
        <pt x="231" y="-182" on="0"/>
        <pt x="241" y="-166" on="1"/>
        <pt x="253" y="-163" on="0"/>
        <pt x="265" y="-163" on="1"/>
        <pt x="276" y="-163" on="0"/>
        <pt x="288" y="-166" on="1"/>
        <pt x="288" y="-174" on="1"/>
        <pt x="312" y="-198" on="0"/>
        <pt x="338" y="-198" on="1"/>
        <pt x="360" y="-198" on="0"/>
        <pt x="389" y="-163" on="0"/>
        <pt x="389" y="-135" on="1"/>
        <pt x="389" y="-111" on="0"/>
        <pt x="367" y="-75" on="0"/>
        <pt x="351" y="-75" on="1"/>
        <pt x="340" y="-75" on="0"/>
        <pt x="306" y="-107" on="0"/>
        <pt x="297" y="-107" on="1"/>
        <pt x="283" y="-107" on="0"/>
        <pt x="271" y="-102" on="1"/>
        <pt x="260" y="-86" on="0"/>
        <pt x="260" y="-53" on="1"/>
        <pt x="260" y="-24" on="0"/>
        <pt x="265" y="3" on="1"/>
        <pt x="170" y="28" on="0"/>
        <pt x="41" y="204" on="0"/>
      </contour>
    </TTGlyph>
    <TTGlyph name="D" xMin="45" yMin="-10" xMax="667" yMax="701">
      <contour>
        <pt x="45" y="614" on="1"/>
        <pt x="45" y="636" on="0"/>
        <pt x="54" y="647" on="1"/>
        <pt x="149" y="701" on="0"/>
        <pt x="264" y="701" on="1"/>
        <pt x="369" y="701" on="0"/>
        <pt x="526" y="645" on="0"/>
        <pt x="621" y="541" on="0"/>
        <pt x="667" y="406" on="0"/>
        <pt x="667" y="322" on="1"/>
        <pt x="667" y="156" on="0"/>
        <pt x="483" y="-10" on="0"/>
        <pt x="285" y="-10" on="1"/>
        <pt x="168" y="-10" on="0"/>
        <pt x="61" y="32" on="1"/>
        <pt x="51" y="42" on="0"/>
        <pt x="51" y="101" on="1"/>
        <pt x="51" y="134" on="0"/>
        <pt x="54" y="144" on="1"/>
        <pt x="57" y="159" on="0"/>
        <pt x="96" y="159" on="1"/>
        <pt x="107" y="159" on="0"/>
        <pt x="121" y="157" on="1"/>
        <pt x="111" y="227" on="0"/>
        <pt x="111" y="343" on="1"/>
        <pt x="111" y="446" on="0"/>
        <pt x="123" y="533" on="1"/>
        <pt x="112" y="530" on="0"/>
        <pt x="96" y="530" on="1"/>
        <pt x="57" y="530" on="0"/>
        <pt x="54" y="545" on="1"/>
        <pt x="45" y="583" on="0"/>
      </contour>
      <contour>
        <pt x="264" y="133" on="1"/>
        <pt x="293" y="123" on="0"/>
        <pt x="327" y="123" on="1"/>
        <pt x="410" y="123" on="0"/>
        <pt x="531" y="238" on="0"/>
        <pt x="531" y="329" on="1"/>
        <pt x="531" y="422" on="0"/>
        <pt x="411" y="570" on="0"/>
        <pt x="327" y="570" on="1"/>
        <pt x="292" y="570" on="0"/>
        <pt x="264" y="556" on="1"/>
        <pt x="273" y="466" on="0"/>
        <pt x="273" y="351" on="1"/>
        <pt x="273" y="214" on="0"/>
      </contour>
    </TTGlyph>
    <TTGlyph name="E" xMin="46" yMin="-13" xMax="654" yMax="712">
      <contour>
        <pt x="46" y="103" on="1"/>
        <pt x="46" y="119" on="0"/>
        <pt x="62" y="155" on="1"/>
        <pt x="80" y="164" on="0"/>
        <pt x="102" y="164" on="1"/>
        <pt x="112" y="164" on="0"/>
        <pt x="118" y="161" on="1"/>
        <pt x="106" y="250" on="0"/>
        <pt x="106" y="342" on="1"/>
        <pt x="106" y="477" on="0"/>
        <pt x="127" y="564" on="1"/>
        <pt x="104" y="559" on="0"/>
        <pt x="90" y="559" on="1"/>
        <pt x="72" y="559" on="0"/>
        <pt x="62" y="566" on="1"/>
        <pt x="48" y="586" on="0"/>
        <pt x="48" y="628" on="1"/>
        <pt x="48" y="654" on="0"/>
        <pt x="67" y="680" on="1"/>
        <pt x="99" y="695" on="0"/>
        <pt x="269" y="712" on="0"/>
        <pt x="348" y="712" on="1"/>
        <pt x="532" y="712" on="0"/>
        <pt x="644" y="674" on="1"/>
        <pt x="654" y="624" on="0"/>
        <pt x="654" y="597" on="1"/>
        <pt x="654" y="550" on="0"/>
        <pt x="631" y="520" on="1"/>
        <pt x="606" y="514" on="0"/>
        <pt x="588" y="514" on="1"/>
        <pt x="556" y="514" on="0"/>
        <pt x="506" y="547" on="1"/>
        <pt x="509" y="580" on="1"/>
        <pt x="490" y="593" on="0"/>
        <pt x="405" y="593" on="1"/>
        <pt x="375" y="593" on="0"/>
        <pt x="281" y="587" on="0"/>
        <pt x="280" y="584" on="1"/>
        <pt x="284" y="548" on="0"/>
        <pt x="284" y="531" on="1"/>
        <pt x="284" y="442" on="0"/>
        <pt x="271" y="409" on="1"/>
        <pt x="369" y="409" on="0"/>
        <pt x="370" y="412" on="1"/>
        <pt x="369" y="415" on="0"/>
        <pt x="369" y="421" on="1"/>
        <pt x="369" y="432" on="0"/>
        <pt x="378" y="448" on="1"/>
        <pt x="384" y="453" on="0"/>
        <pt x="411" y="453" on="1"/>
        <pt x="453" y="453" on="0"/>
        <pt x="469" y="446" on="1"/>
        <pt x="489" y="413" on="0"/>
        <pt x="489" y="351" on="1"/>
        <pt x="489" y="295" on="0"/>
        <pt x="468" y="274" on="1"/>
        <pt x="460" y="267" on="0"/>
        <pt x="382" y="267" on="0"/>
        <pt x="376" y="274" on="1"/>
        <pt x="367" y="286" on="0"/>
        <pt x="367" y="304" on="1"/>
        <pt x="266" y="299" on="1"/>
        <pt x="266" y="240" on="0"/>
        <pt x="255" y="135" on="1"/>
        <pt x="271" y="121" on="0"/>
        <pt x="369" y="106" on="0"/>
        <pt x="401" y="106" on="1"/>
        <pt x="425" y="106" on="0"/>
        <pt x="496" y="117" on="0"/>
        <pt x="509" y="124" on="1"/>
        <pt x="506" y="157" on="1"/>
        <pt x="556" y="190" on="0"/>
        <pt x="589" y="190" on="1"/>
        <pt x="607" y="190" on="0"/>
        <pt x="631" y="184" on="1"/>
        <pt x="654" y="154" on="0"/>
        <pt x="654" y="107" on="1"/>
        <pt x="654" y="80" on="0"/>
        <pt x="644" y="30" on="1"/>
        <pt x="569" y="-13" on="0"/>
        <pt x="372" y="-13" on="1"/>
        <pt x="276" y="-13" on="0"/>
        <pt x="102" y="8" on="0"/>
        <pt x="67" y="24" on="1"/>
        <pt x="55" y="39" on="0"/>
        <pt x="46" y="69" on="0"/>
      </contour>
    </TTGlyph>
    <TTGlyph name="Eacute" xMin="46" yMin="-13" xMax="654" yMax="948">
      <contour>
        <pt x="46" y="103" on="1"/>
        <pt x="46" y="119" on="0"/>
        <pt x="62" y="155" on="1"/>
        <pt x="80" y="164" on="0"/>
        <pt x="102" y="164" on="1"/>
        <pt x="112" y="164" on="0"/>
        <pt x="118" y="161" on="1"/>
        <pt x="106" y="250" on="0"/>
        <pt x="106" y="342" on="1"/>
        <pt x="106" y="477" on="0"/>
        <pt x="127" y="564" on="1"/>
        <pt x="104" y="559" on="0"/>
        <pt x="90" y="559" on="1"/>
        <pt x="72" y="559" on="0"/>
        <pt x="62" y="566" on="1"/>
        <pt x="48" y="586" on="0"/>
        <pt x="48" y="628" on="1"/>
        <pt x="48" y="654" on="0"/>
        <pt x="67" y="680" on="1"/>
        <pt x="99" y="695" on="0"/>
        <pt x="269" y="712" on="0"/>
        <pt x="348" y="712" on="1"/>
        <pt x="532" y="712" on="0"/>
        <pt x="644" y="674" on="1"/>
        <pt x="654" y="624" on="0"/>
        <pt x="654" y="597" on="1"/>
        <pt x="654" y="550" on="0"/>
        <pt x="631" y="520" on="1"/>
        <pt x="606" y="514" on="0"/>
        <pt x="588" y="514" on="1"/>
        <pt x="556" y="514" on="0"/>
        <pt x="506" y="547" on="1"/>
        <pt x="509" y="580" on="1"/>
        <pt x="490" y="593" on="0"/>
        <pt x="405" y="593" on="1"/>
        <pt x="375" y="593" on="0"/>
        <pt x="281" y="587" on="0"/>
        <pt x="280" y="584" on="1"/>
        <pt x="284" y="548" on="0"/>
        <pt x="284" y="531" on="1"/>
        <pt x="284" y="442" on="0"/>
        <pt x="271" y="409" on="1"/>
        <pt x="369" y="409" on="0"/>
        <pt x="370" y="412" on="1"/>
        <pt x="369" y="415" on="0"/>
        <pt x="369" y="421" on="1"/>
        <pt x="369" y="432" on="0"/>
        <pt x="378" y="448" on="1"/>
        <pt x="384" y="453" on="0"/>
        <pt x="411" y="453" on="1"/>
        <pt x="453" y="453" on="0"/>
        <pt x="469" y="446" on="1"/>
        <pt x="489" y="413" on="0"/>
        <pt x="489" y="351" on="1"/>
        <pt x="489" y="295" on="0"/>
        <pt x="468" y="274" on="1"/>
        <pt x="460" y="267" on="0"/>
        <pt x="382" y="267" on="0"/>
        <pt x="376" y="274" on="1"/>
        <pt x="367" y="286" on="0"/>
        <pt x="367" y="304" on="1"/>
        <pt x="266" y="299" on="1"/>
        <pt x="266" y="240" on="0"/>
        <pt x="255" y="135" on="1"/>
        <pt x="271" y="121" on="0"/>
        <pt x="369" y="106" on="0"/>
        <pt x="401" y="106" on="1"/>
        <pt x="425" y="106" on="0"/>
        <pt x="496" y="117" on="0"/>
        <pt x="509" y="124" on="1"/>
        <pt x="506" y="157" on="1"/>
        <pt x="556" y="190" on="0"/>
        <pt x="589" y="190" on="1"/>
        <pt x="607" y="190" on="0"/>
        <pt x="631" y="184" on="1"/>
        <pt x="654" y="154" on="0"/>
        <pt x="654" y="107" on="1"/>
        <pt x="654" y="80" on="0"/>
        <pt x="644" y="30" on="1"/>
        <pt x="569" y="-13" on="0"/>
        <pt x="372" y="-13" on="1"/>
        <pt x="276" y="-13" on="0"/>
        <pt x="102" y="8" on="0"/>
        <pt x="67" y="24" on="1"/>
        <pt x="55" y="39" on="0"/>
        <pt x="46" y="69" on="0"/>
      </contour>
      <contour>
        <pt x="253" y="795" on="1"/>
        <pt x="294" y="897" on="0"/>
        <pt x="339" y="946" on="1"/>
        <pt x="348" y="948" on="0"/>
        <pt x="366" y="948" on="1"/>
        <pt x="410" y="948" on="0"/>
        <pt x="447" y="922" on="1"/>
        <pt x="420" y="875" on="0"/>
        <pt x="317" y="787" on="0"/>
        <pt x="278" y="787" on="1"/>
        <pt x="264" y="787" on="0"/>
      </contour>
    </TTGlyph>
    <TTGlyph name="Ecircumflex" xMin="46" yMin="-13" xMax="654" yMax="908">
      <contour>
        <pt x="46" y="103" on="1"/>
        <pt x="46" y="119" on="0"/>
        <pt x="62" y="155" on="1"/>
        <pt x="80" y="164" on="0"/>
        <pt x="102" y="164" on="1"/>
        <pt x="112" y="164" on="0"/>
        <pt x="118" y="161" on="1"/>
        <pt x="106" y="250" on="0"/>
        <pt x="106" y="342" on="1"/>
        <pt x="106" y="477" on="0"/>
        <pt x="127" y="564" on="1"/>
        <pt x="104" y="559" on="0"/>
        <pt x="90" y="559" on="1"/>
        <pt x="72" y="559" on="0"/>
        <pt x="62" y="566" on="1"/>
        <pt x="48" y="586" on="0"/>
        <pt x="48" y="628" on="1"/>
        <pt x="48" y="654" on="0"/>
        <pt x="67" y="680" on="1"/>
        <pt x="99" y="695" on="0"/>
        <pt x="269" y="712" on="0"/>
        <pt x="348" y="712" on="1"/>
        <pt x="532" y="712" on="0"/>
        <pt x="644" y="674" on="1"/>
        <pt x="654" y="624" on="0"/>
        <pt x="654" y="597" on="1"/>
        <pt x="654" y="550" on="0"/>
        <pt x="631" y="520" on="1"/>
        <pt x="606" y="514" on="0"/>
        <pt x="588" y="514" on="1"/>
        <pt x="556" y="514" on="0"/>
        <pt x="506" y="547" on="1"/>
        <pt x="509" y="580" on="1"/>
        <pt x="490" y="593" on="0"/>
        <pt x="405" y="593" on="1"/>
        <pt x="375" y="593" on="0"/>
        <pt x="281" y="587" on="0"/>
        <pt x="280" y="584" on="1"/>
        <pt x="284" y="548" on="0"/>
        <pt x="284" y="531" on="1"/>
        <pt x="284" y="442" on="0"/>
        <pt x="271" y="409" on="1"/>
        <pt x="369" y="409" on="0"/>
        <pt x="370" y="412" on="1"/>
        <pt x="369" y="415" on="0"/>
        <pt x="369" y="421" on="1"/>
        <pt x="369" y="432" on="0"/>
        <pt x="378" y="448" on="1"/>
        <pt x="384" y="453" on="0"/>
        <pt x="411" y="453" on="1"/>
        <pt x="453" y="453" on="0"/>
        <pt x="469" y="446" on="1"/>
        <pt x="489" y="413" on="0"/>
        <pt x="489" y="351" on="1"/>
        <pt x="489" y="295" on="0"/>
        <pt x="468" y="274" on="1"/>
        <pt x="460" y="267" on="0"/>
        <pt x="382" y="267" on="0"/>
        <pt x="376" y="274" on="1"/>
        <pt x="367" y="286" on="0"/>
        <pt x="367" y="304" on="1"/>
        <pt x="266" y="299" on="1"/>
        <pt x="266" y="240" on="0"/>
        <pt x="255" y="135" on="1"/>
        <pt x="271" y="121" on="0"/>
        <pt x="369" y="106" on="0"/>
        <pt x="401" y="106" on="1"/>
        <pt x="425" y="106" on="0"/>
        <pt x="496" y="117" on="0"/>
        <pt x="509" y="124" on="1"/>
        <pt x="506" y="157" on="1"/>
        <pt x="556" y="190" on="0"/>
        <pt x="589" y="190" on="1"/>
        <pt x="607" y="190" on="0"/>
        <pt x="631" y="184" on="1"/>
        <pt x="654" y="154" on="0"/>
        <pt x="654" y="107" on="1"/>
        <pt x="654" y="80" on="0"/>
        <pt x="644" y="30" on="1"/>
        <pt x="569" y="-13" on="0"/>
        <pt x="372" y="-13" on="1"/>
        <pt x="276" y="-13" on="0"/>
        <pt x="102" y="8" on="0"/>
        <pt x="67" y="24" on="1"/>
        <pt x="55" y="39" on="0"/>
        <pt x="46" y="69" on="0"/>
      </contour>
      <contour>
        <pt x="179" y="753" on="1"/>
        <pt x="204" y="795" on="0"/>
        <pt x="314" y="908" on="0"/>
        <pt x="384" y="908" on="0"/>
        <pt x="497" y="797" on="0"/>
        <pt x="521" y="753" on="1"/>
        <pt x="512" y="749" on="0"/>
        <pt x="496" y="749" on="0"/>
        <pt x="485" y="753" on="1"/>
        <pt x="453" y="770" on="0"/>
        <pt x="364" y="833" on="0"/>
        <pt x="350" y="854" on="1"/>
        <pt x="333" y="833" on="0"/>
        <pt x="242" y="765" on="0"/>
        <pt x="215" y="753" on="1"/>
        <pt x="203" y="749" on="0"/>
        <pt x="199" y="749" on="1"/>
        <pt x="191" y="749" on="0"/>
      </contour>
    </TTGlyph>
    <TTGlyph name="Edieresis" xMin="46" yMin="-13" xMax="654" yMax="915">
      <contour>
        <pt x="46" y="103" on="1"/>
        <pt x="46" y="119" on="0"/>
        <pt x="62" y="155" on="1"/>
        <pt x="80" y="164" on="0"/>
        <pt x="102" y="164" on="1"/>
        <pt x="112" y="164" on="0"/>
        <pt x="118" y="161" on="1"/>
        <pt x="106" y="250" on="0"/>
        <pt x="106" y="342" on="1"/>
        <pt x="106" y="477" on="0"/>
        <pt x="127" y="564" on="1"/>
        <pt x="104" y="559" on="0"/>
        <pt x="90" y="559" on="1"/>
        <pt x="72" y="559" on="0"/>
        <pt x="62" y="566" on="1"/>
        <pt x="48" y="586" on="0"/>
        <pt x="48" y="628" on="1"/>
        <pt x="48" y="654" on="0"/>
        <pt x="67" y="680" on="1"/>
        <pt x="99" y="695" on="0"/>
        <pt x="269" y="712" on="0"/>
        <pt x="348" y="712" on="1"/>
        <pt x="532" y="712" on="0"/>
        <pt x="644" y="674" on="1"/>
        <pt x="654" y="624" on="0"/>
        <pt x="654" y="597" on="1"/>
        <pt x="654" y="550" on="0"/>
        <pt x="631" y="520" on="1"/>
        <pt x="606" y="514" on="0"/>
        <pt x="588" y="514" on="1"/>
        <pt x="556" y="514" on="0"/>
        <pt x="506" y="547" on="1"/>
        <pt x="509" y="580" on="1"/>
        <pt x="490" y="593" on="0"/>
        <pt x="405" y="593" on="1"/>
        <pt x="375" y="593" on="0"/>
        <pt x="281" y="587" on="0"/>
        <pt x="280" y="584" on="1"/>
        <pt x="284" y="548" on="0"/>
        <pt x="284" y="531" on="1"/>
        <pt x="284" y="442" on="0"/>
        <pt x="271" y="409" on="1"/>
        <pt x="369" y="409" on="0"/>
        <pt x="370" y="412" on="1"/>
        <pt x="369" y="415" on="0"/>
        <pt x="369" y="421" on="1"/>
        <pt x="369" y="432" on="0"/>
        <pt x="378" y="448" on="1"/>
        <pt x="384" y="453" on="0"/>
        <pt x="411" y="453" on="1"/>
        <pt x="453" y="453" on="0"/>
        <pt x="469" y="446" on="1"/>
        <pt x="489" y="413" on="0"/>
        <pt x="489" y="351" on="1"/>
        <pt x="489" y="295" on="0"/>
        <pt x="468" y="274" on="1"/>
        <pt x="460" y="267" on="0"/>
        <pt x="382" y="267" on="0"/>
        <pt x="376" y="274" on="1"/>
        <pt x="367" y="286" on="0"/>
        <pt x="367" y="304" on="1"/>
        <pt x="266" y="299" on="1"/>
        <pt x="266" y="240" on="0"/>
        <pt x="255" y="135" on="1"/>
        <pt x="271" y="121" on="0"/>
        <pt x="369" y="106" on="0"/>
        <pt x="401" y="106" on="1"/>
        <pt x="425" y="106" on="0"/>
        <pt x="496" y="117" on="0"/>
        <pt x="509" y="124" on="1"/>
        <pt x="506" y="157" on="1"/>
        <pt x="556" y="190" on="0"/>
        <pt x="589" y="190" on="1"/>
        <pt x="607" y="190" on="0"/>
        <pt x="631" y="184" on="1"/>
        <pt x="654" y="154" on="0"/>
        <pt x="654" y="107" on="1"/>
        <pt x="654" y="80" on="0"/>
        <pt x="644" y="30" on="1"/>
        <pt x="569" y="-13" on="0"/>
        <pt x="372" y="-13" on="1"/>
        <pt x="276" y="-13" on="0"/>
        <pt x="102" y="8" on="0"/>
        <pt x="67" y="24" on="1"/>
        <pt x="55" y="39" on="0"/>
        <pt x="46" y="69" on="0"/>
      </contour>
      <contour>
        <pt x="204" y="840" on="1"/>
        <pt x="204" y="875" on="0"/>
        <pt x="226" y="907" on="1"/>
        <pt x="254" y="915" on="0"/>
        <pt x="266" y="915" on="1"/>
        <pt x="285" y="915" on="0"/>
        <pt x="305" y="907" on="1"/>
        <pt x="326" y="875" on="0"/>
        <pt x="326" y="837" on="1"/>
        <pt x="326" y="800" on="0"/>
        <pt x="305" y="763" on="1"/>
        <pt x="289" y="755" on="0"/>
        <pt x="251" y="755" on="0"/>
        <pt x="226" y="763" on="1"/>
        <pt x="204" y="802" on="0"/>
      </contour>
      <contour>
        <pt x="374" y="840" on="1"/>
        <pt x="374" y="875" on="0"/>
        <pt x="396" y="907" on="1"/>
        <pt x="424" y="915" on="0"/>
        <pt x="436" y="915" on="1"/>
        <pt x="455" y="915" on="0"/>
        <pt x="475" y="907" on="1"/>
        <pt x="496" y="875" on="0"/>
        <pt x="496" y="837" on="1"/>
        <pt x="496" y="800" on="0"/>
        <pt x="475" y="763" on="1"/>
        <pt x="459" y="755" on="0"/>
        <pt x="421" y="755" on="0"/>
        <pt x="396" y="763" on="1"/>
        <pt x="374" y="802" on="0"/>
      </contour>
    </TTGlyph>
    <TTGlyph name="Egrave" xMin="46" yMin="-13" xMax="654" yMax="946">
      <contour>
        <pt x="46" y="103" on="1"/>
        <pt x="46" y="119" on="0"/>
        <pt x="62" y="155" on="1"/>
        <pt x="80" y="164" on="0"/>
        <pt x="102" y="164" on="1"/>
        <pt x="112" y="164" on="0"/>
        <pt x="118" y="161" on="1"/>
        <pt x="106" y="250" on="0"/>
        <pt x="106" y="342" on="1"/>
        <pt x="106" y="477" on="0"/>
        <pt x="127" y="564" on="1"/>
        <pt x="104" y="559" on="0"/>
        <pt x="90" y="559" on="1"/>
        <pt x="72" y="559" on="0"/>
        <pt x="62" y="566" on="1"/>
        <pt x="48" y="586" on="0"/>
        <pt x="48" y="628" on="1"/>
        <pt x="48" y="654" on="0"/>
        <pt x="67" y="680" on="1"/>
        <pt x="99" y="695" on="0"/>
        <pt x="269" y="712" on="0"/>
        <pt x="348" y="712" on="1"/>
        <pt x="532" y="712" on="0"/>
        <pt x="644" y="674" on="1"/>
        <pt x="654" y="624" on="0"/>
        <pt x="654" y="597" on="1"/>
        <pt x="654" y="550" on="0"/>
        <pt x="631" y="520" on="1"/>
        <pt x="606" y="514" on="0"/>
        <pt x="588" y="514" on="1"/>
        <pt x="556" y="514" on="0"/>
        <pt x="506" y="547" on="1"/>
        <pt x="509" y="580" on="1"/>
        <pt x="490" y="593" on="0"/>
        <pt x="405" y="593" on="1"/>
        <pt x="375" y="593" on="0"/>
        <pt x="281" y="587" on="0"/>
        <pt x="280" y="584" on="1"/>
        <pt x="284" y="548" on="0"/>
        <pt x="284" y="531" on="1"/>
        <pt x="284" y="442" on="0"/>
        <pt x="271" y="409" on="1"/>
        <pt x="369" y="409" on="0"/>
        <pt x="370" y="412" on="1"/>
        <pt x="369" y="415" on="0"/>
        <pt x="369" y="421" on="1"/>
        <pt x="369" y="432" on="0"/>
        <pt x="378" y="448" on="1"/>
        <pt x="384" y="453" on="0"/>
        <pt x="411" y="453" on="1"/>
        <pt x="453" y="453" on="0"/>
        <pt x="469" y="446" on="1"/>
        <pt x="489" y="413" on="0"/>
        <pt x="489" y="351" on="1"/>
        <pt x="489" y="295" on="0"/>
        <pt x="468" y="274" on="1"/>
        <pt x="460" y="267" on="0"/>
        <pt x="382" y="267" on="0"/>
        <pt x="376" y="274" on="1"/>
        <pt x="367" y="286" on="0"/>
        <pt x="367" y="304" on="1"/>
        <pt x="266" y="299" on="1"/>
        <pt x="266" y="240" on="0"/>
        <pt x="255" y="135" on="1"/>
        <pt x="271" y="121" on="0"/>
        <pt x="369" y="106" on="0"/>
        <pt x="401" y="106" on="1"/>
        <pt x="425" y="106" on="0"/>
        <pt x="496" y="117" on="0"/>
        <pt x="509" y="124" on="1"/>
        <pt x="506" y="157" on="1"/>
        <pt x="556" y="190" on="0"/>
        <pt x="589" y="190" on="1"/>
        <pt x="607" y="190" on="0"/>
        <pt x="631" y="184" on="1"/>
        <pt x="654" y="154" on="0"/>
        <pt x="654" y="107" on="1"/>
        <pt x="654" y="80" on="0"/>
        <pt x="644" y="30" on="1"/>
        <pt x="569" y="-13" on="0"/>
        <pt x="372" y="-13" on="1"/>
        <pt x="276" y="-13" on="0"/>
        <pt x="102" y="8" on="0"/>
        <pt x="67" y="24" on="1"/>
        <pt x="55" y="39" on="0"/>
        <pt x="46" y="69" on="0"/>
      </contour>
      <contour>
        <pt x="268" y="921" on="1"/>
        <pt x="290" y="946" on="0"/>
        <pt x="333" y="946" on="1"/>
        <pt x="341" y="946" on="0"/>
        <pt x="346" y="945" on="1"/>
        <pt x="391" y="896" on="0"/>
        <pt x="432" y="794" on="1"/>
        <pt x="429" y="791" on="0"/>
        <pt x="417" y="791" on="1"/>
        <pt x="408" y="791" on="0"/>
        <pt x="402" y="794" on="1"/>
        <pt x="309" y="851" on="0"/>
      </contour>
    </TTGlyph>
    <TTGlyph name="Eth" xMin="46" yMin="-10" xMax="668" yMax="701">
      <contour>
        <pt x="46" y="614" on="1"/>
        <pt x="46" y="636" on="0"/>
        <pt x="55" y="647" on="1"/>
        <pt x="150" y="701" on="0"/>
        <pt x="265" y="701" on="1"/>
        <pt x="370" y="701" on="0"/>
        <pt x="527" y="645" on="0"/>
        <pt x="622" y="541" on="0"/>
        <pt x="668" y="406" on="0"/>
        <pt x="668" y="322" on="1"/>
        <pt x="668" y="156" on="0"/>
        <pt x="484" y="-10" on="0"/>
        <pt x="286" y="-10" on="1"/>
        <pt x="169" y="-10" on="0"/>
        <pt x="62" y="32" on="1"/>
        <pt x="52" y="42" on="0"/>
        <pt x="52" y="101" on="1"/>
        <pt x="52" y="134" on="0"/>
        <pt x="55" y="144" on="1"/>
        <pt x="58" y="159" on="0"/>
        <pt x="97" y="159" on="1"/>
        <pt x="108" y="159" on="0"/>
        <pt x="122" y="157" on="1"/>
        <pt x="114" y="210" on="0"/>
        <pt x="112" y="312" on="1"/>
        <pt x="89" y="316" on="0"/>
        <pt x="87" y="318" on="1"/>
        <pt x="83" y="324" on="0"/>
        <pt x="83" y="343" on="1"/>
        <pt x="83" y="355" on="0"/>
        <pt x="87" y="364" on="1"/>
        <pt x="112" y="367" on="1"/>
        <pt x="114" y="460" on="0"/>
        <pt x="124" y="533" on="1"/>
        <pt x="114" y="530" on="0"/>
        <pt x="97" y="530" on="1"/>
        <pt x="58" y="530" on="0"/>
        <pt x="55" y="545" on="1"/>
        <pt x="46" y="583" on="0"/>
      </contour>
      <contour>
        <pt x="265" y="133" on="1"/>
        <pt x="294" y="123" on="0"/>
        <pt x="328" y="123" on="1"/>
        <pt x="411" y="123" on="0"/>
        <pt x="532" y="238" on="0"/>
        <pt x="532" y="329" on="1"/>
        <pt x="532" y="422" on="0"/>
        <pt x="412" y="570" on="0"/>
        <pt x="328" y="570" on="1"/>
        <pt x="293" y="570" on="0"/>
        <pt x="265" y="556" on="1"/>
        <pt x="272" y="481" on="0"/>
        <pt x="274" y="373" on="1"/>
        <pt x="304" y="370" on="0"/>
        <pt x="333" y="364" on="1"/>
        <pt x="337" y="353" on="0"/>
        <pt x="337" y="340" on="1"/>
        <pt x="337" y="325" on="0"/>
        <pt x="333" y="317" on="1"/>
        <pt x="308" y="310" on="0"/>
        <pt x="273" y="306" on="1"/>
        <pt x="271" y="197" on="0"/>
      </contour>
    </TTGlyph>
    <TTGlyph name="Euro" xMin="29" yMin="-16" xMax="695" yMax="711">
      <contour>
        <pt x="29" y="299" on="1"/>
        <pt x="29" y="304" on="0"/>
        <pt x="36" y="315" on="1"/>
        <pt x="99" y="321" on="1"/>
        <pt x="99" y="363" on="0"/>
        <pt x="102" y="396" on="1"/>
        <pt x="41" y="400" on="0"/>
        <pt x="36" y="405" on="1"/>
        <pt x="29" y="421" on="0"/>
        <pt x="29" y="425" on="1"/>
        <pt x="29" y="430" on="0"/>
        <pt x="36" y="441" on="1"/>
        <pt x="54" y="443" on="0"/>
        <pt x="110" y="447" on="1"/>
        <pt x="137" y="571" on="0"/>
        <pt x="283" y="707" on="0"/>
        <pt x="386" y="707" on="1"/>
        <pt x="481" y="707" on="0"/>
        <pt x="526" y="663" on="1"/>
        <pt x="528" y="693" on="0"/>
        <pt x="547" y="700" on="1"/>
        <pt x="572" y="711" on="0"/>
        <pt x="608" y="711" on="1"/>
        <pt x="655" y="711" on="0"/>
        <pt x="682" y="691" on="1"/>
        <pt x="683" y="680" on="0"/>
        <pt x="690" y="633" on="0"/>
        <pt x="694" y="595" on="0"/>
        <pt x="694" y="579" on="1"/>
        <pt x="694" y="517" on="0"/>
        <pt x="658" y="485" on="1"/>
        <pt x="637" y="462" on="0"/>
        <pt x="589" y="462" on="1"/>
        <pt x="539" y="462" on="0"/>
        <pt x="514" y="485" on="1"/>
        <pt x="513" y="487" on="0"/>
        <pt x="513" y="494" on="1"/>
        <pt x="513" y="506" on="0"/>
        <pt x="516" y="510" on="1"/>
        <pt x="499" y="547" on="0"/>
        <pt x="423" y="587" on="0"/>
        <pt x="392" y="587" on="1"/>
        <pt x="352" y="587" on="0"/>
        <pt x="276" y="512" on="0"/>
        <pt x="254" y="451" on="1"/>
        <pt x="344" y="449" on="0"/>
        <pt x="382" y="441" on="1"/>
        <pt x="388" y="429" on="0"/>
        <pt x="388" y="420" on="1"/>
        <pt x="388" y="414" on="0"/>
        <pt x="382" y="404" on="1"/>
        <pt x="337" y="391" on="0"/>
        <pt x="239" y="391" on="1"/>
        <pt x="235" y="367" on="0"/>
        <pt x="235" y="326" on="1"/>
        <pt x="342" y="323" on="0"/>
        <pt x="382" y="315" on="1"/>
        <pt x="388" y="303" on="0"/>
        <pt x="388" y="294" on="1"/>
        <pt x="388" y="288" on="0"/>
        <pt x="382" y="278" on="1"/>
        <pt x="347" y="267" on="0"/>
        <pt x="245" y="265" on="1"/>
        <pt x="262" y="207" on="0"/>
        <pt x="343" y="138" on="0"/>
        <pt x="389" y="138" on="1"/>
        <pt x="420" y="138" on="0"/>
        <pt x="496" y="166" on="0"/>
        <pt x="514" y="191" on="1"/>
        <pt x="511" y="209" on="0"/>
        <pt x="511" y="213" on="0"/>
        <pt x="512" y="217" on="0"/>
        <pt x="512" y="218" on="1"/>
        <pt x="549" y="235" on="0"/>
        <pt x="605" y="235" on="0"/>
        <pt x="659" y="215" on="1"/>
        <pt x="695" y="183" on="0"/>
        <pt x="695" y="122" on="1"/>
        <pt x="695" y="106" on="0"/>
        <pt x="690" y="67" on="0"/>
        <pt x="683" y="21" on="0"/>
        <pt x="682" y="9" on="1"/>
        <pt x="651" y="-16" on="0"/>
        <pt x="602" y="-16" on="1"/>
        <pt x="566" y="-16" on="0"/>
        <pt x="547" y="0" on="1"/>
        <pt x="526" y="8" on="0"/>
        <pt x="526" y="39" on="1"/>
        <pt x="460" y="-6" on="0"/>
        <pt x="392" y="-6" on="1"/>
        <pt x="288" y="-6" on="0"/>
        <pt x="121" y="149" on="0"/>
        <pt x="103" y="270" on="1"/>
        <pt x="41" y="274" on="0"/>
        <pt x="36" y="279" on="1"/>
        <pt x="29" y="295" on="0"/>
      </contour>
    </TTGlyph>
    <TTGlyph name="F" xMin="45" yMin="-14" xMax="639" yMax="710">
      <contour>
        <pt x="45" y="109" on="1"/>
        <pt x="45" y="130" on="0"/>
        <pt x="49" y="134" on="1"/>
        <pt x="77" y="138" on="0"/>
        <pt x="94" y="138" on="1"/>
        <pt x="97" y="138" on="0"/>
        <pt x="112" y="137" on="0"/>
        <pt x="116" y="137" on="1"/>
        <pt x="109" y="227" on="0"/>
        <pt x="109" y="294" on="1"/>
        <pt x="109" y="384" on="0"/>
        <pt x="122" y="564" on="1"/>
        <pt x="89" y="555" on="0"/>
        <pt x="77" y="555" on="1"/>
        <pt x="68" y="555" on="0"/>
        <pt x="65" y="557" on="1"/>
        <pt x="49" y="569" on="0"/>
        <pt x="49" y="613" on="1"/>
        <pt x="49" y="660" on="0"/>
        <pt x="62" y="680" on="1"/>
        <pt x="126" y="710" on="0"/>
        <pt x="281" y="710" on="1"/>
        <pt x="378" y="710" on="0"/>
        <pt x="588" y="688" on="0"/>
        <pt x="629" y="674" on="1"/>
        <pt x="639" y="624" on="0"/>
        <pt x="639" y="597" on="1"/>
        <pt x="639" y="550" on="0"/>
        <pt x="616" y="520" on="1"/>
        <pt x="596" y="515" on="0"/>
        <pt x="574" y="515" on="1"/>
        <pt x="517" y="515" on="0"/>
        <pt x="501" y="547" on="1"/>
        <pt x="504" y="580" on="1"/>
        <pt x="484" y="593" on="0"/>
        <pt x="400" y="593" on="1"/>
        <pt x="371" y="593" on="0"/>
        <pt x="286" y="587" on="0"/>
        <pt x="285" y="584" on="1"/>
        <pt x="271" y="535" on="0"/>
        <pt x="259" y="431" on="1"/>
        <pt x="345" y="431" on="0"/>
        <pt x="346" y="434" on="1"/>
        <pt x="346" y="459" on="0"/>
        <pt x="356" y="469" on="1"/>
        <pt x="388" y="476" on="0"/>
        <pt x="392" y="476" on="1"/>
        <pt x="421" y="476" on="0"/>
        <pt x="445" y="466" on="1"/>
        <pt x="463" y="445" on="0"/>
        <pt x="463" y="390" on="1"/>
        <pt x="463" y="359" on="0"/>
        <pt x="452" y="302" on="0"/>
        <pt x="444" y="294" on="1"/>
        <pt x="435" y="287" on="0"/>
        <pt x="387" y="287" on="1"/>
        <pt x="360" y="287" on="0"/>
        <pt x="354" y="293" on="1"/>
        <pt x="352" y="295" on="0"/>
        <pt x="347" y="302" on="0"/>
        <pt x="345" y="305" on="0"/>
        <pt x="343" y="310" on="0"/>
        <pt x="342" y="316" on="0"/>
        <pt x="342" y="321" on="1"/>
        <pt x="252" y="321" on="1"/>
        <pt x="252" y="232" on="0"/>
        <pt x="257" y="132" on="1"/>
        <pt x="266" y="135" on="0"/>
        <pt x="286" y="135" on="1"/>
        <pt x="312" y="135" on="0"/>
        <pt x="315" y="131" on="1"/>
        <pt x="325" y="118" on="0"/>
        <pt x="325" y="59" on="1"/>
        <pt x="325" y="11" on="0"/>
        <pt x="323" y="11" on="1"/>
        <pt x="291" y="-14" on="0"/>
        <pt x="199" y="-14" on="1"/>
        <pt x="97" y="-14" on="0"/>
        <pt x="58" y="6" on="1"/>
        <pt x="45" y="23" on="0"/>
      </contour>
    </TTGlyph>
    <TTGlyph name="G" xMin="42" yMin="-7" xMax="627" yMax="718">
      <contour>
        <pt x="42" y="345" on="1"/>
        <pt x="42" y="506" on="0"/>
        <pt x="196" y="710" on="0"/>
        <pt x="315" y="710" on="1"/>
        <pt x="385" y="710" on="0"/>
        <pt x="459" y="673" on="1"/>
        <pt x="462" y="673" on="0"/>
        <pt x="470" y="707" on="0"/>
        <pt x="480" y="710" on="1"/>
        <pt x="524" y="718" on="0"/>
        <pt x="552" y="718" on="1"/>
        <pt x="593" y="718" on="0"/>
        <pt x="614" y="701" on="1"/>
        <pt x="621" y="673" on="0"/>
        <pt x="621" y="638" on="1"/>
        <pt x="621" y="566" on="0"/>
        <pt x="600" y="507" on="1"/>
        <pt x="595" y="497" on="0"/>
        <pt x="534" y="497" on="1"/>
        <pt x="501" y="497" on="0"/>
        <pt x="483" y="506" on="1"/>
        <pt x="474" y="513" on="0"/>
        <pt x="474" y="525" on="1"/>
        <pt x="474" y="531" on="0"/>
        <pt x="479" y="546" on="1"/>
        <pt x="409" y="592" on="0"/>
        <pt x="349" y="592" on="1"/>
        <pt x="273" y="592" on="0"/>
        <pt x="178" y="453" on="0"/>
        <pt x="178" y="348" on="1"/>
        <pt x="178" y="234" on="0"/>
        <pt x="285" y="118" on="0"/>
        <pt x="355" y="118" on="1"/>
        <pt x="420" y="118" on="0"/>
        <pt x="476" y="171" on="1"/>
        <pt x="488" y="202" on="0"/>
        <pt x="488" y="240" on="1"/>
        <pt x="488" y="276" on="0"/>
        <pt x="476" y="306" on="1"/>
        <pt x="458" y="306" on="0"/>
        <pt x="368" y="315" on="0"/>
        <pt x="367" y="323" on="1"/>
        <pt x="360" y="337" on="0"/>
        <pt x="360" y="353" on="1"/>
        <pt x="360" y="374" on="0"/>
        <pt x="370" y="388" on="1"/>
        <pt x="391" y="419" on="0"/>
        <pt x="461" y="419" on="1"/>
        <pt x="498" y="419" on="0"/>
        <pt x="584" y="400" on="0"/>
        <pt x="602" y="385" on="1"/>
        <pt x="611" y="364" on="0"/>
        <pt x="627" y="232" on="0"/>
        <pt x="627" y="158" on="1"/>
        <pt x="627" y="70" on="0"/>
        <pt x="615" y="9" on="1"/>
        <pt x="593" y="-7" on="0"/>
        <pt x="566" y="-7" on="1"/>
        <pt x="541" y="-7" on="0"/>
        <pt x="505" y="5" on="1"/>
        <pt x="489" y="11" on="0"/>
        <pt x="489" y="59" on="1"/>
        <pt x="389" y="-6" on="0"/>
        <pt x="317" y="-6" on="1"/>
        <pt x="285" y="-6" on="0"/>
        <pt x="214" y="15" on="0"/>
        <pt x="139" y="68" on="0"/>
        <pt x="80" y="145" on="0"/>
        <pt x="42" y="269" on="0"/>
      </contour>
    </TTGlyph>
    <TTGlyph name="H" xMin="50" yMin="-1" xMax="702" yMax="699">
      <contour>
        <pt x="50" y="86" on="1"/>
        <pt x="50" y="134" on="0"/>
        <pt x="56" y="140" on="1"/>
        <pt x="68" y="147" on="0"/>
        <pt x="81" y="149" on="1"/>
        <pt x="99" y="152" on="0"/>
        <pt x="104" y="152" on="1"/>
        <pt x="92" y="252" on="0"/>
        <pt x="92" y="353" on="1"/>
        <pt x="92" y="450" on="0"/>
        <pt x="104" y="546" on="1"/>
        <pt x="99" y="546" on="0"/>
        <pt x="81" y="549" on="1"/>
        <pt x="67" y="552" on="0"/>
        <pt x="56" y="558" on="1"/>
        <pt x="50" y="564" on="0"/>
        <pt x="50" y="612" on="1"/>
        <pt x="50" y="664" on="0"/>
        <pt x="56" y="671" on="1"/>
        <pt x="93" y="699" on="0"/>
        <pt x="186" y="699" on="1"/>
        <pt x="246" y="699" on="0"/>
        <pt x="269" y="689" on="1"/>
        <pt x="275" y="679" on="0"/>
        <pt x="292" y="598" on="0"/>
        <pt x="292" y="577" on="1"/>
        <pt x="292" y="564" on="0"/>
        <pt x="289" y="560" on="1"/>
        <pt x="267" y="549" on="0"/>
        <pt x="251" y="549" on="1"/>
        <pt x="240" y="549" on="0"/>
        <pt x="234" y="550" on="1"/>
        <pt x="245" y="480" on="0"/>
        <pt x="246" y="415" on="1"/>
        <pt x="275" y="428" on="0"/>
        <pt x="359" y="428" on="1"/>
        <pt x="442" y="428" on="0"/>
        <pt x="493" y="413" on="1"/>
        <pt x="496" y="490" on="0"/>
        <pt x="504" y="546" on="1"/>
        <pt x="499" y="546" on="0"/>
        <pt x="481" y="549" on="1"/>
        <pt x="467" y="552" on="0"/>
        <pt x="456" y="558" on="1"/>
        <pt x="450" y="564" on="0"/>
        <pt x="450" y="612" on="1"/>
        <pt x="450" y="664" on="0"/>
        <pt x="456" y="671" on="1"/>
        <pt x="455" y="683" on="0"/>
        <pt x="521" y="699" on="0"/>
        <pt x="571" y="699" on="1"/>
        <pt x="636" y="699" on="0"/>
        <pt x="679" y="689" on="1"/>
        <pt x="685" y="679" on="0"/>
        <pt x="702" y="598" on="0"/>
        <pt x="702" y="577" on="1"/>
        <pt x="702" y="564" on="0"/>
        <pt x="699" y="560" on="1"/>
        <pt x="677" y="549" on="0"/>
        <pt x="651" y="549" on="1"/>
        <pt x="640" y="549" on="0"/>
        <pt x="634" y="550" on="1"/>
        <pt x="646" y="469" on="0"/>
        <pt x="646" y="374" on="1"/>
        <pt x="646" y="296" on="0"/>
        <pt x="634" y="148" on="1"/>
        <pt x="640" y="149" on="0"/>
        <pt x="651" y="149" on="1"/>
        <pt x="667" y="149" on="0"/>
        <pt x="689" y="138" on="1"/>
        <pt x="692" y="134" on="0"/>
        <pt x="692" y="121" on="1"/>
        <pt x="692" y="100" on="0"/>
        <pt x="675" y="19" on="0"/>
        <pt x="669" y="9" on="1"/>
        <pt x="651" y="0" on="0"/>
        <pt x="604" y="0" on="1"/>
        <pt x="551" y="0" on="0"/>
        <pt x="455" y="16" on="0"/>
        <pt x="456" y="27" on="1"/>
        <pt x="450" y="34" on="0"/>
        <pt x="450" y="86" on="1"/>
        <pt x="450" y="134" on="0"/>
        <pt x="456" y="140" on="1"/>
        <pt x="468" y="147" on="0"/>
        <pt x="481" y="149" on="1"/>
        <pt x="499" y="152" on="0"/>
        <pt x="504" y="152" on="1"/>
        <pt x="495" y="223" on="0"/>
        <pt x="493" y="313" on="1"/>
        <pt x="433" y="305" on="0"/>
        <pt x="361" y="305" on="1"/>
        <pt x="275" y="305" on="0"/>
        <pt x="243" y="313" on="1"/>
        <pt x="240" y="233" on="0"/>
        <pt x="234" y="148" on="1"/>
        <pt x="240" y="149" on="0"/>
        <pt x="251" y="149" on="1"/>
        <pt x="267" y="149" on="0"/>
        <pt x="289" y="138" on="1"/>
        <pt x="292" y="134" on="0"/>
        <pt x="292" y="121" on="1"/>
        <pt x="292" y="100" on="0"/>
        <pt x="276" y="19" on="0"/>
        <pt x="269" y="9" on="1"/>
        <pt x="246" y="-1" on="0"/>
        <pt x="178" y="-1" on="1"/>
        <pt x="76" y="-1" on="0"/>
        <pt x="56" y="27" on="1"/>
        <pt x="50" y="34" on="0"/>
      </contour>
    </TTGlyph>
    <TTGlyph name="I" xMin="55" yMin="4" xMax="308" yMax="698">
      <contour>
        <pt x="55" y="86" on="1"/>
        <pt x="55" y="134" on="0"/>
        <pt x="61" y="140" on="1"/>
        <pt x="70" y="145" on="0"/>
        <pt x="96" y="149" on="1"/>
        <pt x="114" y="152" on="0"/>
        <pt x="119" y="152" on="1"/>
        <pt x="107" y="252" on="0"/>
        <pt x="107" y="353" on="1"/>
        <pt x="107" y="450" on="0"/>
        <pt x="119" y="546" on="1"/>
        <pt x="114" y="546" on="0"/>
        <pt x="96" y="549" on="1"/>
        <pt x="70" y="553" on="0"/>
        <pt x="61" y="558" on="1"/>
        <pt x="55" y="564" on="0"/>
        <pt x="55" y="612" on="1"/>
        <pt x="55" y="664" on="0"/>
        <pt x="61" y="671" on="1"/>
        <pt x="60" y="683" on="0"/>
        <pt x="127" y="698" on="0"/>
        <pt x="177" y="698" on="1"/>
        <pt x="230" y="698" on="0"/>
        <pt x="284" y="689" on="1"/>
        <pt x="290" y="679" on="0"/>
        <pt x="308" y="598" on="0"/>
        <pt x="307" y="577" on="1"/>
        <pt x="307" y="564" on="0"/>
        <pt x="304" y="560" on="1"/>
        <pt x="282" y="549" on="0"/>
        <pt x="256" y="549" on="1"/>
        <pt x="245" y="549" on="0"/>
        <pt x="239" y="550" on="1"/>
        <pt x="251" y="469" on="0"/>
        <pt x="251" y="374" on="1"/>
        <pt x="251" y="296" on="0"/>
        <pt x="239" y="148" on="1"/>
        <pt x="245" y="149" on="0"/>
        <pt x="256" y="149" on="1"/>
        <pt x="282" y="149" on="0"/>
        <pt x="304" y="138" on="1"/>
        <pt x="307" y="134" on="0"/>
        <pt x="307" y="121" on="1"/>
        <pt x="307" y="100" on="0"/>
        <pt x="290" y="19" on="0"/>
        <pt x="284" y="9" on="1"/>
        <pt x="227" y="4" on="0"/>
        <pt x="180" y="4" on="1"/>
        <pt x="128" y="4" on="0"/>
        <pt x="60" y="16" on="0"/>
        <pt x="61" y="27" on="1"/>
        <pt x="55" y="34" on="0"/>
      </contour>
    </TTGlyph>
    <TTGlyph name="Iacute" xMin="55" yMin="4" xMax="338" yMax="948">
      <contour>
        <pt x="55" y="86" on="1"/>
        <pt x="55" y="134" on="0"/>
        <pt x="61" y="140" on="1"/>
        <pt x="70" y="145" on="0"/>
        <pt x="96" y="149" on="1"/>
        <pt x="114" y="152" on="0"/>
        <pt x="119" y="152" on="1"/>
        <pt x="107" y="252" on="0"/>
        <pt x="107" y="353" on="1"/>
        <pt x="107" y="450" on="0"/>
        <pt x="119" y="546" on="1"/>
        <pt x="114" y="546" on="0"/>
        <pt x="96" y="549" on="1"/>
        <pt x="70" y="553" on="0"/>
        <pt x="61" y="558" on="1"/>
        <pt x="55" y="564" on="0"/>
        <pt x="55" y="612" on="1"/>
        <pt x="55" y="664" on="0"/>
        <pt x="61" y="671" on="1"/>
        <pt x="60" y="683" on="0"/>
        <pt x="127" y="698" on="0"/>
        <pt x="177" y="698" on="1"/>
        <pt x="230" y="698" on="0"/>
        <pt x="284" y="689" on="1"/>
        <pt x="290" y="679" on="0"/>
        <pt x="307" y="598" on="0"/>
        <pt x="307" y="577" on="1"/>
        <pt x="307" y="564" on="0"/>
        <pt x="304" y="560" on="1"/>
        <pt x="282" y="549" on="0"/>
        <pt x="256" y="549" on="1"/>
        <pt x="245" y="549" on="0"/>
        <pt x="239" y="550" on="1"/>
        <pt x="251" y="469" on="0"/>
        <pt x="251" y="374" on="1"/>
        <pt x="251" y="296" on="0"/>
        <pt x="239" y="148" on="1"/>
        <pt x="245" y="149" on="0"/>
        <pt x="256" y="149" on="1"/>
        <pt x="282" y="149" on="0"/>
        <pt x="304" y="138" on="1"/>
        <pt x="307" y="134" on="0"/>
        <pt x="307" y="121" on="1"/>
        <pt x="307" y="100" on="0"/>
        <pt x="290" y="19" on="0"/>
        <pt x="284" y="9" on="1"/>
        <pt x="227" y="4" on="0"/>
        <pt x="180" y="4" on="1"/>
        <pt x="128" y="4" on="0"/>
        <pt x="60" y="16" on="0"/>
        <pt x="61" y="27" on="1"/>
        <pt x="55" y="34" on="0"/>
      </contour>
      <contour>
        <pt x="144" y="795" on="1"/>
        <pt x="185" y="897" on="0"/>
        <pt x="230" y="946" on="1"/>
        <pt x="239" y="948" on="0"/>
        <pt x="257" y="948" on="1"/>
        <pt x="301" y="948" on="0"/>
        <pt x="338" y="922" on="1"/>
        <pt x="311" y="875" on="0"/>
        <pt x="208" y="787" on="0"/>
        <pt x="169" y="787" on="1"/>
        <pt x="155" y="787" on="0"/>
      </contour>
    </TTGlyph>
    <TTGlyph name="Icircumflex" xMin="10" yMin="4" xMax="352" yMax="908">
      <contour>
        <pt x="10" y="753" on="1"/>
        <pt x="35" y="795" on="0"/>
        <pt x="145" y="908" on="0"/>
        <pt x="215" y="908" on="0"/>
        <pt x="328" y="797" on="0"/>
        <pt x="352" y="753" on="1"/>
        <pt x="343" y="749" on="0"/>
        <pt x="327" y="749" on="0"/>
        <pt x="316" y="753" on="1"/>
        <pt x="284" y="770" on="0"/>
        <pt x="195" y="833" on="0"/>
        <pt x="181" y="854" on="1"/>
        <pt x="164" y="833" on="0"/>
        <pt x="73" y="765" on="0"/>
        <pt x="46" y="753" on="1"/>
        <pt x="34" y="749" on="0"/>
        <pt x="30" y="749" on="1"/>
        <pt x="22" y="749" on="0"/>
      </contour>
      <contour>
        <pt x="55" y="86" on="1"/>
        <pt x="55" y="134" on="0"/>
        <pt x="61" y="140" on="1"/>
        <pt x="70" y="145" on="0"/>
        <pt x="96" y="149" on="1"/>
        <pt x="114" y="152" on="0"/>
        <pt x="119" y="152" on="1"/>
        <pt x="107" y="252" on="0"/>
        <pt x="107" y="353" on="1"/>
        <pt x="107" y="450" on="0"/>
        <pt x="119" y="546" on="1"/>
        <pt x="114" y="546" on="0"/>
        <pt x="96" y="549" on="1"/>
        <pt x="70" y="553" on="0"/>
        <pt x="61" y="558" on="1"/>
        <pt x="55" y="564" on="0"/>
        <pt x="55" y="612" on="1"/>
        <pt x="55" y="664" on="0"/>
        <pt x="61" y="671" on="1"/>
        <pt x="60" y="683" on="0"/>
        <pt x="127" y="698" on="0"/>
        <pt x="177" y="698" on="1"/>
        <pt x="230" y="698" on="0"/>
        <pt x="284" y="689" on="1"/>
        <pt x="290" y="679" on="0"/>
        <pt x="307" y="598" on="0"/>
        <pt x="307" y="577" on="1"/>
        <pt x="307" y="564" on="0"/>
        <pt x="304" y="560" on="1"/>
        <pt x="282" y="549" on="0"/>
        <pt x="256" y="549" on="1"/>
        <pt x="245" y="549" on="0"/>
        <pt x="239" y="550" on="1"/>
        <pt x="251" y="469" on="0"/>
        <pt x="251" y="374" on="1"/>
        <pt x="251" y="296" on="0"/>
        <pt x="239" y="148" on="1"/>
        <pt x="245" y="149" on="0"/>
        <pt x="256" y="149" on="1"/>
        <pt x="282" y="149" on="0"/>
        <pt x="304" y="138" on="1"/>
        <pt x="307" y="134" on="0"/>
        <pt x="307" y="121" on="1"/>
        <pt x="307" y="100" on="0"/>
        <pt x="290" y="19" on="0"/>
        <pt x="284" y="9" on="1"/>
        <pt x="227" y="4" on="0"/>
        <pt x="180" y="4" on="1"/>
        <pt x="128" y="4" on="0"/>
        <pt x="60" y="16" on="0"/>
        <pt x="61" y="27" on="1"/>
        <pt x="55" y="34" on="0"/>
      </contour>
    </TTGlyph>
    <TTGlyph name="Idieresis" xMin="35" yMin="4" xMax="327" yMax="915">
      <contour>
        <pt x="35" y="840" on="1"/>
        <pt x="35" y="875" on="0"/>
        <pt x="57" y="907" on="1"/>
        <pt x="85" y="915" on="0"/>
        <pt x="97" y="915" on="1"/>
        <pt x="116" y="915" on="0"/>
        <pt x="136" y="907" on="1"/>
        <pt x="157" y="875" on="0"/>
        <pt x="157" y="837" on="1"/>
        <pt x="157" y="800" on="0"/>
        <pt x="136" y="763" on="1"/>
        <pt x="120" y="755" on="0"/>
        <pt x="82" y="755" on="0"/>
        <pt x="57" y="763" on="1"/>
        <pt x="35" y="802" on="0"/>
      </contour>
      <contour>
        <pt x="55" y="86" on="1"/>
        <pt x="55" y="134" on="0"/>
        <pt x="61" y="140" on="1"/>
        <pt x="70" y="145" on="0"/>
        <pt x="96" y="149" on="1"/>
        <pt x="114" y="152" on="0"/>
        <pt x="119" y="152" on="1"/>
        <pt x="107" y="252" on="0"/>
        <pt x="107" y="353" on="1"/>
        <pt x="107" y="450" on="0"/>
        <pt x="119" y="546" on="1"/>
        <pt x="114" y="546" on="0"/>
        <pt x="96" y="549" on="1"/>
        <pt x="70" y="553" on="0"/>
        <pt x="61" y="558" on="1"/>
        <pt x="55" y="564" on="0"/>
        <pt x="55" y="612" on="1"/>
        <pt x="55" y="664" on="0"/>
        <pt x="61" y="671" on="1"/>
        <pt x="60" y="683" on="0"/>
        <pt x="127" y="698" on="0"/>
        <pt x="177" y="698" on="1"/>
        <pt x="230" y="698" on="0"/>
        <pt x="284" y="689" on="1"/>
        <pt x="290" y="679" on="0"/>
        <pt x="307" y="598" on="0"/>
        <pt x="307" y="577" on="1"/>
        <pt x="307" y="564" on="0"/>
        <pt x="304" y="560" on="1"/>
        <pt x="282" y="549" on="0"/>
        <pt x="256" y="549" on="1"/>
        <pt x="245" y="549" on="0"/>
        <pt x="239" y="550" on="1"/>
        <pt x="251" y="469" on="0"/>
        <pt x="251" y="374" on="1"/>
        <pt x="251" y="296" on="0"/>
        <pt x="239" y="148" on="1"/>
        <pt x="245" y="149" on="0"/>
        <pt x="256" y="149" on="1"/>
        <pt x="282" y="149" on="0"/>
        <pt x="304" y="138" on="1"/>
        <pt x="307" y="134" on="0"/>
        <pt x="307" y="121" on="1"/>
        <pt x="307" y="100" on="0"/>
        <pt x="290" y="19" on="0"/>
        <pt x="284" y="9" on="1"/>
        <pt x="227" y="4" on="0"/>
        <pt x="180" y="4" on="1"/>
        <pt x="128" y="4" on="0"/>
        <pt x="60" y="16" on="0"/>
        <pt x="61" y="27" on="1"/>
        <pt x="55" y="34" on="0"/>
      </contour>
      <contour>
        <pt x="205" y="840" on="1"/>
        <pt x="205" y="875" on="0"/>
        <pt x="227" y="907" on="1"/>
        <pt x="255" y="915" on="0"/>
        <pt x="267" y="915" on="1"/>
        <pt x="286" y="915" on="0"/>
        <pt x="306" y="907" on="1"/>
        <pt x="327" y="875" on="0"/>
        <pt x="327" y="837" on="1"/>
        <pt x="327" y="800" on="0"/>
        <pt x="306" y="763" on="1"/>
        <pt x="290" y="755" on="0"/>
        <pt x="252" y="755" on="0"/>
        <pt x="227" y="763" on="1"/>
        <pt x="205" y="802" on="0"/>
      </contour>
    </TTGlyph>
    <TTGlyph name="Igrave" xMin="49" yMin="4" xMax="307" yMax="946">
      <contour>
        <pt x="49" y="921" on="1"/>
        <pt x="72" y="946" on="0"/>
        <pt x="114" y="946" on="1"/>
        <pt x="122" y="946" on="0"/>
        <pt x="127" y="945" on="1"/>
        <pt x="172" y="896" on="0"/>
        <pt x="213" y="794" on="1"/>
        <pt x="210" y="791" on="0"/>
        <pt x="198" y="791" on="1"/>
        <pt x="189" y="791" on="0"/>
        <pt x="183" y="794" on="1"/>
        <pt x="90" y="851" on="0"/>
      </contour>
      <contour>
        <pt x="55" y="86" on="1"/>
        <pt x="55" y="134" on="0"/>
        <pt x="61" y="140" on="1"/>
        <pt x="70" y="145" on="0"/>
        <pt x="96" y="149" on="1"/>
        <pt x="114" y="152" on="0"/>
        <pt x="119" y="152" on="1"/>
        <pt x="107" y="252" on="0"/>
        <pt x="107" y="353" on="1"/>
        <pt x="107" y="450" on="0"/>
        <pt x="119" y="546" on="1"/>
        <pt x="114" y="546" on="0"/>
        <pt x="96" y="549" on="1"/>
        <pt x="70" y="553" on="0"/>
        <pt x="61" y="558" on="1"/>
        <pt x="55" y="564" on="0"/>
        <pt x="55" y="612" on="1"/>
        <pt x="55" y="664" on="0"/>
        <pt x="61" y="671" on="1"/>
        <pt x="60" y="683" on="0"/>
        <pt x="127" y="698" on="0"/>
        <pt x="177" y="698" on="1"/>
        <pt x="230" y="698" on="0"/>
        <pt x="284" y="689" on="1"/>
        <pt x="290" y="679" on="0"/>
        <pt x="307" y="598" on="0"/>
        <pt x="307" y="577" on="1"/>
        <pt x="307" y="564" on="0"/>
        <pt x="304" y="560" on="1"/>
        <pt x="282" y="549" on="0"/>
        <pt x="256" y="549" on="1"/>
        <pt x="245" y="549" on="0"/>
        <pt x="239" y="550" on="1"/>
        <pt x="251" y="469" on="0"/>
        <pt x="251" y="374" on="1"/>
        <pt x="251" y="296" on="0"/>
        <pt x="239" y="148" on="1"/>
        <pt x="245" y="149" on="0"/>
        <pt x="256" y="149" on="1"/>
        <pt x="282" y="149" on="0"/>
        <pt x="304" y="138" on="1"/>
        <pt x="307" y="134" on="0"/>
        <pt x="307" y="121" on="1"/>
        <pt x="307" y="100" on="0"/>
        <pt x="290" y="19" on="0"/>
        <pt x="284" y="9" on="1"/>
        <pt x="227" y="4" on="0"/>
        <pt x="180" y="4" on="1"/>
        <pt x="128" y="4" on="0"/>
        <pt x="60" y="16" on="0"/>
        <pt x="61" y="27" on="1"/>
        <pt x="55" y="34" on="0"/>
      </contour>
    </TTGlyph>
    <TTGlyph name="J" xMin="12" yMin="-11" xMax="572" yMax="699">
      <contour>
        <pt x="12" y="32" on="1"/>
        <pt x="12" y="73" on="0"/>
        <pt x="59" y="214" on="0"/>
        <pt x="72" y="222" on="1"/>
        <pt x="80" y="225" on="0"/>
        <pt x="91" y="225" on="1"/>
        <pt x="113" y="225" on="0"/>
        <pt x="186" y="211" on="0"/>
        <pt x="195" y="204" on="1"/>
        <pt x="197" y="204" on="0"/>
        <pt x="197" y="196" on="1"/>
        <pt x="190" y="145" on="1"/>
        <pt x="227" y="120" on="0"/>
        <pt x="255" y="120" on="1"/>
        <pt x="285" y="120" on="0"/>
        <pt x="328" y="172" on="0"/>
        <pt x="351" y="260" on="0"/>
        <pt x="361" y="354" on="0"/>
        <pt x="361" y="408" on="1"/>
        <pt x="361" y="511" on="0"/>
        <pt x="346" y="579" on="1"/>
        <pt x="333" y="569" on="0"/>
        <pt x="308" y="569" on="1"/>
        <pt x="281" y="569" on="0"/>
        <pt x="271" y="583" on="1"/>
        <pt x="271" y="587" on="0"/>
        <pt x="270" y="604" on="0"/>
        <pt x="270" y="611" on="1"/>
        <pt x="270" y="657" on="0"/>
        <pt x="290" y="691" on="1"/>
        <pt x="330" y="699" on="0"/>
        <pt x="414" y="699" on="1"/>
        <pt x="540" y="699" on="0"/>
        <pt x="569" y="674" on="1"/>
        <pt x="572" y="662" on="0"/>
        <pt x="572" y="629" on="1"/>
        <pt x="572" y="579" on="0"/>
        <pt x="560" y="565" on="1"/>
        <pt x="556" y="560" on="0"/>
        <pt x="537" y="560" on="1"/>
        <pt x="510" y="560" on="0"/>
        <pt x="500" y="565" on="1"/>
        <pt x="513" y="491" on="0"/>
        <pt x="513" y="411" on="1"/>
        <pt x="513" y="295" on="0"/>
        <pt x="463" y="106" on="0"/>
        <pt x="361" y="-11" on="0"/>
        <pt x="292" y="-11" on="1"/>
        <pt x="230" y="-11" on="0"/>
        <pt x="158" y="38" on="1"/>
        <pt x="150" y="10" on="0"/>
        <pt x="145" y="10" on="1"/>
        <pt x="140" y="5" on="0"/>
        <pt x="78" y="5" on="1"/>
        <pt x="19" y="5" on="0"/>
        <pt x="16" y="13" on="1"/>
        <pt x="12" y="14" on="0"/>
      </contour>
    </TTGlyph>
    <TTGlyph name="K" xMin="53" yMin="-4" xMax="727" yMax="700">
      <contour>
        <pt x="53" y="96" on="1"/>
        <pt x="53" y="133" on="0"/>
        <pt x="60" y="140" on="1"/>
        <pt x="86" y="152" on="0"/>
        <pt x="118" y="152" on="1"/>
        <pt x="106" y="252" on="0"/>
        <pt x="106" y="353" on="1"/>
        <pt x="106" y="450" on="0"/>
        <pt x="118" y="546" on="1"/>
        <pt x="71" y="551" on="0"/>
        <pt x="60" y="558" on="1"/>
        <pt x="53" y="566" on="0"/>
        <pt x="53" y="614" on="1"/>
        <pt x="53" y="661" on="0"/>
        <pt x="60" y="671" on="1"/>
        <pt x="91" y="697" on="0"/>
        <pt x="194" y="697" on="1"/>
        <pt x="267" y="697" on="0"/>
        <pt x="283" y="689" on="1"/>
        <pt x="291" y="674" on="0"/>
        <pt x="307" y="606" on="0"/>
        <pt x="307" y="582" on="1"/>
        <pt x="307" y="567" on="0"/>
        <pt x="303" y="560" on="1"/>
        <pt x="279" y="548" on="0"/>
        <pt x="263" y="548" on="1"/>
        <pt x="258" y="548" on="0"/>
        <pt x="248" y="550" on="1"/>
        <pt x="259" y="472" on="0"/>
        <pt x="260" y="426" on="1"/>
        <pt x="265" y="425" on="0"/>
        <pt x="276" y="425" on="1"/>
        <pt x="340" y="425" on="0"/>
        <pt x="489" y="500" on="0"/>
        <pt x="504" y="551" on="1"/>
        <pt x="500" y="550" on="0"/>
        <pt x="493" y="550" on="1"/>
        <pt x="479" y="550" on="0"/>
        <pt x="463" y="564" on="1"/>
        <pt x="451" y="583" on="0"/>
        <pt x="451" y="616" on="1"/>
        <pt x="451" y="657" on="0"/>
        <pt x="465" y="690" on="1"/>
        <pt x="491" y="700" on="0"/>
        <pt x="542" y="700" on="1"/>
        <pt x="639" y="700" on="0"/>
        <pt x="684" y="675" on="1"/>
        <pt x="696" y="660" on="0"/>
        <pt x="696" y="626" on="1"/>
        <pt x="696" y="590" on="0"/>
        <pt x="684" y="558" on="1"/>
        <pt x="672" y="543" on="0"/>
        <pt x="646" y="543" on="1"/>
        <pt x="636" y="543" on="0"/>
        <pt x="628" y="546" on="1"/>
        <pt x="618" y="499" on="0"/>
        <pt x="555" y="431" on="0"/>
        <pt x="495" y="390" on="1"/>
        <pt x="530" y="361" on="0"/>
        <pt x="612" y="251" on="0"/>
        <pt x="657" y="177" on="0"/>
        <pt x="672" y="148" on="1"/>
        <pt x="697" y="148" on="0"/>
        <pt x="705" y="140" on="1"/>
        <pt x="727" y="99" on="0"/>
        <pt x="727" y="50" on="1"/>
        <pt x="727" y="30" on="0"/>
        <pt x="721" y="13" on="1"/>
        <pt x="711" y="-4" on="0"/>
        <pt x="588" y="-4" on="1"/>
        <pt x="507" y="-4" on="0"/>
        <pt x="494" y="9" on="1"/>
        <pt x="472" y="38" on="0"/>
        <pt x="472" y="92" on="1"/>
        <pt x="472" y="116" on="0"/>
        <pt x="480" y="127" on="1"/>
        <pt x="487" y="140" on="0"/>
        <pt x="513" y="140" on="1"/>
        <pt x="503" y="177" on="0"/>
        <pt x="435" y="300" on="0"/>
        <pt x="392" y="332" on="1"/>
        <pt x="371" y="317" on="0"/>
        <pt x="292" y="291" on="0"/>
        <pt x="257" y="291" on="1"/>
        <pt x="248" y="148" on="1"/>
        <pt x="252" y="149" on="0"/>
        <pt x="261" y="149" on="1"/>
        <pt x="281" y="149" on="0"/>
        <pt x="303" y="138" on="1"/>
        <pt x="315" y="116" on="0"/>
        <pt x="315" y="60" on="1"/>
        <pt x="315" y="25" on="0"/>
        <pt x="308" y="12" on="1"/>
        <pt x="250" y="-4" on="0"/>
        <pt x="183" y="-4" on="1"/>
        <pt x="85" y="-4" on="0"/>
        <pt x="62" y="24" on="1"/>
        <pt x="53" y="42" on="0"/>
      </contour>
    </TTGlyph>
    <TTGlyph name="L" xMin="45" yMin="-2" xMax="630" yMax="707">
      <contour>
        <pt x="45" y="612" on="1"/>
        <pt x="45" y="676" on="0"/>
        <pt x="59" y="698" on="1"/>
        <pt x="92" y="707" on="0"/>
        <pt x="174" y="707" on="1"/>
        <pt x="320" y="707" on="0"/>
        <pt x="333" y="698" on="1"/>
        <pt x="348" y="672" on="0"/>
        <pt x="348" y="611" on="1"/>
        <pt x="348" y="586" on="0"/>
        <pt x="342" y="580" on="1"/>
        <pt x="320" y="572" on="0"/>
        <pt x="290" y="572" on="1"/>
        <pt x="271" y="572" on="0"/>
        <pt x="256" y="576" on="1"/>
        <pt x="253" y="519" on="0"/>
        <pt x="253" y="446" on="1"/>
        <pt x="253" y="252" on="0"/>
        <pt x="286" y="134" on="1"/>
        <pt x="288" y="125" on="0"/>
        <pt x="352" y="125" on="1"/>
        <pt x="446" y="125" on="0"/>
        <pt x="465" y="138" on="1"/>
        <pt x="462" y="181" on="1"/>
        <pt x="518" y="212" on="0"/>
        <pt x="569" y="212" on="1"/>
        <pt x="590" y="212" on="0"/>
        <pt x="607" y="208" on="1"/>
        <pt x="630" y="141" on="0"/>
        <pt x="630" y="99" on="1"/>
        <pt x="630" y="67" on="0"/>
        <pt x="620" y="34" on="1"/>
        <pt x="579" y="20" on="0"/>
        <pt x="378" y="-2" on="0"/>
        <pt x="282" y="-2" on="1"/>
        <pt x="127" y="-2" on="0"/>
        <pt x="63" y="28" on="1"/>
        <pt x="51" y="52" on="0"/>
        <pt x="51" y="100" on="1"/>
        <pt x="51" y="128" on="0"/>
        <pt x="61" y="130" on="1"/>
        <pt x="73" y="136" on="0"/>
        <pt x="94" y="136" on="1"/>
        <pt x="105" y="136" on="0"/>
        <pt x="123" y="134" on="1"/>
        <pt x="109" y="319" on="0"/>
        <pt x="109" y="428" on="1"/>
        <pt x="109" y="459" on="0"/>
        <pt x="119" y="577" on="1"/>
        <pt x="104" y="574" on="0"/>
        <pt x="88" y="574" on="1"/>
        <pt x="66" y="574" on="0"/>
        <pt x="50" y="580" on="1"/>
        <pt x="45" y="586" on="0"/>
      </contour>
    </TTGlyph>
    <TTGlyph name="M" xMin="50" yMin="-1" xMax="770" yMax="700">
      <contour>
        <pt x="50" y="84" on="1"/>
        <pt x="50" y="122" on="0"/>
        <pt x="65" y="140" on="1"/>
        <pt x="90" y="152" on="0"/>
        <pt x="113" y="152" on="1"/>
        <pt x="101" y="252" on="0"/>
        <pt x="101" y="353" on="1"/>
        <pt x="101" y="450" on="0"/>
        <pt x="113" y="546" on="1"/>
        <pt x="106" y="549" on="0"/>
        <pt x="73" y="553" on="0"/>
        <pt x="65" y="558" on="1"/>
        <pt x="57" y="570" on="0"/>
        <pt x="57" y="615" on="1"/>
        <pt x="57" y="659" on="0"/>
        <pt x="65" y="671" on="1"/>
        <pt x="88" y="699" on="0"/>
        <pt x="179" y="699" on="1"/>
        <pt x="266" y="699" on="0"/>
        <pt x="287" y="673" on="1"/>
        <pt x="304" y="632" on="0"/>
        <pt x="304" y="589" on="1"/>
        <pt x="304" y="570" on="0"/>
        <pt x="298" y="560" on="1"/>
        <pt x="277" y="550" on="0"/>
        <pt x="263" y="549" on="1"/>
        <pt x="277" y="534" on="0"/>
        <pt x="391" y="429" on="0"/>
        <pt x="408" y="408" on="1"/>
        <pt x="425" y="429" on="0"/>
        <pt x="538" y="535" on="0"/>
        <pt x="552" y="550" on="1"/>
        <pt x="532" y="554" on="0"/>
        <pt x="525" y="558" on="1"/>
        <pt x="517" y="570" on="0"/>
        <pt x="517" y="615" on="1"/>
        <pt x="517" y="659" on="0"/>
        <pt x="525" y="671" on="1"/>
        <pt x="547" y="700" on="0"/>
        <pt x="621" y="700" on="1"/>
        <pt x="661" y="700" on="0"/>
        <pt x="741" y="683" on="0"/>
        <pt x="758" y="671" on="1"/>
        <pt x="770" y="656" on="0"/>
        <pt x="770" y="620" on="1"/>
        <pt x="770" y="581" on="0"/>
        <pt x="758" y="560" on="1"/>
        <pt x="734" y="548" on="0"/>
        <pt x="718" y="548" on="1"/>
        <pt x="713" y="548" on="0"/>
        <pt x="703" y="550" on="1"/>
        <pt x="715" y="469" on="0"/>
        <pt x="715" y="374" on="1"/>
        <pt x="715" y="296" on="0"/>
        <pt x="703" y="148" on="1"/>
        <pt x="707" y="149" on="0"/>
        <pt x="716" y="149" on="1"/>
        <pt x="736" y="149" on="0"/>
        <pt x="758" y="138" on="1"/>
        <pt x="763" y="125" on="0"/>
        <pt x="763" y="95" on="1"/>
        <pt x="763" y="19" on="0"/>
        <pt x="738" y="9" on="1"/>
        <pt x="727" y="0" on="0"/>
        <pt x="647" y="0" on="1"/>
        <pt x="560" y="0" on="0"/>
        <pt x="535" y="27" on="1"/>
        <pt x="519" y="44" on="0"/>
        <pt x="519" y="84" on="1"/>
        <pt x="519" y="123" on="0"/>
        <pt x="535" y="140" on="1"/>
        <pt x="558" y="152" on="0"/>
        <pt x="583" y="152" on="1"/>
        <pt x="571" y="252" on="0"/>
        <pt x="571" y="411" on="1"/>
        <pt x="538" y="367" on="0"/>
        <pt x="434" y="279" on="0"/>
        <pt x="382" y="279" on="0"/>
        <pt x="277" y="366" on="0"/>
        <pt x="245" y="410" on="1"/>
        <pt x="240" y="239" on="0"/>
        <pt x="233" y="148" on="1"/>
        <pt x="237" y="149" on="0"/>
        <pt x="246" y="149" on="1"/>
        <pt x="266" y="149" on="0"/>
        <pt x="288" y="138" on="1"/>
        <pt x="305" y="115" on="0"/>
        <pt x="305" y="76" on="1"/>
        <pt x="305" y="42" on="0"/>
        <pt x="290" y="26" on="1"/>
        <pt x="266" y="-1" on="0"/>
        <pt x="193" y="-1" on="1"/>
        <pt x="150" y="-1" on="0"/>
        <pt x="70" y="17" on="0"/>
        <pt x="65" y="27" on="1"/>
        <pt x="50" y="45" on="0"/>
      </contour>
    </TTGlyph>
    <TTGlyph name="N" xMin="52" yMin="0" xMax="713" yMax="699">
      <contour>
        <pt x="52" y="91" on="1"/>
        <pt x="52" y="133" on="0"/>
        <pt x="67" y="140" on="1"/>
        <pt x="90" y="154" on="0"/>
        <pt x="99" y="154" on="1"/>
        <pt x="105" y="154" on="0"/>
        <pt x="115" y="152" on="1"/>
        <pt x="103" y="252" on="0"/>
        <pt x="103" y="353" on="1"/>
        <pt x="103" y="450" on="0"/>
        <pt x="115" y="546" on="1"/>
        <pt x="103" y="544" on="0"/>
        <pt x="96" y="544" on="1"/>
        <pt x="81" y="544" on="0"/>
        <pt x="67" y="558" on="1"/>
        <pt x="59" y="570" on="0"/>
        <pt x="59" y="615" on="1"/>
        <pt x="59" y="659" on="0"/>
        <pt x="67" y="671" on="1"/>
        <pt x="66" y="682" on="0"/>
        <pt x="153" y="698" on="0"/>
        <pt x="205" y="698" on="1"/>
        <pt x="252" y="698" on="0"/>
        <pt x="270" y="689" on="1"/>
        <pt x="299" y="674" on="0"/>
        <pt x="299" y="619" on="1"/>
        <pt x="299" y="585" on="0"/>
        <pt x="290" y="560" on="1"/>
        <pt x="271" y="547" on="0"/>
        <pt x="254" y="547" on="1"/>
        <pt x="246" y="547" on="0"/>
        <pt x="235" y="550" on="1"/>
        <pt x="279" y="517" on="0"/>
        <pt x="469" y="356" on="0"/>
        <pt x="513" y="310" on="1"/>
        <pt x="513" y="458" on="0"/>
        <pt x="525" y="546" on="1"/>
        <pt x="519" y="545" on="0"/>
        <pt x="507" y="545" on="1"/>
        <pt x="491" y="545" on="0"/>
        <pt x="477" y="558" on="1"/>
        <pt x="462" y="584" on="0"/>
        <pt x="462" y="624" on="1"/>
        <pt x="462" y="660" on="0"/>
        <pt x="477" y="671" on="1"/>
        <pt x="514" y="699" on="0"/>
        <pt x="598" y="699" on="1"/>
        <pt x="658" y="699" on="0"/>
        <pt x="680" y="689" on="1"/>
        <pt x="713" y="670" on="0"/>
        <pt x="713" y="610" on="1"/>
        <pt x="713" y="577" on="0"/>
        <pt x="700" y="560" on="1"/>
        <pt x="674" y="548" on="0"/>
        <pt x="662" y="548" on="1"/>
        <pt x="655" y="548" on="0"/>
        <pt x="645" y="550" on="1"/>
        <pt x="657" y="469" on="0"/>
        <pt x="657" y="374" on="1"/>
        <pt x="657" y="296" on="0"/>
        <pt x="645" y="148" on="1"/>
        <pt x="657" y="151" on="0"/>
        <pt x="661" y="151" on="1"/>
        <pt x="687" y="151" on="0"/>
        <pt x="700" y="138" on="1"/>
        <pt x="711" y="124" on="0"/>
        <pt x="711" y="97" on="1"/>
        <pt x="711" y="72" on="0"/>
        <pt x="693" y="19" on="0"/>
        <pt x="680" y="9" on="1"/>
        <pt x="660" y="0" on="0"/>
        <pt x="582" y="0" on="1"/>
        <pt x="500" y="0" on="0"/>
        <pt x="477" y="26" on="1"/>
        <pt x="462" y="41" on="0"/>
        <pt x="462" y="90" on="1"/>
        <pt x="462" y="130" on="0"/>
        <pt x="477" y="140" on="1"/>
        <pt x="497" y="154" on="0"/>
        <pt x="506" y="154" on="1"/>
        <pt x="512" y="154" on="0"/>
        <pt x="522" y="152" on="1"/>
        <pt x="482" y="178" on="0"/>
        <pt x="278" y="369" on="0"/>
        <pt x="246" y="394" on="1"/>
        <pt x="244" y="252" on="0"/>
        <pt x="235" y="148" on="1"/>
        <pt x="247" y="150" on="0"/>
        <pt x="256" y="150" on="1"/>
        <pt x="276" y="150" on="0"/>
        <pt x="290" y="138" on="1"/>
        <pt x="299" y="128" on="0"/>
        <pt x="299" y="72" on="0"/>
        <pt x="282" y="15" on="0"/>
        <pt x="270" y="9" on="1"/>
        <pt x="252" y="0" on="0"/>
        <pt x="205" y="0" on="1"/>
        <pt x="153" y="0" on="0"/>
        <pt x="66" y="16" on="0"/>
        <pt x="67" y="27" on="1"/>
        <pt x="52" y="42" on="0"/>
      </contour>
    </TTGlyph>
    <TTGlyph name="Ntilde" xMin="52" yMin="0" xMax="713" yMax="906">
      <contour>
        <pt x="52" y="91" on="1"/>
        <pt x="52" y="133" on="0"/>
        <pt x="67" y="140" on="1"/>
        <pt x="90" y="154" on="0"/>
        <pt x="99" y="154" on="1"/>
        <pt x="105" y="154" on="0"/>
        <pt x="115" y="152" on="1"/>
        <pt x="103" y="252" on="0"/>
        <pt x="103" y="353" on="1"/>
        <pt x="103" y="450" on="0"/>
        <pt x="115" y="546" on="1"/>
        <pt x="103" y="544" on="0"/>
        <pt x="96" y="544" on="1"/>
        <pt x="81" y="544" on="0"/>
        <pt x="67" y="558" on="1"/>
        <pt x="59" y="570" on="0"/>
        <pt x="59" y="615" on="1"/>
        <pt x="59" y="659" on="0"/>
        <pt x="67" y="671" on="1"/>
        <pt x="66" y="682" on="0"/>
        <pt x="153" y="698" on="0"/>
        <pt x="205" y="698" on="1"/>
        <pt x="252" y="698" on="0"/>
        <pt x="270" y="689" on="1"/>
        <pt x="299" y="674" on="0"/>
        <pt x="299" y="619" on="1"/>
        <pt x="299" y="585" on="0"/>
        <pt x="290" y="560" on="1"/>
        <pt x="271" y="547" on="0"/>
        <pt x="254" y="547" on="1"/>
        <pt x="246" y="547" on="0"/>
        <pt x="235" y="550" on="1"/>
        <pt x="279" y="517" on="0"/>
        <pt x="469" y="356" on="0"/>
        <pt x="513" y="310" on="1"/>
        <pt x="513" y="458" on="0"/>
        <pt x="525" y="546" on="1"/>
        <pt x="519" y="545" on="0"/>
        <pt x="507" y="545" on="1"/>
        <pt x="491" y="545" on="0"/>
        <pt x="477" y="558" on="1"/>
        <pt x="462" y="584" on="0"/>
        <pt x="462" y="624" on="1"/>
        <pt x="462" y="660" on="0"/>
        <pt x="477" y="671" on="1"/>
        <pt x="514" y="699" on="0"/>
        <pt x="598" y="699" on="1"/>
        <pt x="658" y="699" on="0"/>
        <pt x="680" y="689" on="1"/>
        <pt x="713" y="670" on="0"/>
        <pt x="713" y="610" on="1"/>
        <pt x="713" y="577" on="0"/>
        <pt x="700" y="560" on="1"/>
        <pt x="674" y="548" on="0"/>
        <pt x="662" y="548" on="1"/>
        <pt x="655" y="548" on="0"/>
        <pt x="645" y="550" on="1"/>
        <pt x="657" y="469" on="0"/>
        <pt x="657" y="374" on="1"/>
        <pt x="657" y="296" on="0"/>
        <pt x="645" y="148" on="1"/>
        <pt x="657" y="151" on="0"/>
        <pt x="661" y="151" on="1"/>
        <pt x="687" y="151" on="0"/>
        <pt x="700" y="138" on="1"/>
        <pt x="711" y="124" on="0"/>
        <pt x="711" y="97" on="1"/>
        <pt x="711" y="72" on="0"/>
        <pt x="693" y="19" on="0"/>
        <pt x="680" y="9" on="1"/>
        <pt x="660" y="0" on="0"/>
        <pt x="582" y="0" on="1"/>
        <pt x="500" y="0" on="0"/>
        <pt x="477" y="26" on="1"/>
        <pt x="462" y="41" on="0"/>
        <pt x="462" y="90" on="1"/>
        <pt x="462" y="130" on="0"/>
        <pt x="477" y="140" on="1"/>
        <pt x="497" y="154" on="0"/>
        <pt x="506" y="154" on="1"/>
        <pt x="512" y="154" on="0"/>
        <pt x="522" y="152" on="1"/>
        <pt x="482" y="178" on="0"/>
        <pt x="278" y="369" on="0"/>
        <pt x="246" y="394" on="1"/>
        <pt x="244" y="252" on="0"/>
        <pt x="235" y="148" on="1"/>
        <pt x="247" y="150" on="0"/>
        <pt x="256" y="150" on="1"/>
        <pt x="276" y="150" on="0"/>
        <pt x="290" y="138" on="1"/>
        <pt x="299" y="128" on="0"/>
        <pt x="299" y="72" on="0"/>
        <pt x="282" y="15" on="0"/>
        <pt x="270" y="9" on="1"/>
        <pt x="252" y="0" on="0"/>
        <pt x="205" y="0" on="1"/>
        <pt x="153" y="0" on="0"/>
        <pt x="66" y="16" on="0"/>
        <pt x="67" y="27" on="1"/>
        <pt x="52" y="42" on="0"/>
      </contour>
      <contour>
        <pt x="248" y="794" on="1"/>
        <pt x="258" y="888" on="0"/>
        <pt x="323" y="888" on="1"/>
        <pt x="355" y="888" on="0"/>
        <pt x="446" y="840" on="0"/>
        <pt x="455" y="840" on="1"/>
        <pt x="485" y="840" on="0"/>
        <pt x="499" y="902" on="1"/>
        <pt x="507" y="906" on="0"/>
        <pt x="512" y="906" on="1"/>
        <pt x="534" y="906" on="0"/>
        <pt x="557" y="869" on="1"/>
        <pt x="547" y="775" on="0"/>
        <pt x="482" y="775" on="1"/>
        <pt x="454" y="775" on="0"/>
        <pt x="362" y="823" on="0"/>
        <pt x="350" y="823" on="1"/>
        <pt x="319" y="823" on="0"/>
        <pt x="306" y="762" on="1"/>
        <pt x="298" y="757" on="0"/>
        <pt x="289" y="757" on="1"/>
        <pt x="266" y="757" on="0"/>
      </contour>
    </TTGlyph>
    <TTGlyph name="O" xMin="38" yMin="-10" xMax="702" yMax="702">
      <contour>
        <pt x="38" y="266" on="1"/>
        <pt x="38" y="341" on="0"/>
        <pt x="100" y="496" on="0"/>
        <pt x="205" y="622" on="0"/>
        <pt x="361" y="702" on="0"/>
        <pt x="448" y="702" on="1"/>
        <pt x="575" y="702" on="0"/>
        <pt x="702" y="542" on="0"/>
        <pt x="702" y="419" on="1"/>
        <pt x="702" y="345" on="0"/>
        <pt x="656" y="198" on="0"/>
        <pt x="569" y="70" on="0"/>
        <pt x="422" y="-10" on="0"/>
        <pt x="331" y="-10" on="1"/>
        <pt x="201" y="-10" on="0"/>
        <pt x="38" y="141" on="0"/>
      </contour>
      <contour>
        <pt x="187" y="282" on="1"/>
        <pt x="187" y="209" on="0"/>
        <pt x="265" y="122" on="0"/>
        <pt x="328" y="122" on="1"/>
        <pt x="394" y="122" on="0"/>
        <pt x="506" y="220" on="0"/>
        <pt x="564" y="354" on="0"/>
        <pt x="564" y="416" on="1"/>
        <pt x="564" y="482" on="0"/>
        <pt x="493" y="565" on="0"/>
        <pt x="425" y="565" on="1"/>
        <pt x="355" y="565" on="0"/>
        <pt x="243" y="474" on="0"/>
        <pt x="187" y="346" on="0"/>
      </contour>
    </TTGlyph>
    <TTGlyph name="OE" xMin="41" yMin="-13" xMax="883" yMax="712">
      <contour>
        <pt x="41" y="299" on="1"/>
        <pt x="41" y="365" on="0"/>
        <pt x="80" y="489" on="0"/>
        <pt x="162" y="605" on="0"/>
        <pt x="308" y="688" on="0"/>
        <pt x="405" y="701" on="1"/>
        <pt x="546" y="712" on="0"/>
        <pt x="628" y="712" on="1"/>
        <pt x="761" y="712" on="0"/>
        <pt x="873" y="674" on="1"/>
        <pt x="883" y="624" on="0"/>
        <pt x="883" y="597" on="1"/>
        <pt x="883" y="550" on="0"/>
        <pt x="860" y="520" on="1"/>
        <pt x="834" y="514" on="0"/>
        <pt x="817" y="514" on="1"/>
        <pt x="785" y="514" on="0"/>
        <pt x="735" y="547" on="1"/>
        <pt x="738" y="580" on="1"/>
        <pt x="721" y="594" on="0"/>
        <pt x="668" y="594" on="1"/>
        <pt x="619" y="594" on="0"/>
        <pt x="559" y="584" on="1"/>
        <pt x="563" y="548" on="0"/>
        <pt x="563" y="531" on="1"/>
        <pt x="563" y="442" on="0"/>
        <pt x="550" y="409" on="1"/>
        <pt x="598" y="409" on="0"/>
        <pt x="599" y="412" on="1"/>
        <pt x="598" y="415" on="0"/>
        <pt x="598" y="421" on="1"/>
        <pt x="598" y="432" on="0"/>
        <pt x="607" y="448" on="1"/>
        <pt x="613" y="453" on="0"/>
        <pt x="640" y="453" on="1"/>
        <pt x="682" y="453" on="0"/>
        <pt x="698" y="446" on="1"/>
        <pt x="718" y="413" on="0"/>
        <pt x="718" y="351" on="1"/>
        <pt x="718" y="295" on="0"/>
        <pt x="697" y="274" on="1"/>
        <pt x="689" y="267" on="0"/>
        <pt x="649" y="267" on="1"/>
        <pt x="613" y="267" on="0"/>
        <pt x="605" y="274" on="1"/>
        <pt x="596" y="282" on="0"/>
        <pt x="596" y="304" on="1"/>
        <pt x="545" y="299" on="1"/>
        <pt x="545" y="240" on="0"/>
        <pt x="534" y="135" on="1"/>
        <pt x="598" y="106" on="0"/>
        <pt x="667" y="106" on="1"/>
        <pt x="713" y="106" on="0"/>
        <pt x="738" y="124" on="1"/>
        <pt x="735" y="157" on="1"/>
        <pt x="784" y="190" on="0"/>
        <pt x="818" y="190" on="1"/>
        <pt x="836" y="190" on="0"/>
        <pt x="860" y="184" on="1"/>
        <pt x="883" y="154" on="0"/>
        <pt x="883" y="107" on="1"/>
        <pt x="883" y="80" on="0"/>
        <pt x="873" y="30" on="1"/>
        <pt x="831" y="6" on="0"/>
        <pt x="732" y="-13" on="0"/>
        <pt x="651" y="-13" on="1"/>
        <pt x="481" y="-13" on="0"/>
        <pt x="377" y="13" on="1"/>
        <pt x="356" y="4" on="0"/>
        <pt x="326" y="4" on="1"/>
        <pt x="299" y="4" on="0"/>
        <pt x="235" y="17" on="0"/>
        <pt x="152" y="58" on="0"/>
        <pt x="86" y="119" on="0"/>
        <pt x="41" y="229" on="0"/>
      </contour>
      <contour>
        <pt x="170" y="334" on="1"/>
        <pt x="170" y="253" on="0"/>
        <pt x="263" y="146" on="0"/>
        <pt x="334" y="146" on="1"/>
        <pt x="358" y="146" on="0"/>
        <pt x="382" y="153" on="1"/>
        <pt x="378" y="197" on="0"/>
        <pt x="378" y="264" on="1"/>
        <pt x="378" y="424" on="0"/>
        <pt x="406" y="564" on="1"/>
        <pt x="298" y="564" on="0"/>
        <pt x="170" y="428" on="0"/>
      </contour>
    </TTGlyph>
    <TTGlyph name="Oacute" xMin="38" yMin="-10" xMax="702" yMax="948">
      <contour>
        <pt x="38" y="266" on="1"/>
        <pt x="38" y="341" on="0"/>
        <pt x="100" y="496" on="0"/>
        <pt x="205" y="622" on="0"/>
        <pt x="361" y="702" on="0"/>
        <pt x="448" y="702" on="1"/>
        <pt x="575" y="702" on="0"/>
        <pt x="702" y="542" on="0"/>
        <pt x="702" y="419" on="1"/>
        <pt x="702" y="345" on="0"/>
        <pt x="656" y="198" on="0"/>
        <pt x="569" y="70" on="0"/>
        <pt x="422" y="-10" on="0"/>
        <pt x="331" y="-10" on="1"/>
        <pt x="201" y="-10" on="0"/>
        <pt x="38" y="141" on="0"/>
      </contour>
      <contour>
        <pt x="187" y="282" on="1"/>
        <pt x="187" y="209" on="0"/>
        <pt x="265" y="122" on="0"/>
        <pt x="328" y="122" on="1"/>
        <pt x="394" y="122" on="0"/>
        <pt x="506" y="220" on="0"/>
        <pt x="564" y="354" on="0"/>
        <pt x="564" y="416" on="1"/>
        <pt x="564" y="482" on="0"/>
        <pt x="493" y="565" on="0"/>
        <pt x="425" y="565" on="1"/>
        <pt x="355" y="565" on="0"/>
        <pt x="243" y="474" on="0"/>
        <pt x="187" y="346" on="0"/>
      </contour>
      <contour>
        <pt x="390" y="795" on="1"/>
        <pt x="431" y="897" on="0"/>
        <pt x="476" y="946" on="1"/>
        <pt x="485" y="948" on="0"/>
        <pt x="503" y="948" on="1"/>
        <pt x="547" y="948" on="0"/>
        <pt x="584" y="922" on="1"/>
        <pt x="557" y="875" on="0"/>
        <pt x="454" y="787" on="0"/>
        <pt x="415" y="787" on="1"/>
        <pt x="401" y="787" on="0"/>
      </contour>
    </TTGlyph>
    <TTGlyph name="Ocircumflex" xMin="38" yMin="-10" xMax="702" yMax="908">
      <contour>
        <pt x="38" y="266" on="1"/>
        <pt x="38" y="341" on="0"/>
        <pt x="100" y="496" on="0"/>
        <pt x="205" y="622" on="0"/>
        <pt x="361" y="702" on="0"/>
        <pt x="448" y="702" on="1"/>
        <pt x="575" y="702" on="0"/>
        <pt x="702" y="542" on="0"/>
        <pt x="702" y="419" on="1"/>
        <pt x="702" y="345" on="0"/>
        <pt x="656" y="198" on="0"/>
        <pt x="569" y="70" on="0"/>
        <pt x="422" y="-10" on="0"/>
        <pt x="331" y="-10" on="1"/>
        <pt x="201" y="-10" on="0"/>
        <pt x="38" y="141" on="0"/>
      </contour>
      <contour>
        <pt x="187" y="282" on="1"/>
        <pt x="187" y="209" on="0"/>
        <pt x="265" y="122" on="0"/>
        <pt x="328" y="122" on="1"/>
        <pt x="394" y="122" on="0"/>
        <pt x="506" y="220" on="0"/>
        <pt x="564" y="354" on="0"/>
        <pt x="564" y="416" on="1"/>
        <pt x="564" y="482" on="0"/>
        <pt x="493" y="565" on="0"/>
        <pt x="425" y="565" on="1"/>
        <pt x="355" y="565" on="0"/>
        <pt x="243" y="474" on="0"/>
        <pt x="187" y="346" on="0"/>
      </contour>
      <contour>
        <pt x="264" y="753" on="1"/>
        <pt x="289" y="795" on="0"/>
        <pt x="399" y="908" on="0"/>
        <pt x="469" y="908" on="0"/>
        <pt x="582" y="797" on="0"/>
        <pt x="606" y="753" on="1"/>
        <pt x="597" y="749" on="0"/>
        <pt x="581" y="749" on="0"/>
        <pt x="570" y="753" on="1"/>
        <pt x="538" y="770" on="0"/>
        <pt x="449" y="833" on="0"/>
        <pt x="435" y="854" on="1"/>
        <pt x="418" y="833" on="0"/>
        <pt x="327" y="765" on="0"/>
        <pt x="300" y="753" on="1"/>
        <pt x="288" y="749" on="0"/>
        <pt x="284" y="749" on="1"/>
        <pt x="276" y="749" on="0"/>
      </contour>
    </TTGlyph>
    <TTGlyph name="Odieresis" xMin="38" yMin="-10" xMax="702" yMax="915">
      <contour>
        <pt x="38" y="266" on="1"/>
        <pt x="38" y="341" on="0"/>
        <pt x="100" y="496" on="0"/>
        <pt x="205" y="622" on="0"/>
        <pt x="361" y="702" on="0"/>
        <pt x="448" y="702" on="1"/>
        <pt x="575" y="702" on="0"/>
        <pt x="702" y="542" on="0"/>
        <pt x="702" y="419" on="1"/>
        <pt x="702" y="345" on="0"/>
        <pt x="656" y="198" on="0"/>
        <pt x="569" y="70" on="0"/>
        <pt x="422" y="-10" on="0"/>
        <pt x="331" y="-10" on="1"/>
        <pt x="201" y="-10" on="0"/>
        <pt x="38" y="141" on="0"/>
      </contour>
      <contour>
        <pt x="187" y="282" on="1"/>
        <pt x="187" y="209" on="0"/>
        <pt x="265" y="122" on="0"/>
        <pt x="328" y="122" on="1"/>
        <pt x="394" y="122" on="0"/>
        <pt x="506" y="220" on="0"/>
        <pt x="564" y="354" on="0"/>
        <pt x="564" y="416" on="1"/>
        <pt x="564" y="482" on="0"/>
        <pt x="493" y="565" on="0"/>
        <pt x="425" y="565" on="1"/>
        <pt x="355" y="565" on="0"/>
        <pt x="243" y="474" on="0"/>
        <pt x="187" y="346" on="0"/>
      </contour>
      <contour>
        <pt x="279" y="840" on="1"/>
        <pt x="279" y="875" on="0"/>
        <pt x="301" y="907" on="1"/>
        <pt x="329" y="915" on="0"/>
        <pt x="341" y="915" on="1"/>
        <pt x="360" y="915" on="0"/>
        <pt x="380" y="907" on="1"/>
        <pt x="401" y="875" on="0"/>
        <pt x="401" y="837" on="1"/>
        <pt x="401" y="800" on="0"/>
        <pt x="380" y="763" on="1"/>
        <pt x="364" y="755" on="0"/>
        <pt x="326" y="755" on="0"/>
        <pt x="301" y="763" on="1"/>
        <pt x="279" y="802" on="0"/>
      </contour>
      <contour>
        <pt x="449" y="840" on="1"/>
        <pt x="449" y="875" on="0"/>
        <pt x="471" y="907" on="1"/>
        <pt x="499" y="915" on="0"/>
        <pt x="511" y="915" on="1"/>
        <pt x="530" y="915" on="0"/>
        <pt x="550" y="907" on="1"/>
        <pt x="571" y="875" on="0"/>
        <pt x="571" y="837" on="1"/>
        <pt x="571" y="800" on="0"/>
        <pt x="550" y="763" on="1"/>
        <pt x="534" y="755" on="0"/>
        <pt x="496" y="755" on="0"/>
        <pt x="471" y="763" on="1"/>
        <pt x="449" y="802" on="0"/>
      </contour>
    </TTGlyph>
    <TTGlyph name="Ograve" xMin="38" yMin="-10" xMax="702" yMax="946">
      <contour>
        <pt x="38" y="266" on="1"/>
        <pt x="38" y="341" on="0"/>
        <pt x="100" y="496" on="0"/>
        <pt x="205" y="622" on="0"/>
        <pt x="361" y="702" on="0"/>
        <pt x="448" y="702" on="1"/>
        <pt x="575" y="702" on="0"/>
        <pt x="702" y="542" on="0"/>
        <pt x="702" y="419" on="1"/>
        <pt x="702" y="345" on="0"/>
        <pt x="656" y="198" on="0"/>
        <pt x="569" y="70" on="0"/>
        <pt x="422" y="-10" on="0"/>
        <pt x="331" y="-10" on="1"/>
        <pt x="201" y="-10" on="0"/>
        <pt x="38" y="141" on="0"/>
      </contour>
      <contour>
        <pt x="187" y="282" on="1"/>
        <pt x="187" y="209" on="0"/>
        <pt x="265" y="122" on="0"/>
        <pt x="328" y="122" on="1"/>
        <pt x="394" y="122" on="0"/>
        <pt x="506" y="220" on="0"/>
        <pt x="564" y="354" on="0"/>
        <pt x="564" y="416" on="1"/>
        <pt x="564" y="482" on="0"/>
        <pt x="493" y="565" on="0"/>
        <pt x="425" y="565" on="1"/>
        <pt x="355" y="565" on="0"/>
        <pt x="243" y="474" on="0"/>
        <pt x="187" y="346" on="0"/>
      </contour>
      <contour>
        <pt x="283" y="921" on="1"/>
        <pt x="306" y="946" on="0"/>
        <pt x="348" y="946" on="1"/>
        <pt x="356" y="946" on="0"/>
        <pt x="361" y="945" on="1"/>
        <pt x="406" y="896" on="0"/>
        <pt x="447" y="794" on="1"/>
        <pt x="444" y="791" on="0"/>
        <pt x="432" y="791" on="1"/>
        <pt x="423" y="791" on="0"/>
        <pt x="417" y="794" on="1"/>
        <pt x="324" y="851" on="0"/>
      </contour>
    </TTGlyph>
    <TTGlyph name="Oslash" xMin="38" yMin="-67" xMax="702" yMax="759">
      <contour>
        <pt x="38" y="265" on="1"/>
        <pt x="38" y="367" on="0"/>
        <pt x="140" y="566" on="0"/>
        <pt x="333" y="702" on="0"/>
        <pt x="449" y="702" on="1"/>
        <pt x="495" y="702" on="0"/>
        <pt x="537" y="689" on="1"/>
        <pt x="557" y="713" on="0"/>
        <pt x="601" y="759" on="1"/>
        <pt x="610" y="758" on="0"/>
        <pt x="621" y="746" on="0"/>
        <pt x="621" y="742" on="1"/>
        <pt x="594" y="662" on="1"/>
        <pt x="648" y="625" on="0"/>
        <pt x="702" y="497" on="0"/>
        <pt x="702" y="418" on="1"/>
        <pt x="702" y="342" on="0"/>
        <pt x="653" y="192" on="0"/>
        <pt x="564" y="68" on="0"/>
        <pt x="423" y="-10" on="0"/>
        <pt x="340" y="-10" on="1"/>
        <pt x="278" y="-10" on="0"/>
        <pt x="217" y="8" on="1"/>
        <pt x="149" y="-67" on="1"/>
        <pt x="129" y="-64" on="0"/>
        <pt x="129" y="-50" on="1"/>
        <pt x="159" y="34" on="1"/>
        <pt x="38" y="106" on="0"/>
      </contour>
      <contour>
        <pt x="187" y="279" on="1"/>
        <pt x="187" y="215" on="0"/>
        <pt x="217" y="175" on="1"/>
        <pt x="312" y="389" on="0"/>
        <pt x="437" y="564" on="1"/>
        <pt x="434" y="564" on="0"/>
        <pt x="421" y="565" on="0"/>
        <pt x="416" y="565" on="1"/>
        <pt x="322" y="565" on="0"/>
        <pt x="187" y="381" on="0"/>
      </contour>
      <contour>
        <pt x="309" y="123" on="1"/>
        <pt x="318" y="122" on="0"/>
        <pt x="337" y="122" on="1"/>
        <pt x="424" y="122" on="0"/>
        <pt x="564" y="316" on="0"/>
        <pt x="564" y="418" on="1"/>
        <pt x="564" y="477" on="0"/>
        <pt x="536" y="515" on="1"/>
        <pt x="444" y="306" on="0"/>
      </contour>
    </TTGlyph>
    <TTGlyph name="Otilde" xMin="38" yMin="-10" xMax="702" yMax="906">
      <contour>
        <pt x="38" y="266" on="1"/>
        <pt x="38" y="341" on="0"/>
        <pt x="100" y="496" on="0"/>
        <pt x="205" y="622" on="0"/>
        <pt x="361" y="702" on="0"/>
        <pt x="448" y="702" on="1"/>
        <pt x="575" y="702" on="0"/>
        <pt x="702" y="542" on="0"/>
        <pt x="702" y="419" on="1"/>
        <pt x="702" y="345" on="0"/>
        <pt x="656" y="198" on="0"/>
        <pt x="569" y="70" on="0"/>
        <pt x="422" y="-10" on="0"/>
        <pt x="331" y="-10" on="1"/>
        <pt x="201" y="-10" on="0"/>
        <pt x="38" y="141" on="0"/>
      </contour>
      <contour>
        <pt x="187" y="282" on="1"/>
        <pt x="187" y="209" on="0"/>
        <pt x="265" y="122" on="0"/>
        <pt x="328" y="122" on="1"/>
        <pt x="394" y="122" on="0"/>
        <pt x="506" y="220" on="0"/>
        <pt x="564" y="354" on="0"/>
        <pt x="564" y="416" on="1"/>
        <pt x="564" y="482" on="0"/>
        <pt x="493" y="565" on="0"/>
        <pt x="425" y="565" on="1"/>
        <pt x="355" y="565" on="0"/>
        <pt x="243" y="474" on="0"/>
        <pt x="187" y="346" on="0"/>
      </contour>
      <contour>
        <pt x="271" y="794" on="1"/>
        <pt x="281" y="888" on="0"/>
        <pt x="346" y="888" on="1"/>
        <pt x="378" y="888" on="0"/>
        <pt x="469" y="840" on="0"/>
        <pt x="478" y="840" on="1"/>
        <pt x="508" y="840" on="0"/>
        <pt x="522" y="902" on="1"/>
        <pt x="530" y="906" on="0"/>
        <pt x="535" y="906" on="1"/>
        <pt x="557" y="906" on="0"/>
        <pt x="580" y="869" on="1"/>
        <pt x="570" y="775" on="0"/>
        <pt x="505" y="775" on="1"/>
        <pt x="477" y="775" on="0"/>
        <pt x="385" y="823" on="0"/>
        <pt x="373" y="823" on="1"/>
        <pt x="342" y="823" on="0"/>
        <pt x="329" y="762" on="1"/>
        <pt x="322" y="757" on="0"/>
        <pt x="312" y="757" on="1"/>
        <pt x="289" y="757" on="0"/>
      </contour>
    </TTGlyph>
    <TTGlyph name="P" xMin="38" yMin="-1" xMax="634" yMax="712">
      <contour>
        <pt x="38" y="626" on="1"/>
        <pt x="38" y="672" on="0"/>
        <pt x="53" y="691" on="1"/>
        <pt x="113" y="712" on="0"/>
        <pt x="171" y="712" on="1"/>
        <pt x="226" y="712" on="0"/>
        <pt x="251" y="694" on="1"/>
        <pt x="256" y="675" on="0"/>
        <pt x="256" y="659" on="1"/>
        <pt x="256" y="651" on="0"/>
        <pt x="255" y="650" on="1"/>
        <pt x="274" y="656" on="0"/>
        <pt x="353" y="683" on="0"/>
        <pt x="391" y="695" on="0"/>
        <pt x="444" y="706" on="0"/>
        <pt x="464" y="706" on="1"/>
        <pt x="539" y="706" on="0"/>
        <pt x="634" y="585" on="0"/>
        <pt x="634" y="495" on="1"/>
        <pt x="634" y="388" on="0"/>
        <pt x="501" y="218" on="0"/>
        <pt x="388" y="218" on="1"/>
        <pt x="328" y="218" on="0"/>
        <pt x="279" y="248" on="1"/>
        <pt x="281" y="238" on="0"/>
        <pt x="281" y="199" on="1"/>
        <pt x="281" y="177" on="0"/>
        <pt x="275" y="129" on="1"/>
        <pt x="279" y="130" on="0"/>
        <pt x="301" y="130" on="1"/>
        <pt x="317" y="130" on="0"/>
        <pt x="352" y="120" on="0"/>
        <pt x="357" y="112" on="1"/>
        <pt x="372" y="102" on="0"/>
        <pt x="372" y="66" on="1"/>
        <pt x="372" y="35" on="0"/>
        <pt x="357" y="19" on="1"/>
        <pt x="351" y="-1" on="0"/>
        <pt x="231" y="-1" on="1"/>
        <pt x="70" y="-1" on="0"/>
        <pt x="64" y="19" on="1"/>
        <pt x="51" y="33" on="0"/>
        <pt x="51" y="63" on="1"/>
        <pt x="51" y="94" on="0"/>
        <pt x="64" y="112" on="1"/>
        <pt x="75" y="130" on="0"/>
        <pt x="112" y="130" on="1"/>
        <pt x="122" y="130" on="0"/>
        <pt x="126" y="129" on="1"/>
        <pt x="126" y="146" on="0"/>
        <pt x="124" y="238" on="0"/>
        <pt x="124" y="287" on="1"/>
        <pt x="124" y="464" on="0"/>
        <pt x="134" y="520" on="1"/>
        <pt x="131" y="519" on="0"/>
        <pt x="117" y="519" on="1"/>
        <pt x="86" y="519" on="0"/>
        <pt x="64" y="524" on="1"/>
        <pt x="38" y="556" on="0"/>
      </contour>
      <contour>
        <pt x="267" y="431" on="1"/>
        <pt x="267" y="389" on="0"/>
        <pt x="310" y="343" on="0"/>
        <pt x="343" y="343" on="1"/>
        <pt x="391" y="343" on="0"/>
        <pt x="482" y="426" on="0"/>
        <pt x="482" y="484" on="1"/>
        <pt x="482" y="524" on="0"/>
        <pt x="437" y="579" on="0"/>
        <pt x="399" y="579" on="1"/>
        <pt x="350" y="579" on="0"/>
        <pt x="267" y="491" on="0"/>
      </contour>
    </TTGlyph>
    <TTGlyph name="Q" xMin="38" yMin="-169" xMax="732" yMax="702">
      <contour>
        <pt x="38" y="272" on="1"/>
        <pt x="38" y="347" on="0"/>
        <pt x="100" y="500" on="0"/>
        <pt x="205" y="624" on="0"/>
        <pt x="361" y="702" on="0"/>
        <pt x="448" y="702" on="1"/>
        <pt x="520" y="702" on="0"/>
        <pt x="629" y="647" on="0"/>
        <pt x="690" y="553" on="0"/>
        <pt x="720" y="439" on="0"/>
        <pt x="720" y="373" on="1"/>
        <pt x="720" y="198" on="0"/>
        <pt x="614" y="83" on="1"/>
        <pt x="632" y="21" on="0"/>
        <pt x="640" y="-10" on="1"/>
        <pt x="661" y="6" on="0"/>
        <pt x="684" y="6" on="1"/>
        <pt x="696" y="6" on="0"/>
        <pt x="704" y="2" on="1"/>
        <pt x="716" y="-6" on="0"/>
        <pt x="732" y="-58" on="0"/>
        <pt x="732" y="-83" on="1"/>
        <pt x="732" y="-99" on="0"/>
        <pt x="730" y="-105" on="1"/>
        <pt x="705" y="-130" on="0"/>
        <pt x="587" y="-169" on="0"/>
        <pt x="539" y="-169" on="1"/>
        <pt x="512" y="-169" on="0"/>
        <pt x="497" y="-162" on="1"/>
        <pt x="479" y="-154" on="0"/>
        <pt x="452" y="-110" on="0"/>
        <pt x="452" y="-88" on="1"/>
        <pt x="452" y="-80" on="0"/>
        <pt x="453" y="-77" on="1"/>
        <pt x="457" y="-63" on="0"/>
        <pt x="493" y="-45" on="0"/>
        <pt x="509" y="-45" on="1"/>
        <pt x="503" y="-34" on="0"/>
        <pt x="484" y="6" on="0"/>
        <pt x="481" y="12" on="1"/>
        <pt x="450" y="-10" on="0"/>
        <pt x="357" y="-10" on="1"/>
        <pt x="198" y="-10" on="0"/>
        <pt x="38" y="151" on="0"/>
      </contour>
      <contour>
        <pt x="195" y="292" on="1"/>
        <pt x="195" y="222" on="0"/>
        <pt x="280" y="122" on="0"/>
        <pt x="349" y="122" on="1"/>
        <pt x="440" y="122" on="0"/>
        <pt x="594" y="285" on="0"/>
        <pt x="594" y="388" on="1"/>
        <pt x="594" y="462" on="0"/>
        <pt x="506" y="565" on="0"/>
        <pt x="434" y="565" on="1"/>
        <pt x="368" y="565" on="0"/>
        <pt x="255" y="477" on="0"/>
        <pt x="195" y="352" on="0"/>
      </contour>
    </TTGlyph>
    <TTGlyph name="R" xMin="39" yMin="-1" xMax="732" yMax="708">
      <contour>
        <pt x="39" y="614" on="1"/>
        <pt x="39" y="684" on="0"/>
        <pt x="62" y="700" on="1"/>
        <pt x="89" y="708" on="0"/>
        <pt x="134" y="708" on="1"/>
        <pt x="190" y="708" on="0"/>
        <pt x="235" y="694" on="1"/>
        <pt x="240" y="675" on="0"/>
        <pt x="240" y="659" on="1"/>
        <pt x="240" y="651" on="0"/>
        <pt x="239" y="650" on="1"/>
        <pt x="256" y="655" on="0"/>
        <pt x="317" y="675" on="0"/>
        <pt x="343" y="683" on="0"/>
        <pt x="386" y="696" on="0"/>
        <pt x="409" y="701" on="0"/>
        <pt x="438" y="705" on="0"/>
        <pt x="449" y="705" on="1"/>
        <pt x="493" y="705" on="0"/>
        <pt x="562" y="656" on="0"/>
        <pt x="601" y="582" on="0"/>
        <pt x="620" y="508" on="0"/>
        <pt x="620" y="477" on="1"/>
        <pt x="620" y="410" on="0"/>
        <pt x="537" y="310" on="0"/>
        <pt x="479" y="278" on="1"/>
        <pt x="548" y="230" on="0"/>
        <pt x="670" y="129" on="0"/>
        <pt x="673" y="114" on="1"/>
        <pt x="681" y="118" on="0"/>
        <pt x="691" y="118" on="1"/>
        <pt x="702" y="118" on="0"/>
        <pt x="717" y="112" on="1"/>
        <pt x="732" y="98" on="0"/>
        <pt x="732" y="30" on="0"/>
        <pt x="719" y="17" on="1"/>
        <pt x="686" y="0" on="0"/>
        <pt x="580" y="0" on="1"/>
        <pt x="529" y="0" on="0"/>
        <pt x="480" y="17" on="1"/>
        <pt x="470" y="21" on="0"/>
        <pt x="456" y="54" on="0"/>
        <pt x="456" y="74" on="1"/>
        <pt x="456" y="99" on="0"/>
        <pt x="467" y="110" on="1"/>
        <pt x="474" y="116" on="0"/>
        <pt x="484" y="116" on="1"/>
        <pt x="491" y="116" on="0"/>
        <pt x="503" y="112" on="1"/>
        <pt x="492" y="138" on="0"/>
        <pt x="448" y="179" on="0"/>
        <pt x="400" y="202" on="0"/>
        <pt x="345" y="219" on="0"/>
        <pt x="304" y="225" on="0"/>
        <pt x="288" y="226" on="1"/>
        <pt x="273" y="228" on="1"/>
        <pt x="278" y="203" on="0"/>
        <pt x="278" y="176" on="1"/>
        <pt x="278" y="150" on="0"/>
        <pt x="273" y="127" on="1"/>
        <pt x="280" y="130" on="0"/>
        <pt x="292" y="130" on="1"/>
        <pt x="324" y="130" on="0"/>
        <pt x="341" y="112" on="1"/>
        <pt x="345" y="103" on="0"/>
        <pt x="345" y="65" on="1"/>
        <pt x="345" y="28" on="0"/>
        <pt x="341" y="19" on="1"/>
        <pt x="335" y="-1" on="0"/>
        <pt x="165" y="-1" on="1"/>
        <pt x="104" y="-1" on="0"/>
        <pt x="61" y="8" on="0"/>
        <pt x="58" y="19" on="1"/>
        <pt x="54" y="28" on="0"/>
        <pt x="54" y="65" on="1"/>
        <pt x="54" y="103" on="0"/>
        <pt x="58" y="112" on="1"/>
        <pt x="63" y="120" on="0"/>
        <pt x="98" y="130" on="0"/>
        <pt x="114" y="130" on="1"/>
        <pt x="126" y="130" on="0"/>
        <pt x="130" y="129" on="1"/>
        <pt x="130" y="146" on="0"/>
        <pt x="128" y="238" on="0"/>
        <pt x="128" y="287" on="1"/>
        <pt x="128" y="464" on="0"/>
        <pt x="138" y="520" on="1"/>
        <pt x="126" y="515" on="0"/>
        <pt x="107" y="515" on="1"/>
        <pt x="78" y="515" on="0"/>
        <pt x="67" y="526" on="1"/>
        <pt x="39" y="532" on="0"/>
      </contour>
      <contour>
        <pt x="260" y="434" on="1"/>
        <pt x="260" y="392" on="0"/>
        <pt x="303" y="346" on="0"/>
        <pt x="336" y="346" on="1"/>
        <pt x="384" y="346" on="0"/>
        <pt x="475" y="429" on="0"/>
        <pt x="475" y="487" on="1"/>
        <pt x="475" y="527" on="0"/>
        <pt x="430" y="582" on="0"/>
        <pt x="392" y="582" on="1"/>
        <pt x="343" y="582" on="0"/>
        <pt x="260" y="494" on="0"/>
      </contour>
    </TTGlyph>
    <TTGlyph name="S" xMin="41" yMin="-20" xMax="589" yMax="726">
      <contour>
        <pt x="41" y="101" on="1"/>
        <pt x="41" y="150" on="0"/>
        <pt x="60" y="185" on="1"/>
        <pt x="104" y="199" on="0"/>
        <pt x="117" y="199" on="1"/>
        <pt x="141" y="199" on="0"/>
        <pt x="190" y="185" on="1"/>
        <pt x="195" y="172" on="0"/>
        <pt x="197" y="147" on="1"/>
        <pt x="245" y="115" on="0"/>
        <pt x="305" y="115" on="1"/>
        <pt x="360" y="115" on="0"/>
        <pt x="443" y="180" on="0"/>
        <pt x="443" y="220" on="1"/>
        <pt x="443" y="277" on="0"/>
        <pt x="333" y="281" on="1"/>
        <pt x="291" y="283" on="0"/>
        <pt x="229" y="290" on="0"/>
        <pt x="144" y="313" on="0"/>
        <pt x="90" y="351" on="0"/>
        <pt x="51" y="420" on="0"/>
        <pt x="51" y="467" on="1"/>
        <pt x="51" y="567" on="0"/>
        <pt x="197" y="710" on="0"/>
        <pt x="299" y="710" on="1"/>
        <pt x="370" y="710" on="0"/>
        <pt x="435" y="674" on="1"/>
        <pt x="441" y="704" on="0"/>
        <pt x="456" y="716" on="1"/>
        <pt x="475" y="726" on="0"/>
        <pt x="504" y="726" on="1"/>
        <pt x="550" y="726" on="0"/>
        <pt x="568" y="708" on="1"/>
        <pt x="574" y="690" on="0"/>
        <pt x="574" y="618" on="1"/>
        <pt x="574" y="570" on="0"/>
        <pt x="557" y="530" on="0"/>
        <pt x="533" y="525" on="1"/>
        <pt x="516" y="520" on="0"/>
        <pt x="500" y="520" on="1"/>
        <pt x="464" y="520" on="0"/>
        <pt x="441" y="535" on="1"/>
        <pt x="435" y="550" on="0"/>
        <pt x="435" y="568" on="1"/>
        <pt x="401" y="585" on="0"/>
        <pt x="336" y="585" on="1"/>
        <pt x="266" y="585" on="0"/>
        <pt x="192" y="540" on="0"/>
        <pt x="192" y="487" on="1"/>
        <pt x="192" y="448" on="0"/>
        <pt x="237" y="413" on="0"/>
        <pt x="287" y="411" on="1"/>
        <pt x="429" y="404" on="0"/>
        <pt x="480" y="388" on="1"/>
        <pt x="589" y="355" on="0"/>
        <pt x="589" y="244" on="1"/>
        <pt x="589" y="139" on="0"/>
        <pt x="433" y="-10" on="0"/>
        <pt x="311" y="-10" on="1"/>
        <pt x="242" y="-10" on="0"/>
        <pt x="191" y="27" on="1"/>
        <pt x="191" y="2" on="0"/>
        <pt x="181" y="-10" on="1"/>
        <pt x="163" y="-20" on="0"/>
        <pt x="122" y="-20" on="1"/>
        <pt x="78" y="-20" on="0"/>
        <pt x="62" y="-5" on="1"/>
        <pt x="41" y="35" on="0"/>
      </contour>
    </TTGlyph>
    <TTGlyph name="Scaron" xMin="41" yMin="-20" xMax="589" yMax="868">
      <contour>
        <pt x="41" y="101" on="1"/>
        <pt x="41" y="150" on="0"/>
        <pt x="60" y="185" on="1"/>
        <pt x="104" y="199" on="0"/>
        <pt x="117" y="199" on="1"/>
        <pt x="141" y="199" on="0"/>
        <pt x="190" y="185" on="1"/>
        <pt x="195" y="172" on="0"/>
        <pt x="197" y="147" on="1"/>
        <pt x="245" y="115" on="0"/>
        <pt x="305" y="115" on="1"/>
        <pt x="360" y="115" on="0"/>
        <pt x="443" y="180" on="0"/>
        <pt x="443" y="220" on="1"/>
        <pt x="443" y="277" on="0"/>
        <pt x="333" y="281" on="1"/>
        <pt x="291" y="283" on="0"/>
        <pt x="229" y="290" on="0"/>
        <pt x="144" y="313" on="0"/>
        <pt x="90" y="351" on="0"/>
        <pt x="51" y="420" on="0"/>
        <pt x="51" y="467" on="1"/>
        <pt x="51" y="567" on="0"/>
        <pt x="197" y="710" on="0"/>
        <pt x="299" y="710" on="1"/>
        <pt x="370" y="710" on="0"/>
        <pt x="435" y="674" on="1"/>
        <pt x="441" y="704" on="0"/>
        <pt x="456" y="716" on="1"/>
        <pt x="475" y="726" on="0"/>
        <pt x="504" y="726" on="1"/>
        <pt x="550" y="726" on="0"/>
        <pt x="568" y="708" on="1"/>
        <pt x="574" y="690" on="0"/>
        <pt x="574" y="618" on="1"/>
        <pt x="574" y="570" on="0"/>
        <pt x="557" y="530" on="0"/>
        <pt x="533" y="525" on="1"/>
        <pt x="516" y="520" on="0"/>
        <pt x="500" y="520" on="1"/>
        <pt x="464" y="520" on="0"/>
        <pt x="441" y="535" on="1"/>
        <pt x="435" y="550" on="0"/>
        <pt x="435" y="568" on="1"/>
        <pt x="401" y="585" on="0"/>
        <pt x="336" y="585" on="1"/>
        <pt x="266" y="585" on="0"/>
        <pt x="192" y="540" on="0"/>
        <pt x="192" y="487" on="1"/>
        <pt x="192" y="448" on="0"/>
        <pt x="237" y="413" on="0"/>
        <pt x="287" y="411" on="1"/>
        <pt x="429" y="404" on="0"/>
        <pt x="480" y="388" on="1"/>
        <pt x="589" y="355" on="0"/>
        <pt x="589" y="244" on="1"/>
        <pt x="589" y="139" on="0"/>
        <pt x="433" y="-10" on="0"/>
        <pt x="311" y="-10" on="1"/>
        <pt x="242" y="-10" on="0"/>
        <pt x="191" y="27" on="1"/>
        <pt x="191" y="2" on="0"/>
        <pt x="181" y="-10" on="1"/>
        <pt x="163" y="-20" on="0"/>
        <pt x="122" y="-20" on="1"/>
        <pt x="78" y="-20" on="0"/>
        <pt x="62" y="-5" on="1"/>
        <pt x="41" y="35" on="0"/>
      </contour>
      <contour>
        <pt x="178" y="864" on="1"/>
        <pt x="190" y="868" on="0"/>
        <pt x="198" y="868" on="1"/>
        <pt x="202" y="868" on="0"/>
        <pt x="214" y="864" on="1"/>
        <pt x="289" y="831" on="0"/>
        <pt x="319" y="793" on="1"/>
        <pt x="325" y="802" on="0"/>
        <pt x="343" y="818" on="0"/>
        <pt x="370" y="835" on="0"/>
        <pt x="385" y="844" on="0"/>
        <pt x="421" y="862" on="0"/>
        <pt x="424" y="864" on="1"/>
        <pt x="435" y="868" on="0"/>
        <pt x="451" y="868" on="0"/>
        <pt x="460" y="864" on="1"/>
        <pt x="436" y="819" on="0"/>
        <pt x="353" y="739" on="0"/>
        <pt x="316" y="739" on="1"/>
        <pt x="283" y="739" on="0"/>
        <pt x="202" y="823" on="0"/>
      </contour>
    </TTGlyph>
    <TTGlyph name="T" xMin="11" yMin="0" xMax="714" yMax="700">
      <contour>
        <pt x="11" y="577" on="1"/>
        <pt x="11" y="646" on="0"/>
        <pt x="25" y="688" on="1"/>
        <pt x="44" y="689" on="0"/>
        <pt x="168" y="696" on="0"/>
        <pt x="293" y="700" on="0"/>
        <pt x="423" y="700" on="0"/>
        <pt x="551" y="696" on="0"/>
        <pt x="682" y="689" on="0"/>
        <pt x="700" y="688" on="1"/>
        <pt x="714" y="646" on="0"/>
        <pt x="714" y="577" on="1"/>
        <pt x="714" y="541" on="0"/>
        <pt x="707" y="514" on="1"/>
        <pt x="657" y="504" on="0"/>
        <pt x="636" y="504" on="1"/>
        <pt x="592" y="504" on="0"/>
        <pt x="562" y="521" on="1"/>
        <pt x="545" y="573" on="1"/>
        <pt x="532" y="581" on="0"/>
        <pt x="432" y="584" on="1"/>
        <pt x="438" y="456" on="0"/>
        <pt x="438" y="318" on="1"/>
        <pt x="438" y="210" on="0"/>
        <pt x="427" y="152" on="1"/>
        <pt x="432" y="152" on="0"/>
        <pt x="450" y="149" on="1"/>
        <pt x="476" y="145" on="0"/>
        <pt x="485" y="140" on="1"/>
        <pt x="491" y="132" on="0"/>
        <pt x="491" y="79" on="1"/>
        <pt x="491" y="40" on="0"/>
        <pt x="484" y="28" on="1"/>
        <pt x="468" y="0" on="0"/>
        <pt x="363" y="0" on="1"/>
        <pt x="257" y="0" on="0"/>
        <pt x="241" y="28" on="1"/>
        <pt x="234" y="40" on="0"/>
        <pt x="234" y="80" on="1"/>
        <pt x="234" y="132" on="0"/>
        <pt x="240" y="140" on="1"/>
        <pt x="249" y="145" on="0"/>
        <pt x="275" y="149" on="1"/>
        <pt x="293" y="152" on="0"/>
        <pt x="298" y="152" on="1"/>
        <pt x="287" y="210" on="0"/>
        <pt x="287" y="318" on="1"/>
        <pt x="287" y="456" on="0"/>
        <pt x="293" y="584" on="1"/>
        <pt x="193" y="581" on="0"/>
        <pt x="180" y="573" on="1"/>
        <pt x="163" y="521" on="1"/>
        <pt x="133" y="504" on="0"/>
        <pt x="89" y="504" on="1"/>
        <pt x="68" y="504" on="0"/>
        <pt x="18" y="514" on="1"/>
        <pt x="11" y="541" on="0"/>
      </contour>
    </TTGlyph>
    <TTGlyph name="Thorn" xMin="42" yMin="-1" xMax="613" yMax="704">
      <contour>
        <pt x="42" y="608" on="1"/>
        <pt x="42" y="656" on="0"/>
        <pt x="60" y="667" on="1"/>
        <pt x="80" y="704" on="0"/>
        <pt x="198" y="704" on="1"/>
        <pt x="226" y="704" on="0"/>
        <pt x="252" y="694" on="1"/>
        <pt x="257" y="675" on="0"/>
        <pt x="257" y="609" on="1"/>
        <pt x="257" y="602" on="0"/>
        <pt x="256" y="600" on="1"/>
        <pt x="302" y="630" on="0"/>
        <pt x="366" y="655" on="0"/>
        <pt x="404" y="655" on="1"/>
        <pt x="502" y="655" on="0"/>
        <pt x="613" y="517" on="0"/>
        <pt x="613" y="421" on="1"/>
        <pt x="613" y="317" on="0"/>
        <pt x="481" y="162" on="0"/>
        <pt x="361" y="162" on="1"/>
        <pt x="312" y="162" on="0"/>
        <pt x="257" y="178" on="1"/>
        <pt x="259" y="168" on="0"/>
        <pt x="259" y="161" on="1"/>
        <pt x="259" y="146" on="0"/>
        <pt x="253" y="129" on="1"/>
        <pt x="257" y="130" on="0"/>
        <pt x="279" y="130" on="1"/>
        <pt x="318" y="130" on="0"/>
        <pt x="329" y="112" on="1"/>
        <pt x="344" y="102" on="0"/>
        <pt x="344" y="66" on="1"/>
        <pt x="344" y="35" on="0"/>
        <pt x="329" y="19" on="1"/>
        <pt x="323" y="-1" on="0"/>
        <pt x="213" y="-1" on="1"/>
        <pt x="62" y="-1" on="0"/>
        <pt x="56" y="19" on="1"/>
        <pt x="43" y="33" on="0"/>
        <pt x="43" y="63" on="1"/>
        <pt x="43" y="94" on="0"/>
        <pt x="56" y="112" on="1"/>
        <pt x="61" y="120" on="0"/>
        <pt x="96" y="130" on="0"/>
        <pt x="112" y="130" on="1"/>
        <pt x="124" y="130" on="0"/>
        <pt x="128" y="129" on="1"/>
        <pt x="128" y="146" on="0"/>
        <pt x="126" y="238" on="0"/>
        <pt x="126" y="287" on="1"/>
        <pt x="126" y="464" on="0"/>
        <pt x="136" y="520" on="1"/>
        <pt x="133" y="519" on="0"/>
        <pt x="119" y="519" on="1"/>
        <pt x="96" y="519" on="0"/>
        <pt x="65" y="526" on="1"/>
        <pt x="42" y="553" on="0"/>
      </contour>
      <contour>
        <pt x="258" y="368" on="1"/>
        <pt x="258" y="321" on="0"/>
        <pt x="306" y="271" on="0"/>
        <pt x="343" y="271" on="1"/>
        <pt x="396" y="271" on="0"/>
        <pt x="495" y="363" on="0"/>
        <pt x="495" y="426" on="1"/>
        <pt x="495" y="469" on="0"/>
        <pt x="445" y="531" on="0"/>
        <pt x="403" y="531" on="1"/>
        <pt x="349" y="531" on="0"/>
        <pt x="258" y="434" on="0"/>
      </contour>
    </TTGlyph>
    <TTGlyph name="U" xMin="7" yMin="-1" xMax="762" yMax="702">
      <contour>
        <pt x="7" y="611" on="1"/>
        <pt x="7" y="647" on="0"/>
        <pt x="28" y="679" on="1"/>
        <pt x="88" y="702" on="0"/>
        <pt x="151" y="702" on="1"/>
        <pt x="212" y="702" on="0"/>
        <pt x="275" y="681" on="1"/>
        <pt x="299" y="652" on="0"/>
        <pt x="299" y="614" on="1"/>
        <pt x="299" y="581" on="0"/>
        <pt x="280" y="556" on="1"/>
        <pt x="270" y="550" on="0"/>
        <pt x="259" y="550" on="1"/>
        <pt x="248" y="550" on="0"/>
        <pt x="235" y="555" on="1"/>
        <pt x="227" y="521" on="0"/>
        <pt x="227" y="470" on="1"/>
        <pt x="227" y="326" on="0"/>
        <pt x="331" y="151" on="0"/>
        <pt x="400" y="151" on="1"/>
        <pt x="467" y="151" on="0"/>
        <pt x="547" y="332" on="0"/>
        <pt x="547" y="485" on="1"/>
        <pt x="547" y="536" on="0"/>
        <pt x="541" y="565" on="1"/>
        <pt x="531" y="553" on="0"/>
        <pt x="509" y="553" on="1"/>
        <pt x="492" y="553" on="0"/>
        <pt x="488" y="563" on="1"/>
        <pt x="471" y="588" on="0"/>
        <pt x="471" y="652" on="0"/>
        <pt x="488" y="678" on="1"/>
        <pt x="548" y="702" on="0"/>
        <pt x="626" y="702" on="1"/>
        <pt x="708" y="702" on="0"/>
        <pt x="744" y="671" on="1"/>
        <pt x="762" y="642" on="0"/>
        <pt x="762" y="621" on="1"/>
        <pt x="762" y="603" on="0"/>
        <pt x="746" y="576" on="1"/>
        <pt x="730" y="562" on="0"/>
        <pt x="704" y="562" on="1"/>
        <pt x="693" y="562" on="0"/>
        <pt x="684" y="565" on="1"/>
        <pt x="694" y="511" on="0"/>
        <pt x="694" y="447" on="1"/>
        <pt x="694" y="241" on="0"/>
        <pt x="524" y="-1" on="0"/>
        <pt x="408" y="-1" on="1"/>
        <pt x="348" y="-1" on="0"/>
        <pt x="232" y="69" on="0"/>
        <pt x="139" y="193" on="0"/>
        <pt x="82" y="384" on="0"/>
        <pt x="82" y="495" on="1"/>
        <pt x="82" y="508" on="0"/>
        <pt x="83" y="538" on="0"/>
        <pt x="83" y="546" on="1"/>
        <pt x="77" y="541" on="0"/>
        <pt x="62" y="541" on="1"/>
        <pt x="35" y="541" on="0"/>
        <pt x="27" y="549" on="1"/>
        <pt x="7" y="576" on="0"/>
      </contour>
    </TTGlyph>
    <TTGlyph name="Uacute" xMin="7" yMin="-1" xMax="762" yMax="948">
      <contour>
        <pt x="7" y="611" on="1"/>
        <pt x="7" y="647" on="0"/>
        <pt x="28" y="679" on="1"/>
        <pt x="88" y="702" on="0"/>
        <pt x="151" y="702" on="1"/>
        <pt x="212" y="702" on="0"/>
        <pt x="275" y="681" on="1"/>
        <pt x="299" y="652" on="0"/>
        <pt x="299" y="614" on="1"/>
        <pt x="299" y="581" on="0"/>
        <pt x="280" y="556" on="1"/>
        <pt x="270" y="550" on="0"/>
        <pt x="259" y="550" on="1"/>
        <pt x="248" y="550" on="0"/>
        <pt x="235" y="555" on="1"/>
        <pt x="227" y="521" on="0"/>
        <pt x="227" y="470" on="1"/>
        <pt x="227" y="326" on="0"/>
        <pt x="331" y="151" on="0"/>
        <pt x="400" y="151" on="1"/>
        <pt x="467" y="151" on="0"/>
        <pt x="547" y="332" on="0"/>
        <pt x="547" y="485" on="1"/>
        <pt x="547" y="536" on="0"/>
        <pt x="541" y="565" on="1"/>
        <pt x="531" y="553" on="0"/>
        <pt x="509" y="553" on="1"/>
        <pt x="492" y="553" on="0"/>
        <pt x="488" y="563" on="1"/>
        <pt x="471" y="588" on="0"/>
        <pt x="471" y="652" on="0"/>
        <pt x="488" y="678" on="1"/>
        <pt x="548" y="702" on="0"/>
        <pt x="626" y="702" on="1"/>
        <pt x="708" y="702" on="0"/>
        <pt x="744" y="671" on="1"/>
        <pt x="762" y="642" on="0"/>
        <pt x="762" y="621" on="1"/>
        <pt x="762" y="603" on="0"/>
        <pt x="746" y="576" on="1"/>
        <pt x="730" y="562" on="0"/>
        <pt x="704" y="562" on="1"/>
        <pt x="693" y="562" on="0"/>
        <pt x="684" y="565" on="1"/>
        <pt x="694" y="511" on="0"/>
        <pt x="694" y="447" on="1"/>
        <pt x="694" y="241" on="0"/>
        <pt x="524" y="-1" on="0"/>
        <pt x="408" y="-1" on="1"/>
        <pt x="348" y="-1" on="0"/>
        <pt x="232" y="69" on="0"/>
        <pt x="139" y="193" on="0"/>
        <pt x="82" y="384" on="0"/>
        <pt x="82" y="495" on="1"/>
        <pt x="82" y="508" on="0"/>
        <pt x="83" y="538" on="0"/>
        <pt x="83" y="546" on="1"/>
        <pt x="77" y="541" on="0"/>
        <pt x="62" y="541" on="1"/>
        <pt x="35" y="541" on="0"/>
        <pt x="27" y="549" on="1"/>
        <pt x="7" y="576" on="0"/>
      </contour>
      <contour>
        <pt x="348" y="795" on="1"/>
        <pt x="389" y="897" on="0"/>
        <pt x="434" y="946" on="1"/>
        <pt x="443" y="948" on="0"/>
        <pt x="461" y="948" on="1"/>
        <pt x="505" y="948" on="0"/>
        <pt x="542" y="922" on="1"/>
        <pt x="515" y="875" on="0"/>
        <pt x="412" y="787" on="0"/>
        <pt x="373" y="787" on="1"/>
        <pt x="359" y="787" on="0"/>
      </contour>
    </TTGlyph>
    <TTGlyph name="Ucircumflex" xMin="7" yMin="-1" xMax="762" yMax="908">
      <contour>
        <pt x="7" y="611" on="1"/>
        <pt x="7" y="647" on="0"/>
        <pt x="28" y="679" on="1"/>
        <pt x="88" y="702" on="0"/>
        <pt x="151" y="702" on="1"/>
        <pt x="212" y="702" on="0"/>
        <pt x="275" y="681" on="1"/>
        <pt x="299" y="652" on="0"/>
        <pt x="299" y="614" on="1"/>
        <pt x="299" y="581" on="0"/>
        <pt x="280" y="556" on="1"/>
        <pt x="270" y="550" on="0"/>
        <pt x="259" y="550" on="1"/>
        <pt x="248" y="550" on="0"/>
        <pt x="235" y="555" on="1"/>
        <pt x="227" y="521" on="0"/>
        <pt x="227" y="470" on="1"/>
        <pt x="227" y="326" on="0"/>
        <pt x="331" y="151" on="0"/>
        <pt x="400" y="151" on="1"/>
        <pt x="467" y="151" on="0"/>
        <pt x="547" y="332" on="0"/>
        <pt x="547" y="485" on="1"/>
        <pt x="547" y="536" on="0"/>
        <pt x="541" y="565" on="1"/>
        <pt x="531" y="553" on="0"/>
        <pt x="509" y="553" on="1"/>
        <pt x="492" y="553" on="0"/>
        <pt x="488" y="563" on="1"/>
        <pt x="471" y="588" on="0"/>
        <pt x="471" y="652" on="0"/>
        <pt x="488" y="678" on="1"/>
        <pt x="548" y="702" on="0"/>
        <pt x="626" y="702" on="1"/>
        <pt x="708" y="702" on="0"/>
        <pt x="744" y="671" on="1"/>
        <pt x="762" y="642" on="0"/>
        <pt x="762" y="621" on="1"/>
        <pt x="762" y="603" on="0"/>
        <pt x="746" y="576" on="1"/>
        <pt x="730" y="562" on="0"/>
        <pt x="704" y="562" on="1"/>
        <pt x="693" y="562" on="0"/>
        <pt x="684" y="565" on="1"/>
        <pt x="694" y="511" on="0"/>
        <pt x="694" y="447" on="1"/>
        <pt x="694" y="241" on="0"/>
        <pt x="524" y="-1" on="0"/>
        <pt x="408" y="-1" on="1"/>
        <pt x="348" y="-1" on="0"/>
        <pt x="232" y="69" on="0"/>
        <pt x="139" y="193" on="0"/>
        <pt x="82" y="384" on="0"/>
        <pt x="82" y="495" on="1"/>
        <pt x="82" y="508" on="0"/>
        <pt x="83" y="538" on="0"/>
        <pt x="83" y="546" on="1"/>
        <pt x="77" y="541" on="0"/>
        <pt x="62" y="541" on="1"/>
        <pt x="35" y="541" on="0"/>
        <pt x="27" y="549" on="1"/>
        <pt x="7" y="576" on="0"/>
      </contour>
      <contour>
        <pt x="233" y="753" on="1"/>
        <pt x="258" y="795" on="0"/>
        <pt x="368" y="908" on="0"/>
        <pt x="438" y="908" on="0"/>
        <pt x="551" y="797" on="0"/>
        <pt x="575" y="753" on="1"/>
        <pt x="566" y="749" on="0"/>
        <pt x="550" y="749" on="0"/>
        <pt x="539" y="753" on="1"/>
        <pt x="507" y="770" on="0"/>
        <pt x="418" y="833" on="0"/>
        <pt x="404" y="854" on="1"/>
        <pt x="387" y="833" on="0"/>
        <pt x="296" y="765" on="0"/>
        <pt x="269" y="753" on="1"/>
        <pt x="257" y="749" on="0"/>
        <pt x="253" y="749" on="1"/>
        <pt x="245" y="749" on="0"/>
      </contour>
    </TTGlyph>
    <TTGlyph name="Udieresis" xMin="7" yMin="-1" xMax="762" yMax="915">
      <contour>
        <pt x="7" y="611" on="1"/>
        <pt x="7" y="647" on="0"/>
        <pt x="28" y="679" on="1"/>
        <pt x="88" y="702" on="0"/>
        <pt x="151" y="702" on="1"/>
        <pt x="212" y="702" on="0"/>
        <pt x="275" y="681" on="1"/>
        <pt x="299" y="652" on="0"/>
        <pt x="299" y="614" on="1"/>
        <pt x="299" y="581" on="0"/>
        <pt x="280" y="556" on="1"/>
        <pt x="270" y="550" on="0"/>
        <pt x="259" y="550" on="1"/>
        <pt x="248" y="550" on="0"/>
        <pt x="235" y="555" on="1"/>
        <pt x="227" y="521" on="0"/>
        <pt x="227" y="470" on="1"/>
        <pt x="227" y="326" on="0"/>
        <pt x="331" y="151" on="0"/>
        <pt x="400" y="151" on="1"/>
        <pt x="467" y="151" on="0"/>
        <pt x="547" y="332" on="0"/>
        <pt x="547" y="485" on="1"/>
        <pt x="547" y="536" on="0"/>
        <pt x="541" y="565" on="1"/>
        <pt x="531" y="553" on="0"/>
        <pt x="509" y="553" on="1"/>
        <pt x="492" y="553" on="0"/>
        <pt x="488" y="563" on="1"/>
        <pt x="471" y="588" on="0"/>
        <pt x="471" y="652" on="0"/>
        <pt x="488" y="678" on="1"/>
        <pt x="548" y="702" on="0"/>
        <pt x="626" y="702" on="1"/>
        <pt x="708" y="702" on="0"/>
        <pt x="744" y="671" on="1"/>
        <pt x="762" y="642" on="0"/>
        <pt x="762" y="621" on="1"/>
        <pt x="762" y="603" on="0"/>
        <pt x="746" y="576" on="1"/>
        <pt x="730" y="562" on="0"/>
        <pt x="704" y="562" on="1"/>
        <pt x="693" y="562" on="0"/>
        <pt x="684" y="565" on="1"/>
        <pt x="694" y="511" on="0"/>
        <pt x="694" y="447" on="1"/>
        <pt x="694" y="241" on="0"/>
        <pt x="524" y="-1" on="0"/>
        <pt x="408" y="-1" on="1"/>
        <pt x="348" y="-1" on="0"/>
        <pt x="232" y="69" on="0"/>
        <pt x="139" y="193" on="0"/>
        <pt x="82" y="384" on="0"/>
        <pt x="82" y="495" on="1"/>
        <pt x="82" y="508" on="0"/>
        <pt x="83" y="538" on="0"/>
        <pt x="83" y="546" on="1"/>
        <pt x="77" y="541" on="0"/>
        <pt x="62" y="541" on="1"/>
        <pt x="35" y="541" on="0"/>
        <pt x="27" y="549" on="1"/>
        <pt x="7" y="576" on="0"/>
      </contour>
      <contour>
        <pt x="248" y="840" on="1"/>
        <pt x="248" y="875" on="0"/>
        <pt x="270" y="907" on="1"/>
        <pt x="298" y="915" on="0"/>
        <pt x="310" y="915" on="1"/>
        <pt x="329" y="915" on="0"/>
        <pt x="349" y="907" on="1"/>
        <pt x="370" y="875" on="0"/>
        <pt x="370" y="837" on="1"/>
        <pt x="370" y="800" on="0"/>
        <pt x="349" y="763" on="1"/>
        <pt x="333" y="755" on="0"/>
        <pt x="295" y="755" on="0"/>
        <pt x="270" y="763" on="1"/>
        <pt x="248" y="802" on="0"/>
      </contour>
      <contour>
        <pt x="418" y="840" on="1"/>
        <pt x="418" y="875" on="0"/>
        <pt x="440" y="907" on="1"/>
        <pt x="468" y="915" on="0"/>
        <pt x="480" y="915" on="1"/>
        <pt x="499" y="915" on="0"/>
        <pt x="519" y="907" on="1"/>
        <pt x="540" y="875" on="0"/>
        <pt x="540" y="837" on="1"/>
        <pt x="540" y="800" on="0"/>
        <pt x="519" y="763" on="1"/>
        <pt x="503" y="755" on="0"/>
        <pt x="465" y="755" on="0"/>
        <pt x="440" y="763" on="1"/>
        <pt x="418" y="802" on="0"/>
      </contour>
    </TTGlyph>
    <TTGlyph name="Ugrave" xMin="7" yMin="-1" xMax="762" yMax="946">
      <contour>
        <pt x="7" y="611" on="1"/>
        <pt x="7" y="647" on="0"/>
        <pt x="28" y="679" on="1"/>
        <pt x="88" y="702" on="0"/>
        <pt x="151" y="702" on="1"/>
        <pt x="212" y="702" on="0"/>
        <pt x="275" y="681" on="1"/>
        <pt x="299" y="652" on="0"/>
        <pt x="299" y="614" on="1"/>
        <pt x="299" y="581" on="0"/>
        <pt x="280" y="556" on="1"/>
        <pt x="270" y="550" on="0"/>
        <pt x="259" y="550" on="1"/>
        <pt x="248" y="550" on="0"/>
        <pt x="235" y="555" on="1"/>
        <pt x="227" y="521" on="0"/>
        <pt x="227" y="470" on="1"/>
        <pt x="227" y="326" on="0"/>
        <pt x="331" y="151" on="0"/>
        <pt x="400" y="151" on="1"/>
        <pt x="467" y="151" on="0"/>
        <pt x="547" y="332" on="0"/>
        <pt x="547" y="485" on="1"/>
        <pt x="547" y="536" on="0"/>
        <pt x="541" y="565" on="1"/>
        <pt x="531" y="553" on="0"/>
        <pt x="509" y="553" on="1"/>
        <pt x="492" y="553" on="0"/>
        <pt x="488" y="563" on="1"/>
        <pt x="471" y="588" on="0"/>
        <pt x="471" y="652" on="0"/>
        <pt x="488" y="678" on="1"/>
        <pt x="548" y="702" on="0"/>
        <pt x="626" y="702" on="1"/>
        <pt x="708" y="702" on="0"/>
        <pt x="744" y="671" on="1"/>
        <pt x="762" y="642" on="0"/>
        <pt x="762" y="621" on="1"/>
        <pt x="762" y="603" on="0"/>
        <pt x="746" y="576" on="1"/>
        <pt x="730" y="562" on="0"/>
        <pt x="704" y="562" on="1"/>
        <pt x="693" y="562" on="0"/>
        <pt x="684" y="565" on="1"/>
        <pt x="694" y="511" on="0"/>
        <pt x="694" y="447" on="1"/>
        <pt x="694" y="241" on="0"/>
        <pt x="524" y="-1" on="0"/>
        <pt x="408" y="-1" on="1"/>
        <pt x="348" y="-1" on="0"/>
        <pt x="232" y="69" on="0"/>
        <pt x="139" y="193" on="0"/>
        <pt x="82" y="384" on="0"/>
        <pt x="82" y="495" on="1"/>
        <pt x="82" y="508" on="0"/>
        <pt x="83" y="538" on="0"/>
        <pt x="83" y="546" on="1"/>
        <pt x="77" y="541" on="0"/>
        <pt x="62" y="541" on="1"/>
        <pt x="35" y="541" on="0"/>
        <pt x="27" y="549" on="1"/>
        <pt x="7" y="576" on="0"/>
      </contour>
      <contour>
        <pt x="272" y="921" on="1"/>
        <pt x="294" y="946" on="0"/>
        <pt x="337" y="946" on="1"/>
        <pt x="345" y="946" on="0"/>
        <pt x="350" y="945" on="1"/>
        <pt x="395" y="896" on="0"/>
        <pt x="436" y="794" on="1"/>
        <pt x="433" y="791" on="0"/>
        <pt x="421" y="791" on="1"/>
        <pt x="412" y="791" on="0"/>
        <pt x="406" y="794" on="1"/>
        <pt x="313" y="851" on="0"/>
      </contour>
    </TTGlyph>
    <TTGlyph name="V" xMin="4" yMin="-4" xMax="766" yMax="700">
      <contour>
        <pt x="4" y="627" on="1"/>
        <pt x="4" y="664" on="0"/>
        <pt x="19" y="688" on="1"/>
        <pt x="32" y="700" on="0"/>
        <pt x="175" y="700" on="1"/>
        <pt x="278" y="700" on="0"/>
        <pt x="278" y="689" on="1"/>
        <pt x="300" y="675" on="0"/>
        <pt x="300" y="609" on="1"/>
        <pt x="300" y="590" on="0"/>
        <pt x="297" y="581" on="1"/>
        <pt x="297" y="575" on="0"/>
        <pt x="282" y="565" on="0"/>
        <pt x="271" y="565" on="1"/>
        <pt x="242" y="565" on="0"/>
        <pt x="242" y="569" on="1"/>
        <pt x="238" y="569" on="0"/>
        <pt x="238" y="559" on="1"/>
        <pt x="238" y="517" on="0"/>
        <pt x="338" y="213" on="0"/>
        <pt x="386" y="124" on="1"/>
        <pt x="434" y="204" on="0"/>
        <pt x="535" y="512" on="0"/>
        <pt x="535" y="559" on="1"/>
        <pt x="535" y="569" on="0"/>
        <pt x="531" y="569" on="1"/>
        <pt x="531" y="565" on="0"/>
        <pt x="502" y="565" on="1"/>
        <pt x="491" y="565" on="0"/>
        <pt x="476" y="575" on="0"/>
        <pt x="476" y="581" on="1"/>
        <pt x="473" y="590" on="0"/>
        <pt x="473" y="609" on="1"/>
        <pt x="473" y="675" on="0"/>
        <pt x="495" y="689" on="1"/>
        <pt x="495" y="700" on="0"/>
        <pt x="741" y="700" on="0"/>
        <pt x="754" y="688" on="1"/>
        <pt x="766" y="672" on="0"/>
        <pt x="766" y="632" on="1"/>
        <pt x="766" y="581" on="0"/>
        <pt x="749" y="564" on="1"/>
        <pt x="740" y="560" on="0"/>
        <pt x="726" y="560" on="1"/>
        <pt x="697" y="560" on="0"/>
        <pt x="693" y="566" on="1"/>
        <pt x="691" y="513" on="0"/>
        <pt x="512" y="15" on="0"/>
        <pt x="490" y="5" on="1"/>
        <pt x="444" y="-4" on="0"/>
        <pt x="391" y="-4" on="1"/>
        <pt x="336" y="-4" on="0"/>
        <pt x="283" y="5" on="1"/>
        <pt x="262" y="14" on="0"/>
        <pt x="84" y="519" on="0"/>
        <pt x="84" y="563" on="1"/>
        <pt x="84" y="567" on="0"/>
        <pt x="85" y="568" on="1"/>
        <pt x="62" y="559" on="0"/>
        <pt x="48" y="559" on="1"/>
        <pt x="37" y="559" on="0"/>
        <pt x="24" y="564" on="1"/>
        <pt x="4" y="578" on="0"/>
      </contour>
    </TTGlyph>
    <TTGlyph name="W" xMin="15" yMin="-1" xMax="900" yMax="699">
      <contour>
        <pt x="15" y="615" on="1"/>
        <pt x="15" y="659" on="0"/>
        <pt x="23" y="671" on="1"/>
        <pt x="54" y="696" on="0"/>
        <pt x="150" y="696" on="1"/>
        <pt x="197" y="696" on="0"/>
        <pt x="246" y="689" on="1"/>
        <pt x="254" y="674" on="0"/>
        <pt x="270" y="606" on="0"/>
        <pt x="270" y="582" on="1"/>
        <pt x="270" y="567" on="0"/>
        <pt x="266" y="560" on="1"/>
        <pt x="251" y="549" on="0"/>
        <pt x="222" y="549" on="1"/>
        <pt x="214" y="549" on="0"/>
        <pt x="211" y="550" on="1"/>
        <pt x="227" y="521" on="0"/>
        <pt x="282" y="317" on="0"/>
        <pt x="283" y="268" on="1"/>
        <pt x="297" y="281" on="0"/>
        <pt x="368" y="394" on="0"/>
        <pt x="436" y="486" on="0"/>
        <pt x="476" y="486" on="0"/>
        <pt x="544" y="395" on="0"/>
        <pt x="616" y="280" on="0"/>
        <pt x="629" y="267" on="1"/>
        <pt x="635" y="318" on="0"/>
        <pt x="683" y="495" on="0"/>
        <pt x="701" y="546" on="1"/>
        <pt x="689" y="550" on="0"/>
        <pt x="679" y="556" on="0"/>
        <pt x="667" y="566" on="0"/>
        <pt x="660" y="570" on="1"/>
        <pt x="646" y="581" on="0"/>
        <pt x="646" y="640" on="1"/>
        <pt x="646" y="679" on="0"/>
        <pt x="653" y="687" on="1"/>
        <pt x="670" y="699" on="0"/>
        <pt x="735" y="699" on="1"/>
        <pt x="826" y="699" on="0"/>
        <pt x="876" y="689" on="1"/>
        <pt x="887" y="681" on="0"/>
        <pt x="900" y="617" on="0"/>
        <pt x="900" y="587" on="1"/>
        <pt x="900" y="567" on="0"/>
        <pt x="896" y="560" on="1"/>
        <pt x="870" y="548" on="0"/>
        <pt x="848" y="548" on="1"/>
        <pt x="841" y="548" on="0"/>
        <pt x="831" y="550" on="1"/>
        <pt x="819" y="345" on="0"/>
        <pt x="721" y="148" on="1"/>
        <pt x="727" y="146" on="0"/>
        <pt x="738" y="144" on="0"/>
        <pt x="743" y="144" on="0"/>
        <pt x="751" y="141" on="0"/>
        <pt x="756" y="138" on="1"/>
        <pt x="760" y="130" on="0"/>
        <pt x="760" y="114" on="1"/>
        <pt x="760" y="90" on="0"/>
        <pt x="744" y="23" on="0"/>
        <pt x="736" y="9" on="1"/>
        <pt x="716" y="0" on="0"/>
        <pt x="664" y="0" on="1"/>
        <pt x="611" y="0" on="0"/>
        <pt x="534" y="15" on="0"/>
        <pt x="533" y="27" on="1"/>
        <pt x="526" y="39" on="0"/>
        <pt x="526" y="90" on="1"/>
        <pt x="526" y="133" on="0"/>
        <pt x="533" y="140" on="1"/>
        <pt x="535" y="141" on="0"/>
        <pt x="553" y="144" on="0"/>
        <pt x="576" y="147" on="0"/>
        <pt x="580" y="148" on="1"/>
        <pt x="576" y="152" on="0"/>
        <pt x="455" y="300" on="1"/>
        <pt x="332" y="151" on="0"/>
        <pt x="331" y="149" on="1"/>
        <pt x="370" y="145" on="0"/>
        <pt x="386" y="138" on="1"/>
        <pt x="390" y="130" on="0"/>
        <pt x="390" y="114" on="1"/>
        <pt x="390" y="90" on="0"/>
        <pt x="374" y="23" on="0"/>
        <pt x="366" y="9" on="1"/>
        <pt x="346" y="-1" on="0"/>
        <pt x="278" y="-1" on="1"/>
        <pt x="164" y="-1" on="0"/>
        <pt x="163" y="27" on="1"/>
        <pt x="155" y="45" on="0"/>
        <pt x="155" y="94" on="1"/>
        <pt x="155" y="132" on="0"/>
        <pt x="163" y="140" on="1"/>
        <pt x="175" y="152" on="0"/>
        <pt x="191" y="152" on="1"/>
        <pt x="91" y="366" on="0"/>
        <pt x="81" y="546" on="1"/>
        <pt x="34" y="551" on="0"/>
        <pt x="23" y="558" on="1"/>
        <pt x="15" y="570" on="0"/>
      </contour>
    </TTGlyph>
    <TTGlyph name="X" xMin="26" yMin="-4" xMax="726" yMax="703">
      <contour>
        <pt x="26" y="51" on="1"/>
        <pt x="26" y="92" on="0"/>
        <pt x="55" y="134" on="1"/>
        <pt x="79" y="134" on="0"/>
        <pt x="101" y="132" on="1"/>
        <pt x="101" y="167" on="0"/>
        <pt x="227" y="325" on="0"/>
        <pt x="271" y="353" on="1"/>
        <pt x="225" y="383" on="0"/>
        <pt x="102" y="530" on="0"/>
        <pt x="101" y="568" on="1"/>
        <pt x="88" y="564" on="0"/>
        <pt x="54" y="564" on="1"/>
        <pt x="28" y="590" on="0"/>
        <pt x="28" y="646" on="1"/>
        <pt x="28" y="667" on="0"/>
        <pt x="32" y="683" on="1"/>
        <pt x="85" y="703" on="0"/>
        <pt x="156" y="703" on="1"/>
        <pt x="194" y="703" on="0"/>
        <pt x="217" y="694" on="1"/>
        <pt x="236" y="688" on="0"/>
        <pt x="259" y="643" on="0"/>
        <pt x="259" y="619" on="1"/>
        <pt x="259" y="599" on="0"/>
        <pt x="250" y="587" on="1"/>
        <pt x="241" y="582" on="0"/>
        <pt x="232" y="582" on="1"/>
        <pt x="226" y="582" on="0"/>
        <pt x="214" y="584" on="1"/>
        <pt x="232" y="577" on="0"/>
        <pt x="337" y="466" on="0"/>
        <pt x="373" y="415" on="1"/>
        <pt x="404" y="451" on="0"/>
        <pt x="515" y="564" on="0"/>
        <pt x="544" y="584" on="1"/>
        <pt x="538" y="582" on="0"/>
        <pt x="526" y="582" on="1"/>
        <pt x="509" y="582" on="0"/>
        <pt x="506" y="588" on="1"/>
        <pt x="498" y="610" on="0"/>
        <pt x="498" y="628" on="1"/>
        <pt x="498" y="667" on="0"/>
        <pt x="530" y="693" on="1"/>
        <pt x="575" y="703" on="0"/>
        <pt x="614" y="703" on="1"/>
        <pt x="672" y="703" on="0"/>
        <pt x="718" y="682" on="1"/>
        <pt x="725" y="663" on="0"/>
        <pt x="725" y="641" on="1"/>
        <pt x="725" y="600" on="0"/>
        <pt x="704" y="577" on="1"/>
        <pt x="668" y="577" on="0"/>
        <pt x="658" y="580" on="1"/>
        <pt x="657" y="543" on="0"/>
        <pt x="526" y="384" on="0"/>
        <pt x="481" y="353" on="1"/>
        <pt x="524" y="326" on="0"/>
        <pt x="650" y="166" on="0"/>
        <pt x="650" y="133" on="1"/>
        <pt x="659" y="134" on="1"/>
        <pt x="678" y="134" on="1"/>
        <pt x="691" y="134" on="1"/>
        <pt x="704" y="125" on="0"/>
        <pt x="726" y="69" on="0"/>
        <pt x="726" y="45" on="1"/>
        <pt x="726" y="25" on="0"/>
        <pt x="717" y="19" on="1"/>
        <pt x="657" y="-4" on="0"/>
        <pt x="593" y="-4" on="1"/>
        <pt x="542" y="-4" on="0"/>
        <pt x="501" y="12" on="1"/>
        <pt x="485" y="49" on="0"/>
        <pt x="485" y="81" on="1"/>
        <pt x="485" y="103" on="0"/>
        <pt x="492" y="118" on="1"/>
        <pt x="510" y="127" on="0"/>
        <pt x="537" y="127" on="1"/>
        <pt x="475" y="166" on="0"/>
        <pt x="373" y="293" on="1"/>
        <pt x="343" y="256" on="0"/>
        <pt x="235" y="142" on="0"/>
        <pt x="211" y="128" on="1"/>
        <pt x="216" y="129" on="0"/>
        <pt x="227" y="129" on="1"/>
        <pt x="243" y="129" on="0"/>
        <pt x="250" y="123" on="1"/>
        <pt x="253" y="106" on="0"/>
        <pt x="253" y="92" on="1"/>
        <pt x="253" y="53" on="0"/>
        <pt x="217" y="7" on="1"/>
        <pt x="192" y="-4" on="0"/>
        <pt x="151" y="-4" on="1"/>
        <pt x="85" y="-4" on="0"/>
        <pt x="32" y="18" on="1"/>
        <pt x="26" y="34" on="0"/>
      </contour>
    </TTGlyph>
    <TTGlyph name="Y" xMin="4" yMin="-1" xMax="678" yMax="702">
      <contour>
        <pt x="4" y="605" on="1"/>
        <pt x="21" y="630" on="0"/>
        <pt x="138" y="690" on="0"/>
        <pt x="215" y="702" on="1"/>
        <pt x="254" y="641" on="0"/>
        <pt x="254" y="620" on="1"/>
        <pt x="254" y="615" on="0"/>
        <pt x="229" y="603" on="1"/>
        <pt x="211" y="594" on="0"/>
        <pt x="198" y="594" on="1"/>
        <pt x="204" y="575" on="0"/>
        <pt x="307" y="453" on="0"/>
        <pt x="346" y="412" on="1"/>
        <pt x="371" y="427" on="0"/>
        <pt x="477" y="572" on="0"/>
        <pt x="484" y="594" on="1"/>
        <pt x="472" y="594" on="0"/>
        <pt x="453" y="603" on="1"/>
        <pt x="429" y="614" on="0"/>
        <pt x="428" y="619" on="1"/>
        <pt x="429" y="627" on="0"/>
        <pt x="463" y="699" on="0"/>
        <pt x="467" y="702" on="1"/>
        <pt x="583" y="702" on="0"/>
        <pt x="678" y="605" on="1"/>
        <pt x="666" y="538" on="0"/>
        <pt x="650" y="519" on="1"/>
        <pt x="631" y="523" on="0"/>
        <pt x="608" y="534" on="1"/>
        <pt x="604" y="528" on="0"/>
        <pt x="571" y="476" on="0"/>
        <pt x="547" y="444" on="0"/>
        <pt x="506" y="395" on="0"/>
        <pt x="454" y="351" on="0"/>
        <pt x="424" y="331" on="1"/>
        <pt x="419" y="308" on="0"/>
        <pt x="414" y="136" on="0"/>
        <pt x="412" y="121" on="1"/>
        <pt x="437" y="121" on="0"/>
        <pt x="463" y="107" on="1"/>
        <pt x="467" y="103" on="0"/>
        <pt x="467" y="86" on="1"/>
        <pt x="467" y="67" on="0"/>
        <pt x="457" y="15" on="0"/>
        <pt x="454" y="8" on="1"/>
        <pt x="447" y="-1" on="0"/>
        <pt x="336" y="-1" on="1"/>
        <pt x="300" y="-1" on="0"/>
        <pt x="268" y="0" on="0"/>
        <pt x="229" y="2" on="0"/>
        <pt x="211" y="9" on="0"/>
        <pt x="207" y="15" on="1"/>
        <pt x="203" y="25" on="0"/>
        <pt x="203" y="65" on="1"/>
        <pt x="203" y="101" on="0"/>
        <pt x="211" y="109" on="1"/>
        <pt x="236" y="121" on="0"/>
        <pt x="269" y="121" on="1"/>
        <pt x="269" y="132" on="0"/>
        <pt x="266" y="230" on="0"/>
        <pt x="262" y="311" on="0"/>
        <pt x="259" y="331" on="1"/>
        <pt x="199" y="370" on="0"/>
        <pt x="80" y="513" on="0"/>
        <pt x="74" y="534" on="1"/>
        <pt x="51" y="523" on="0"/>
        <pt x="32" y="519" on="1"/>
        <pt x="12" y="558" on="0"/>
      </contour>
    </TTGlyph>
    <TTGlyph name="Yacute" xMin="4" yMin="-1" xMax="678" yMax="948">
      <contour>
        <pt x="4" y="605" on="1"/>
        <pt x="21" y="630" on="0"/>
        <pt x="138" y="690" on="0"/>
        <pt x="215" y="702" on="1"/>
        <pt x="254" y="641" on="0"/>
        <pt x="254" y="620" on="1"/>
        <pt x="254" y="615" on="0"/>
        <pt x="229" y="603" on="1"/>
        <pt x="211" y="594" on="0"/>
        <pt x="198" y="594" on="1"/>
        <pt x="204" y="575" on="0"/>
        <pt x="307" y="453" on="0"/>
        <pt x="346" y="412" on="1"/>
        <pt x="371" y="427" on="0"/>
        <pt x="477" y="572" on="0"/>
        <pt x="484" y="594" on="1"/>
        <pt x="472" y="594" on="0"/>
        <pt x="453" y="603" on="1"/>
        <pt x="429" y="614" on="0"/>
        <pt x="428" y="619" on="1"/>
        <pt x="429" y="627" on="0"/>
        <pt x="463" y="699" on="0"/>
        <pt x="467" y="702" on="1"/>
        <pt x="583" y="702" on="0"/>
        <pt x="678" y="605" on="1"/>
        <pt x="666" y="538" on="0"/>
        <pt x="650" y="519" on="1"/>
        <pt x="631" y="523" on="0"/>
        <pt x="608" y="534" on="1"/>
        <pt x="604" y="528" on="0"/>
        <pt x="571" y="476" on="0"/>
        <pt x="547" y="444" on="0"/>
        <pt x="506" y="395" on="0"/>
        <pt x="454" y="351" on="0"/>
        <pt x="424" y="331" on="1"/>
        <pt x="419" y="308" on="0"/>
        <pt x="414" y="136" on="0"/>
        <pt x="412" y="121" on="1"/>
        <pt x="437" y="121" on="0"/>
        <pt x="463" y="107" on="1"/>
        <pt x="467" y="103" on="0"/>
        <pt x="467" y="86" on="1"/>
        <pt x="467" y="67" on="0"/>
        <pt x="457" y="15" on="0"/>
        <pt x="454" y="8" on="1"/>
        <pt x="447" y="-1" on="0"/>
        <pt x="336" y="-1" on="1"/>
        <pt x="300" y="-1" on="0"/>
        <pt x="268" y="0" on="0"/>
        <pt x="229" y="2" on="0"/>
        <pt x="211" y="9" on="0"/>
        <pt x="207" y="15" on="1"/>
        <pt x="203" y="25" on="0"/>
        <pt x="203" y="65" on="1"/>
        <pt x="203" y="101" on="0"/>
        <pt x="211" y="109" on="1"/>
        <pt x="236" y="121" on="0"/>
        <pt x="269" y="121" on="1"/>
        <pt x="269" y="132" on="0"/>
        <pt x="266" y="230" on="0"/>
        <pt x="262" y="311" on="0"/>
        <pt x="259" y="331" on="1"/>
        <pt x="199" y="370" on="0"/>
        <pt x="80" y="513" on="0"/>
        <pt x="74" y="534" on="1"/>
        <pt x="51" y="523" on="0"/>
        <pt x="32" y="519" on="1"/>
        <pt x="12" y="558" on="0"/>
      </contour>
      <contour>
        <pt x="310" y="795" on="1"/>
        <pt x="351" y="897" on="0"/>
        <pt x="396" y="946" on="1"/>
        <pt x="405" y="948" on="0"/>
        <pt x="423" y="948" on="1"/>
        <pt x="467" y="948" on="0"/>
        <pt x="504" y="922" on="1"/>
        <pt x="477" y="875" on="0"/>
        <pt x="374" y="787" on="0"/>
        <pt x="335" y="787" on="1"/>
        <pt x="321" y="787" on="0"/>
      </contour>
    </TTGlyph>
    <TTGlyph name="Ydieresis" xMin="4" yMin="-1" xMax="678" yMax="885">
      <contour>
        <pt x="4" y="605" on="1"/>
        <pt x="21" y="630" on="0"/>
        <pt x="138" y="690" on="0"/>
        <pt x="215" y="702" on="1"/>
        <pt x="254" y="641" on="0"/>
        <pt x="254" y="620" on="1"/>
        <pt x="254" y="615" on="0"/>
        <pt x="229" y="603" on="1"/>
        <pt x="211" y="594" on="0"/>
        <pt x="198" y="594" on="1"/>
        <pt x="204" y="575" on="0"/>
        <pt x="307" y="453" on="0"/>
        <pt x="346" y="412" on="1"/>
        <pt x="371" y="427" on="0"/>
        <pt x="477" y="572" on="0"/>
        <pt x="484" y="594" on="1"/>
        <pt x="472" y="594" on="0"/>
        <pt x="453" y="603" on="1"/>
        <pt x="429" y="614" on="0"/>
        <pt x="428" y="619" on="1"/>
        <pt x="429" y="627" on="0"/>
        <pt x="463" y="699" on="0"/>
        <pt x="467" y="702" on="1"/>
        <pt x="583" y="702" on="0"/>
        <pt x="678" y="605" on="1"/>
        <pt x="666" y="538" on="0"/>
        <pt x="650" y="519" on="1"/>
        <pt x="631" y="523" on="0"/>
        <pt x="608" y="534" on="1"/>
        <pt x="604" y="528" on="0"/>
        <pt x="571" y="476" on="0"/>
        <pt x="547" y="444" on="0"/>
        <pt x="506" y="395" on="0"/>
        <pt x="454" y="351" on="0"/>
        <pt x="424" y="331" on="1"/>
        <pt x="419" y="308" on="0"/>
        <pt x="414" y="136" on="0"/>
        <pt x="412" y="121" on="1"/>
        <pt x="437" y="121" on="0"/>
        <pt x="463" y="107" on="1"/>
        <pt x="467" y="103" on="0"/>
        <pt x="467" y="86" on="1"/>
        <pt x="467" y="67" on="0"/>
        <pt x="457" y="15" on="0"/>
        <pt x="454" y="8" on="1"/>
        <pt x="447" y="-1" on="0"/>
        <pt x="336" y="-1" on="1"/>
        <pt x="300" y="-1" on="0"/>
        <pt x="268" y="0" on="0"/>
        <pt x="229" y="2" on="0"/>
        <pt x="211" y="9" on="0"/>
        <pt x="207" y="15" on="1"/>
        <pt x="203" y="25" on="0"/>
        <pt x="203" y="65" on="1"/>
        <pt x="203" y="101" on="0"/>
        <pt x="211" y="109" on="1"/>
        <pt x="236" y="121" on="0"/>
        <pt x="269" y="121" on="1"/>
        <pt x="269" y="132" on="0"/>
        <pt x="266" y="230" on="0"/>
        <pt x="262" y="311" on="0"/>
        <pt x="259" y="331" on="1"/>
        <pt x="199" y="370" on="0"/>
        <pt x="80" y="513" on="0"/>
        <pt x="74" y="534" on="1"/>
        <pt x="51" y="523" on="0"/>
        <pt x="32" y="519" on="1"/>
        <pt x="12" y="558" on="0"/>
      </contour>
      <contour>
        <pt x="192" y="810" on="1"/>
        <pt x="192" y="845" on="0"/>
        <pt x="214" y="877" on="1"/>
        <pt x="242" y="885" on="0"/>
        <pt x="254" y="885" on="1"/>
        <pt x="273" y="885" on="0"/>
        <pt x="293" y="877" on="1"/>
        <pt x="314" y="845" on="0"/>
        <pt x="314" y="807" on="1"/>
        <pt x="314" y="770" on="0"/>
        <pt x="293" y="733" on="1"/>
        <pt x="277" y="725" on="0"/>
        <pt x="239" y="725" on="0"/>
        <pt x="214" y="733" on="1"/>
        <pt x="192" y="772" on="0"/>
      </contour>
      <contour>
        <pt x="362" y="810" on="1"/>
        <pt x="362" y="845" on="0"/>
        <pt x="384" y="877" on="1"/>
        <pt x="412" y="885" on="0"/>
        <pt x="424" y="885" on="1"/>
        <pt x="443" y="885" on="0"/>
        <pt x="463" y="877" on="1"/>
        <pt x="484" y="845" on="0"/>
        <pt x="484" y="807" on="1"/>
        <pt x="484" y="770" on="0"/>
        <pt x="463" y="733" on="1"/>
        <pt x="447" y="725" on="0"/>
        <pt x="409" y="725" on="0"/>
        <pt x="384" y="733" on="1"/>
        <pt x="362" y="772" on="0"/>
      </contour>
    </TTGlyph>
    <TTGlyph name="Z" xMin="23" yMin="-24" xMax="710" yMax="704">
      <contour>
        <pt x="23" y="3" on="1"/>
        <pt x="23" y="72" on="0"/>
        <pt x="100" y="204" on="0"/>
        <pt x="223" y="312" on="0"/>
        <pt x="351" y="407" on="0"/>
        <pt x="477" y="509" on="0"/>
        <pt x="506" y="551" on="1"/>
        <pt x="504" y="550" on="0"/>
        <pt x="438" y="547" on="0"/>
        <pt x="347" y="544" on="0"/>
        <pt x="320" y="544" on="1"/>
        <pt x="241" y="544" on="0"/>
        <pt x="231" y="539" on="1"/>
        <pt x="221" y="503" on="0"/>
        <pt x="218" y="498" on="1"/>
        <pt x="175" y="490" on="0"/>
        <pt x="144" y="490" on="1"/>
        <pt x="111" y="490" on="0"/>
        <pt x="79" y="499" on="1"/>
        <pt x="61" y="535" on="0"/>
        <pt x="61" y="616" on="1"/>
        <pt x="61" y="672" on="0"/>
        <pt x="79" y="697" on="1"/>
        <pt x="101" y="702" on="0"/>
        <pt x="163" y="702" on="1"/>
        <pt x="241" y="702" on="0"/>
        <pt x="252" y="692" on="1"/>
        <pt x="254" y="684" on="0"/>
        <pt x="254" y="681" on="1"/>
        <pt x="254" y="680" on="0"/>
        <pt x="252" y="672" on="1"/>
        <pt x="354" y="676" on="0"/>
        <pt x="418" y="676" on="1"/>
        <pt x="488" y="676" on="0"/>
        <pt x="527" y="673" on="1"/>
        <pt x="530" y="691" on="0"/>
        <pt x="536" y="694" on="1"/>
        <pt x="540" y="704" on="0"/>
        <pt x="631" y="704" on="1"/>
        <pt x="695" y="704" on="0"/>
        <pt x="700" y="700" on="1"/>
        <pt x="697" y="611" on="0"/>
        <pt x="601" y="445" on="0"/>
        <pt x="470" y="328" on="0"/>
        <pt x="340" y="232" on="0"/>
        <pt x="250" y="160" on="0"/>
        <pt x="250" y="140" on="1"/>
        <pt x="284" y="131" on="0"/>
        <pt x="337" y="131" on="1"/>
        <pt x="469" y="131" on="0"/>
        <pt x="530" y="154" on="1"/>
        <pt x="530" y="194" on="0"/>
        <pt x="543" y="203" on="1"/>
        <pt x="566" y="212" on="0"/>
        <pt x="622" y="212" on="1"/>
        <pt x="670" y="212" on="0"/>
        <pt x="685" y="203" on="1"/>
        <pt x="696" y="197" on="0"/>
        <pt x="710" y="124" on="0"/>
        <pt x="710" y="80" on="1"/>
        <pt x="710" y="-16" on="0"/>
        <pt x="684" y="-19" on="1"/>
        <pt x="657" y="-24" on="0"/>
        <pt x="604" y="-24" on="1"/>
        <pt x="529" y="-24" on="0"/>
        <pt x="518" y="-13" on="1"/>
        <pt x="513" y="-12" on="0"/>
        <pt x="509" y="29" on="1"/>
        <pt x="418" y="-1" on="0"/>
        <pt x="314" y="-1" on="1"/>
        <pt x="280" y="-1" on="0"/>
        <pt x="196" y="5" on="1"/>
        <pt x="195" y="-11" on="0"/>
        <pt x="188" y="-13" on="1"/>
        <pt x="184" y="-24" on="0"/>
        <pt x="95" y="-24" on="1"/>
        <pt x="32" y="-24" on="0"/>
        <pt x="24" y="-20" on="1"/>
        <pt x="23" y="-12" on="0"/>
      </contour>
    </TTGlyph>
    <TTGlyph name="Zcaron" xMin="23" yMin="-24" xMax="710" yMax="868">
      <contour>
        <pt x="23" y="3" on="1"/>
        <pt x="23" y="72" on="0"/>
        <pt x="100" y="204" on="0"/>
        <pt x="223" y="312" on="0"/>
        <pt x="351" y="407" on="0"/>
        <pt x="477" y="509" on="0"/>
        <pt x="506" y="551" on="1"/>
        <pt x="504" y="550" on="0"/>
        <pt x="438" y="547" on="0"/>
        <pt x="347" y="544" on="0"/>
        <pt x="320" y="544" on="1"/>
        <pt x="241" y="544" on="0"/>
        <pt x="231" y="539" on="1"/>
        <pt x="221" y="503" on="0"/>
        <pt x="218" y="498" on="1"/>
        <pt x="175" y="490" on="0"/>
        <pt x="144" y="490" on="1"/>
        <pt x="111" y="490" on="0"/>
        <pt x="79" y="499" on="1"/>
        <pt x="61" y="535" on="0"/>
        <pt x="61" y="616" on="1"/>
        <pt x="61" y="672" on="0"/>
        <pt x="79" y="697" on="1"/>
        <pt x="101" y="702" on="0"/>
        <pt x="163" y="702" on="1"/>
        <pt x="241" y="702" on="0"/>
        <pt x="252" y="692" on="1"/>
        <pt x="254" y="684" on="0"/>
        <pt x="254" y="681" on="1"/>
        <pt x="254" y="680" on="0"/>
        <pt x="252" y="672" on="1"/>
        <pt x="354" y="676" on="0"/>
        <pt x="418" y="676" on="1"/>
        <pt x="488" y="676" on="0"/>
        <pt x="527" y="673" on="1"/>
        <pt x="530" y="691" on="0"/>
        <pt x="536" y="694" on="1"/>
        <pt x="540" y="704" on="0"/>
        <pt x="631" y="704" on="1"/>
        <pt x="695" y="704" on="0"/>
        <pt x="700" y="700" on="1"/>
        <pt x="697" y="611" on="0"/>
        <pt x="601" y="445" on="0"/>
        <pt x="470" y="328" on="0"/>
        <pt x="340" y="232" on="0"/>
        <pt x="250" y="160" on="0"/>
        <pt x="250" y="140" on="1"/>
        <pt x="284" y="131" on="0"/>
        <pt x="337" y="131" on="1"/>
        <pt x="469" y="131" on="0"/>
        <pt x="530" y="154" on="1"/>
        <pt x="530" y="194" on="0"/>
        <pt x="543" y="203" on="1"/>
        <pt x="566" y="212" on="0"/>
        <pt x="622" y="212" on="1"/>
        <pt x="670" y="212" on="0"/>
        <pt x="685" y="203" on="1"/>
        <pt x="696" y="197" on="0"/>
        <pt x="710" y="124" on="0"/>
        <pt x="710" y="80" on="1"/>
        <pt x="710" y="-16" on="0"/>
        <pt x="684" y="-19" on="1"/>
        <pt x="657" y="-24" on="0"/>
        <pt x="604" y="-24" on="1"/>
        <pt x="529" y="-24" on="0"/>
        <pt x="518" y="-13" on="1"/>
        <pt x="513" y="-12" on="0"/>
        <pt x="509" y="29" on="1"/>
        <pt x="418" y="-1" on="0"/>
        <pt x="314" y="-1" on="1"/>
        <pt x="280" y="-1" on="0"/>
        <pt x="196" y="5" on="1"/>
        <pt x="195" y="-11" on="0"/>
        <pt x="188" y="-13" on="1"/>
        <pt x="184" y="-24" on="0"/>
        <pt x="95" y="-24" on="1"/>
        <pt x="32" y="-24" on="0"/>
        <pt x="24" y="-20" on="1"/>
        <pt x="23" y="-12" on="0"/>
      </contour>
      <contour>
        <pt x="251" y="864" on="1"/>
        <pt x="263" y="868" on="0"/>
        <pt x="271" y="868" on="1"/>
        <pt x="275" y="868" on="0"/>
        <pt x="287" y="864" on="1"/>
        <pt x="310" y="855" on="0"/>
        <pt x="377" y="813" on="0"/>
        <pt x="392" y="793" on="1"/>
        <pt x="398" y="802" on="0"/>
        <pt x="416" y="818" on="0"/>
        <pt x="443" y="835" on="0"/>
        <pt x="458" y="844" on="0"/>
        <pt x="494" y="862" on="0"/>
        <pt x="497" y="864" on="1"/>
        <pt x="508" y="868" on="0"/>
        <pt x="524" y="868" on="0"/>
        <pt x="533" y="864" on="1"/>
        <pt x="509" y="820" on="0"/>
        <pt x="426" y="739" on="0"/>
        <pt x="392" y="739" on="1"/>
        <pt x="356" y="739" on="0"/>
        <pt x="276" y="822" on="0"/>
      </contour>
    </TTGlyph>
    <TTGlyph name="a" xMin="35" yMin="-16" xMax="583" yMax="513">
      <contour>
        <pt x="35" y="207" on="1"/>
        <pt x="35" y="279" on="0"/>
        <pt x="78" y="414" on="0"/>
        <pt x="173" y="512" on="0"/>
        <pt x="237" y="512" on="1"/>
        <pt x="266" y="512" on="0"/>
        <pt x="311" y="492" on="0"/>
        <pt x="336" y="463" on="0"/>
        <pt x="352" y="434" on="0"/>
        <pt x="358" y="414" on="0"/>
        <pt x="359" y="414" on="1"/>
        <pt x="359" y="468" on="0"/>
        <pt x="358" y="485" on="1"/>
        <pt x="378" y="502" on="0"/>
        <pt x="421" y="513" on="0"/>
        <pt x="459" y="513" on="1"/>
        <pt x="489" y="513" on="0"/>
        <pt x="536" y="509" on="0"/>
        <pt x="560" y="503" on="0"/>
        <pt x="575" y="497" on="0"/>
        <pt x="577" y="496" on="1"/>
        <pt x="579" y="495" on="1"/>
        <pt x="583" y="486" on="0"/>
        <pt x="583" y="439" on="1"/>
        <pt x="583" y="391" on="0"/>
        <pt x="579" y="382" on="1"/>
        <pt x="576" y="375" on="0"/>
        <pt x="518" y="364" on="0"/>
        <pt x="497" y="364" on="1"/>
        <pt x="487" y="364" on="0"/>
        <pt x="475" y="366" on="1"/>
        <pt x="478" y="360" on="0"/>
        <pt x="478" y="315" on="1"/>
        <pt x="478" y="184" on="0"/>
        <pt x="469" y="170" on="1"/>
        <pt x="476" y="173" on="0"/>
        <pt x="486" y="173" on="1"/>
        <pt x="530" y="173" on="0"/>
        <pt x="572" y="164" on="1"/>
        <pt x="580" y="158" on="0"/>
        <pt x="580" y="79" on="1"/>
        <pt x="580" y="35" on="0"/>
        <pt x="577" y="23" on="1"/>
        <pt x="570" y="12" on="0"/>
        <pt x="496" y="-8" on="0"/>
        <pt x="449" y="-8" on="1"/>
        <pt x="364" y="-8" on="0"/>
        <pt x="344" y="-4" on="1"/>
        <pt x="337" y="15" on="0"/>
        <pt x="337" y="28" on="1"/>
        <pt x="337" y="36" on="0"/>
        <pt x="340" y="40" on="1"/>
        <pt x="328" y="36" on="0"/>
        <pt x="216" y="-16" on="0"/>
        <pt x="191" y="-16" on="1"/>
        <pt x="114" y="-16" on="0"/>
        <pt x="35" y="114" on="0"/>
      </contour>
      <contour>
        <pt x="160" y="233" on="1"/>
        <pt x="160" y="177" on="0"/>
        <pt x="229" y="100" on="0"/>
        <pt x="267" y="100" on="1"/>
        <pt x="288" y="100" on="0"/>
        <pt x="342" y="122" on="0"/>
        <pt x="344" y="131" on="1"/>
        <pt x="347" y="177" on="0"/>
        <pt x="352" y="254" on="0"/>
        <pt x="355" y="295" on="0"/>
        <pt x="355" y="301" on="1"/>
        <pt x="355" y="313" on="1"/>
        <pt x="355" y="334" on="0"/>
        <pt x="300" y="375" on="0"/>
        <pt x="266" y="375" on="1"/>
        <pt x="216" y="375" on="0"/>
        <pt x="160" y="284" on="0"/>
      </contour>
    </TTGlyph>
    <TTGlyph name="aacute" xMin="35" yMin="-16" xMax="583" yMax="748">
      <contour>
        <pt x="35" y="207" on="1"/>
        <pt x="35" y="279" on="0"/>
        <pt x="78" y="414" on="0"/>
        <pt x="173" y="512" on="0"/>
        <pt x="237" y="512" on="1"/>
        <pt x="266" y="512" on="0"/>
        <pt x="311" y="492" on="0"/>
        <pt x="336" y="463" on="0"/>
        <pt x="352" y="434" on="0"/>
        <pt x="358" y="414" on="0"/>
        <pt x="359" y="414" on="1"/>
        <pt x="359" y="468" on="0"/>
        <pt x="358" y="485" on="1"/>
        <pt x="378" y="502" on="0"/>
        <pt x="421" y="513" on="0"/>
        <pt x="459" y="513" on="1"/>
        <pt x="489" y="513" on="0"/>
        <pt x="536" y="509" on="0"/>
        <pt x="560" y="503" on="0"/>
        <pt x="575" y="497" on="0"/>
        <pt x="577" y="496" on="1"/>
        <pt x="579" y="495" on="1"/>
        <pt x="583" y="486" on="0"/>
        <pt x="583" y="439" on="1"/>
        <pt x="583" y="391" on="0"/>
        <pt x="579" y="382" on="1"/>
        <pt x="576" y="375" on="0"/>
        <pt x="518" y="364" on="0"/>
        <pt x="497" y="364" on="1"/>
        <pt x="487" y="364" on="0"/>
        <pt x="475" y="366" on="1"/>
        <pt x="478" y="360" on="0"/>
        <pt x="478" y="315" on="1"/>
        <pt x="478" y="184" on="0"/>
        <pt x="469" y="170" on="1"/>
        <pt x="476" y="173" on="0"/>
        <pt x="486" y="173" on="1"/>
        <pt x="530" y="173" on="0"/>
        <pt x="572" y="164" on="1"/>
        <pt x="580" y="158" on="0"/>
        <pt x="580" y="79" on="1"/>
        <pt x="580" y="35" on="0"/>
        <pt x="577" y="23" on="1"/>
        <pt x="570" y="12" on="0"/>
        <pt x="496" y="-8" on="0"/>
        <pt x="449" y="-8" on="1"/>
        <pt x="364" y="-8" on="0"/>
        <pt x="344" y="-4" on="1"/>
        <pt x="337" y="15" on="0"/>
        <pt x="337" y="28" on="1"/>
        <pt x="337" y="36" on="0"/>
        <pt x="340" y="40" on="1"/>
        <pt x="328" y="36" on="0"/>
        <pt x="216" y="-16" on="0"/>
        <pt x="191" y="-16" on="1"/>
        <pt x="114" y="-16" on="0"/>
        <pt x="35" y="114" on="0"/>
      </contour>
      <contour>
        <pt x="160" y="233" on="1"/>
        <pt x="160" y="177" on="0"/>
        <pt x="229" y="100" on="0"/>
        <pt x="267" y="100" on="1"/>
        <pt x="288" y="100" on="0"/>
        <pt x="342" y="122" on="0"/>
        <pt x="344" y="131" on="1"/>
        <pt x="347" y="177" on="0"/>
        <pt x="352" y="254" on="0"/>
        <pt x="355" y="295" on="0"/>
        <pt x="355" y="301" on="1"/>
        <pt x="355" y="313" on="1"/>
        <pt x="355" y="334" on="0"/>
        <pt x="300" y="375" on="0"/>
        <pt x="266" y="375" on="1"/>
        <pt x="216" y="375" on="0"/>
        <pt x="160" y="284" on="0"/>
      </contour>
      <contour>
        <pt x="273" y="595" on="1"/>
        <pt x="314" y="697" on="0"/>
        <pt x="359" y="746" on="1"/>
        <pt x="368" y="748" on="0"/>
        <pt x="386" y="748" on="1"/>
        <pt x="430" y="748" on="0"/>
        <pt x="467" y="722" on="1"/>
        <pt x="440" y="675" on="0"/>
        <pt x="337" y="587" on="0"/>
        <pt x="298" y="587" on="1"/>
        <pt x="284" y="587" on="0"/>
      </contour>
    </TTGlyph>
    <TTGlyph name="acircumflex" xMin="35" yMin="-16" xMax="583" yMax="718">
      <contour>
        <pt x="35" y="207" on="1"/>
        <pt x="35" y="279" on="0"/>
        <pt x="78" y="414" on="0"/>
        <pt x="173" y="512" on="0"/>
        <pt x="237" y="512" on="1"/>
        <pt x="266" y="512" on="0"/>
        <pt x="311" y="492" on="0"/>
        <pt x="336" y="463" on="0"/>
        <pt x="352" y="434" on="0"/>
        <pt x="358" y="414" on="0"/>
        <pt x="359" y="414" on="1"/>
        <pt x="359" y="468" on="0"/>
        <pt x="358" y="485" on="1"/>
        <pt x="378" y="502" on="0"/>
        <pt x="421" y="513" on="0"/>
        <pt x="459" y="513" on="1"/>
        <pt x="489" y="513" on="0"/>
        <pt x="536" y="509" on="0"/>
        <pt x="560" y="503" on="0"/>
        <pt x="575" y="497" on="0"/>
        <pt x="577" y="496" on="1"/>
        <pt x="579" y="495" on="1"/>
        <pt x="583" y="486" on="0"/>
        <pt x="583" y="439" on="1"/>
        <pt x="583" y="391" on="0"/>
        <pt x="579" y="382" on="1"/>
        <pt x="576" y="375" on="0"/>
        <pt x="518" y="364" on="0"/>
        <pt x="497" y="364" on="1"/>
        <pt x="487" y="364" on="0"/>
        <pt x="475" y="366" on="1"/>
        <pt x="478" y="360" on="0"/>
        <pt x="478" y="315" on="1"/>
        <pt x="478" y="184" on="0"/>
        <pt x="469" y="170" on="1"/>
        <pt x="476" y="173" on="0"/>
        <pt x="486" y="173" on="1"/>
        <pt x="530" y="173" on="0"/>
        <pt x="572" y="164" on="1"/>
        <pt x="580" y="158" on="0"/>
        <pt x="580" y="79" on="1"/>
        <pt x="580" y="35" on="0"/>
        <pt x="577" y="23" on="1"/>
        <pt x="570" y="12" on="0"/>
        <pt x="496" y="-8" on="0"/>
        <pt x="449" y="-8" on="1"/>
        <pt x="364" y="-8" on="0"/>
        <pt x="344" y="-4" on="1"/>
        <pt x="337" y="15" on="0"/>
        <pt x="337" y="28" on="1"/>
        <pt x="337" y="36" on="0"/>
        <pt x="340" y="40" on="1"/>
        <pt x="328" y="36" on="0"/>
        <pt x="216" y="-16" on="0"/>
        <pt x="191" y="-16" on="1"/>
        <pt x="114" y="-16" on="0"/>
        <pt x="35" y="114" on="0"/>
      </contour>
      <contour>
        <pt x="159" y="563" on="1"/>
        <pt x="184" y="605" on="0"/>
        <pt x="294" y="718" on="0"/>
        <pt x="364" y="718" on="0"/>
        <pt x="477" y="607" on="0"/>
        <pt x="501" y="563" on="1"/>
        <pt x="492" y="559" on="0"/>
        <pt x="476" y="559" on="0"/>
        <pt x="465" y="563" on="1"/>
        <pt x="433" y="580" on="0"/>
        <pt x="344" y="643" on="0"/>
        <pt x="330" y="664" on="1"/>
        <pt x="313" y="643" on="0"/>
        <pt x="222" y="575" on="0"/>
        <pt x="195" y="563" on="1"/>
        <pt x="183" y="559" on="0"/>
        <pt x="179" y="559" on="1"/>
        <pt x="171" y="559" on="0"/>
      </contour>
      <contour>
        <pt x="160" y="233" on="1"/>
        <pt x="160" y="177" on="0"/>
        <pt x="229" y="100" on="0"/>
        <pt x="267" y="100" on="1"/>
        <pt x="288" y="100" on="0"/>
        <pt x="342" y="122" on="0"/>
        <pt x="344" y="131" on="1"/>
        <pt x="347" y="177" on="0"/>
        <pt x="352" y="254" on="0"/>
        <pt x="355" y="295" on="0"/>
        <pt x="355" y="301" on="1"/>
        <pt x="355" y="313" on="1"/>
        <pt x="355" y="334" on="0"/>
        <pt x="300" y="375" on="0"/>
        <pt x="266" y="375" on="1"/>
        <pt x="216" y="375" on="0"/>
        <pt x="160" y="284" on="0"/>
      </contour>
    </TTGlyph>
    <TTGlyph name="acute" xMin="378" yMin="587" xMax="572" yMax="748">
      <contour>
        <pt x="378" y="595" on="1"/>
        <pt x="419" y="697" on="0"/>
        <pt x="464" y="746" on="1"/>
        <pt x="473" y="748" on="0"/>
        <pt x="491" y="748" on="1"/>
        <pt x="535" y="748" on="0"/>
        <pt x="572" y="722" on="1"/>
        <pt x="545" y="675" on="0"/>
        <pt x="442" y="587" on="0"/>
        <pt x="403" y="587" on="1"/>
        <pt x="389" y="587" on="0"/>
      </contour>
    </TTGlyph>
    <TTGlyph name="adieresis" xMin="35" yMin="-16" xMax="583" yMax="745">
      <contour>
        <pt x="35" y="207" on="1"/>
        <pt x="35" y="279" on="0"/>
        <pt x="78" y="414" on="0"/>
        <pt x="173" y="512" on="0"/>
        <pt x="237" y="512" on="1"/>
        <pt x="266" y="512" on="0"/>
        <pt x="311" y="492" on="0"/>
        <pt x="336" y="463" on="0"/>
        <pt x="352" y="434" on="0"/>
        <pt x="358" y="414" on="0"/>
        <pt x="359" y="414" on="1"/>
        <pt x="359" y="468" on="0"/>
        <pt x="358" y="485" on="1"/>
        <pt x="378" y="502" on="0"/>
        <pt x="421" y="513" on="0"/>
        <pt x="459" y="513" on="1"/>
        <pt x="489" y="513" on="0"/>
        <pt x="536" y="509" on="0"/>
        <pt x="560" y="503" on="0"/>
        <pt x="575" y="497" on="0"/>
        <pt x="577" y="496" on="1"/>
        <pt x="579" y="495" on="1"/>
        <pt x="583" y="486" on="0"/>
        <pt x="583" y="439" on="1"/>
        <pt x="583" y="391" on="0"/>
        <pt x="579" y="382" on="1"/>
        <pt x="576" y="375" on="0"/>
        <pt x="518" y="364" on="0"/>
        <pt x="497" y="364" on="1"/>
        <pt x="487" y="364" on="0"/>
        <pt x="475" y="366" on="1"/>
        <pt x="478" y="360" on="0"/>
        <pt x="478" y="315" on="1"/>
        <pt x="478" y="184" on="0"/>
        <pt x="469" y="170" on="1"/>
        <pt x="476" y="173" on="0"/>
        <pt x="486" y="173" on="1"/>
        <pt x="530" y="173" on="0"/>
        <pt x="572" y="164" on="1"/>
        <pt x="580" y="158" on="0"/>
        <pt x="580" y="79" on="1"/>
        <pt x="580" y="35" on="0"/>
        <pt x="577" y="23" on="1"/>
        <pt x="570" y="12" on="0"/>
        <pt x="496" y="-8" on="0"/>
        <pt x="449" y="-8" on="1"/>
        <pt x="364" y="-8" on="0"/>
        <pt x="344" y="-4" on="1"/>
        <pt x="337" y="15" on="0"/>
        <pt x="337" y="28" on="1"/>
        <pt x="337" y="36" on="0"/>
        <pt x="340" y="40" on="1"/>
        <pt x="328" y="36" on="0"/>
        <pt x="216" y="-16" on="0"/>
        <pt x="191" y="-16" on="1"/>
        <pt x="114" y="-16" on="0"/>
        <pt x="35" y="114" on="0"/>
      </contour>
      <contour>
        <pt x="160" y="233" on="1"/>
        <pt x="160" y="177" on="0"/>
        <pt x="229" y="100" on="0"/>
        <pt x="267" y="100" on="1"/>
        <pt x="288" y="100" on="0"/>
        <pt x="342" y="122" on="0"/>
        <pt x="344" y="131" on="1"/>
        <pt x="347" y="177" on="0"/>
        <pt x="352" y="254" on="0"/>
        <pt x="355" y="295" on="0"/>
        <pt x="355" y="301" on="1"/>
        <pt x="355" y="313" on="1"/>
        <pt x="355" y="334" on="0"/>
        <pt x="300" y="375" on="0"/>
        <pt x="266" y="375" on="1"/>
        <pt x="216" y="375" on="0"/>
        <pt x="160" y="284" on="0"/>
      </contour>
      <contour>
        <pt x="204" y="670" on="1"/>
        <pt x="204" y="705" on="0"/>
        <pt x="226" y="737" on="1"/>
        <pt x="254" y="745" on="0"/>
        <pt x="266" y="745" on="1"/>
        <pt x="285" y="745" on="0"/>
        <pt x="305" y="737" on="1"/>
        <pt x="326" y="705" on="0"/>
        <pt x="326" y="667" on="1"/>
        <pt x="326" y="630" on="0"/>
        <pt x="305" y="593" on="1"/>
        <pt x="289" y="585" on="0"/>
        <pt x="251" y="585" on="0"/>
        <pt x="226" y="593" on="1"/>
        <pt x="204" y="632" on="0"/>
      </contour>
      <contour>
        <pt x="374" y="670" on="1"/>
        <pt x="374" y="705" on="0"/>
        <pt x="396" y="737" on="1"/>
        <pt x="424" y="745" on="0"/>
        <pt x="436" y="745" on="1"/>
        <pt x="455" y="745" on="0"/>
        <pt x="475" y="737" on="1"/>
        <pt x="496" y="705" on="0"/>
        <pt x="496" y="667" on="1"/>
        <pt x="496" y="630" on="0"/>
        <pt x="475" y="593" on="1"/>
        <pt x="459" y="585" on="0"/>
        <pt x="421" y="585" on="0"/>
        <pt x="396" y="593" on="1"/>
        <pt x="374" y="632" on="0"/>
      </contour>
    </TTGlyph>
</ttFont>
